<svg width="363" height="75" viewBox="0 0 363 75" fill="none" xmlns="http://www.w3.org/2000/svg">
<path d="M362.064 37.8924C362.064 40.2335 360.91 42.5859 358.568 44.9317C356.224 47.2792 352.736 49.5735 348.187 51.7779C339.093 56.1855 325.892 60.1717 309.531 63.5257C276.817 70.2314 231.595 74.3837 181.625 74.3837C131.655 74.3837 86.4334 70.2314 53.7198 63.5257C37.3579 60.1717 24.1578 56.1855 15.0633 51.7779C10.5147 49.5735 7.02591 47.2792 4.68251 44.9317C2.34079 42.5859 1.18628 40.2335 1.18628 37.8924C1.18628 35.5513 2.34079 33.1989 4.68251 30.8531C7.02591 28.5057 10.5147 26.2113 15.0633 24.0069C24.1578 19.5994 37.3579 15.6131 53.7198 12.2592C86.4334 5.55339 131.655 1.40113 181.625 1.40113C231.595 1.40113 276.817 5.55339 309.531 12.2592C325.892 15.6131 339.093 19.5994 348.187 24.0069C352.736 26.2113 356.224 28.5057 358.568 30.8531C360.91 33.1989 362.064 35.5513 362.064 37.8924Z" fill="#DCDCDC" stroke="black" stroke-width="1.24757"/>
<path d="M87.7748 51.9824L85.5056 60.96H66.3962L66.3962 59.6873C72.0176 52.3035 75.9748 46.2725 78.2679 41.5946C80.561 36.9166 81.7076 32.6399 81.7076 28.7645C81.7076 25.8064 81.0786 23.3757 79.8206 21.4724C78.5625 19.5691 77.0577 18.6174 75.306 18.6174C73.7135 18.6174 72.2803 19.2939 71.0064 20.6469C69.7483 21.9769 68.8167 23.9375 68.2116 26.5287H67.3278C67.7259 22.2864 68.7451 19.0302 70.3853 16.76C72.0415 14.4898 74.1037 13.3547 76.572 13.3547C79.1995 13.3547 81.3891 14.5701 83.1408 17.0008C84.9084 19.4315 85.7922 22.2979 85.7922 25.6C85.7922 27.9619 85.4101 30.3239 84.6457 32.6858C83.4673 36.4006 81.5563 40.3333 78.9129 44.4839C74.9477 50.7212 72.4714 54.4819 71.4841 55.7661H79.94C81.6598 55.7661 82.8621 55.6743 83.5469 55.4909C84.2476 55.3074 84.8766 54.9405 85.4339 54.3902C85.9913 53.8169 86.477 53.0143 86.891 51.9824H87.7748ZM96.7467 37.4669C94.1828 34.44 92.5267 32.0093 91.7782 30.1748C91.0457 28.3403 90.6795 26.437 90.6795 24.4649C90.6795 21.438 91.4916 18.8353 93.1159 16.6568C94.7402 14.4554 96.898 13.3547 99.5892 13.3547C102.201 13.3547 104.303 14.3752 105.895 16.416C107.488 18.4569 108.284 20.7845 108.284 23.3986C108.284 25.1414 107.854 26.9186 106.994 28.7301C106.134 30.5417 104.343 32.6743 101.62 35.1279C104.422 38.2466 106.277 40.7002 107.185 42.4889C108.395 44.8279 109.001 47.293 109.001 49.8842C109.001 53.1634 108.133 55.9725 106.397 58.3114C104.661 60.6275 102.384 61.7855 99.5653 61.7855C96.4919 61.7855 94.0953 60.3982 92.3754 57.6235C91.0059 55.3992 90.3212 52.9685 90.3212 50.3314C90.3212 48.2676 90.7989 46.2267 91.7544 44.2087C92.7258 42.1678 94.3899 39.9206 96.7467 37.4669ZM100.497 33.7865C102.408 31.3099 103.618 29.3607 104.128 27.939C104.637 26.4943 104.892 24.8662 104.892 23.0546C104.892 20.6469 104.422 18.7665 103.483 17.4136C102.543 16.0377 101.261 15.3497 99.637 15.3497C98.0127 15.3497 96.691 16.0262 95.6718 17.3792C94.6526 18.7321 94.143 20.3144 94.143 22.1259C94.143 23.3184 94.3501 24.5108 94.7641 25.7032C95.1941 26.8956 95.7992 28.0307 96.5795 29.1085L100.497 33.7865ZM97.8694 38.774C96.5476 40.3792 95.5683 42.1334 94.9313 44.0367C94.2943 45.9171 93.9758 47.958 93.9758 50.1594C93.9758 53.1175 94.5332 55.4909 95.6479 57.2795C96.7785 59.0452 98.2117 59.9281 99.9475 59.9281C101.667 59.9281 103.045 59.2287 104.08 57.8299C105.115 56.4311 105.633 54.7342 105.633 52.7391C105.633 51.0881 105.33 49.609 104.725 48.302C103.594 45.8712 101.309 42.6953 97.8694 38.774ZM123.084 12.0476L111.356 61.9231H109.445L121.173 12.0476L123.084 12.0476ZM126.275 18.8926L134.158 13.3547H134.946L134.946 52.7391C134.946 55.3533 135.018 56.9814 135.161 57.6235C135.321 58.2656 135.639 58.7586 136.117 59.1026C136.595 59.4465 137.566 59.6415 139.031 59.6873L139.031 60.96H126.849L126.849 59.6873C128.377 59.6415 129.365 59.458 129.811 59.137C130.257 58.793 130.567 58.3458 130.742 57.7955C130.917 57.2222 131.005 55.5368 131.005 52.7391L131.005 27.5606C131.005 24.1668 130.925 21.9883 130.766 21.0252C130.655 20.2914 130.448 19.7525 130.145 19.4086C129.858 19.0646 129.508 18.8926 129.094 18.8926C128.505 18.8926 127.685 19.2481 126.634 19.9589L126.275 18.8926ZM144.324 37.9141C144.324 32.594 144.882 28.0193 145.996 24.1897C147.111 20.3373 148.592 17.4709 150.439 15.5905C151.872 14.1 153.353 13.3547 154.882 13.3547C157.366 13.3547 159.596 15.1778 161.57 18.8238C164.039 23.3413 165.273 29.4639 165.273 37.1918C165.273 42.6035 164.731 47.2013 163.649 50.9849C162.566 54.7686 161.18 57.5203 159.492 59.2402C157.82 60.9371 156.204 61.7855 154.643 61.7855C151.554 61.7855 148.982 59.1599 146.928 53.9086C145.192 49.4829 144.324 44.1514 144.324 37.9141ZM149.006 38.774C149.006 45.1948 149.555 50.4346 150.654 54.4934C151.562 57.9101 152.916 59.6185 154.715 59.6185C155.575 59.6185 156.467 59.0682 157.39 57.9675C158.314 56.8438 159.015 54.9749 159.492 52.3608C160.225 48.4166 160.591 42.8558 160.591 35.6783C160.591 30.3582 160.209 25.9211 159.445 22.3667C158.871 19.7296 158.131 17.8607 157.223 16.76C156.57 16.0033 155.782 15.6249 154.858 15.6249C153.775 15.6249 152.812 16.3243 151.968 17.7231C150.821 19.6264 150.041 22.619 149.627 26.7007C149.213 30.7825 149.006 34.8069 149.006 38.774ZM176.337 42.5577H188.687L188.687 47.7516H176.337L176.337 42.5577ZM199.751 37.9141C199.751 32.594 200.308 28.0193 201.423 24.1897C202.538 20.3373 204.019 17.4709 205.866 15.5905C207.299 14.1 208.78 13.3547 210.309 13.3547C212.793 13.3547 215.023 15.1778 216.997 18.8238C219.465 23.3413 220.7 29.4639 220.7 37.1918C220.7 42.6035 220.158 47.2013 219.075 50.9849C217.992 54.7686 216.607 57.5203 214.919 59.2402C213.247 60.9371 211.631 61.7855 210.07 61.7855C206.981 61.7855 204.409 59.1599 202.355 53.9086C200.619 49.4829 199.751 44.1514 199.751 37.9141ZM204.433 38.774C204.433 45.1948 204.982 50.4346 206.081 54.4934C206.989 57.9101 208.342 59.6185 210.142 59.6185C211.002 59.6185 211.893 59.0682 212.817 57.9675C213.741 56.8438 214.441 54.9749 214.919 52.3608C215.652 48.4166 216.018 42.8558 216.018 35.6783C216.018 30.3582 215.636 25.9211 214.871 22.3667C214.298 19.7296 213.558 17.8607 212.65 16.76C211.997 16.0033 211.209 15.6249 210.285 15.6249C209.202 15.6249 208.239 16.3243 207.395 17.7231C206.248 19.6264 205.468 22.619 205.054 26.7007C204.64 30.7825 204.433 34.8069 204.433 38.774ZM225.73 18.8926L233.613 13.3547H234.401L234.401 52.7391C234.401 55.3533 234.473 56.9814 234.616 57.6235C234.775 58.2656 235.094 58.7586 235.572 59.1026C236.049 59.4465 237.021 59.6415 238.486 59.6873L238.486 60.96H226.303L226.303 59.6873C227.832 59.6415 228.82 59.458 229.265 59.137C229.711 58.793 230.022 58.3458 230.197 57.7955C230.372 57.2222 230.46 55.5368 230.46 52.7391L230.46 27.5606C230.46 24.1668 230.38 21.9883 230.221 21.0252C230.109 20.2914 229.902 19.7525 229.6 19.4086C229.313 19.0646 228.963 18.8926 228.549 18.8926C227.96 18.8926 227.14 19.2481 226.088 19.9589L225.73 18.8926ZM255.722 12.0476L243.994 61.9231H242.083L253.811 12.0476H255.722ZM258.914 18.8926L266.796 13.3547H267.584L267.584 52.7391C267.584 55.3533 267.656 56.9814 267.799 57.6235C267.959 58.2656 268.277 58.7586 268.755 59.1026C269.233 59.4465 270.204 59.6415 271.669 59.6873L271.669 60.96H259.487L259.487 59.6873C261.016 59.6415 262.003 59.458 262.449 59.137C262.895 58.793 263.205 58.3458 263.38 57.7955C263.556 57.2222 263.643 55.5368 263.643 52.7391L263.643 27.5606C263.643 24.1668 263.564 21.9883 263.404 21.0252C263.293 20.2914 263.086 19.7525 262.783 19.4086C262.497 19.0646 262.146 18.8926 261.732 18.8926C261.143 18.8926 260.323 19.2481 259.272 19.9589L258.914 18.8926ZM280.928 18.8926L288.81 13.3547H289.598L289.598 52.7391C289.598 55.3533 289.67 56.9814 289.813 57.6235C289.973 58.2656 290.291 58.7586 290.769 59.1026C291.247 59.4465 292.218 59.6415 293.683 59.6873L293.683 60.96H281.501L281.501 59.6873C283.03 59.6415 284.017 59.458 284.463 59.137C284.909 58.793 285.219 58.3458 285.394 57.7955C285.57 57.2222 285.657 55.5368 285.657 52.7391L285.657 27.5606C285.657 24.1668 285.578 21.9883 285.418 21.0252C285.307 20.2914 285.1 19.7525 284.797 19.4086C284.511 19.0646 284.16 18.8926 283.746 18.8926C283.157 18.8926 282.337 19.2481 281.286 19.9589L280.928 18.8926Z" fill="#3A2F2F"/>
</svg>
