<svg width="356" height="143" viewBox="0 0 356 143" fill="none" xmlns="http://www.w3.org/2000/svg">
<path d="M355.162 0.755846L355.941 0H264.326V125.637L265.104 124.882L355.162 0.755846Z" fill="#DCDCDC"/>
<path d="M355.941 0L355.162 0.755846L265.104 124.882L264.326 125.637H355.941V0Z" fill="#818282"/>
<path d="M355.164 1.05469H265.105V124.587H355.164V1.05469Z" fill="#BFBEBE"/>
<path d="M354.542 118.758L349.252 123.895H354.542V118.758Z" fill="#BFBEBE"/>
<path d="M355.164 6.80469H265.105V124.878H355.164V6.80469Z" fill="#BFBEBE"/>
<path d="M353.926 7.5625H265.961V119.47H353.926V7.5625Z" fill="#818282"/>
<path d="M353.918 7.95312H266.35V119.467H353.918V7.95312Z" fill="#FCFCFC"/>
<path d="M355.164 0.761719H265.105V6.49015H355.164V0.761719Z" fill="url(#paint0_linear_13011_15671)"/>
<path d="M354.073 1.91291L354.306 1.68359H350.338V5.57929L350.571 5.34997L354.073 1.91291Z" fill="#DCDCDC"/>
<path d="M354.073 1.91291L350.571 5.34997L350.338 5.57929H354.306V1.68359L354.073 1.91291Z" fill="#818282"/>
<path d="M354.071 1.90625H350.57V5.34331H354.071V1.90625Z" fill="#BFBEBE"/>
<path d="M351.153 2.31441L350.988 2.47656L353.496 4.93871L353.661 4.77656L351.153 2.31441Z" fill="#161616"/>
<path d="M353.496 2.31128L350.988 4.77344L351.153 4.93559L353.661 2.47344L353.496 2.31128Z" fill="#161616"/>
<path d="M349.016 1.91291L349.249 1.68359H345.281V5.57929L345.515 5.34997L349.016 1.91291Z" fill="#DCDCDC"/>
<path d="M349.016 1.91291L345.515 5.34997L345.281 5.57929H349.249V1.68359L349.016 1.91291Z" fill="#818282"/>
<path d="M349.017 1.91016H345.516V5.34721H349.017V1.91016Z" fill="#BFBEBE"/>
<path d="M348.589 4.92886H345.943V2.33203H348.589V4.92886ZM346.177 4.69954H348.355V2.56135H346.177V4.69954Z" fill="#161616"/>
<path d="M348.472 2.49219H346.061V2.79764H348.472V2.49219Z" fill="#161616"/>
<path d="M345.051 1.91291L345.285 1.68359H341.316V5.57929L341.55 5.34997L345.051 1.91291Z" fill="#DCDCDC"/>
<path d="M345.051 1.91291L341.55 5.34997L341.316 5.57929H345.285V1.68359L345.051 1.91291Z" fill="#818282"/>
<path d="M345.05 1.91016H341.549V5.34721H345.05V1.91016Z" fill="#BFBEBE"/>
<path d="M344.196 4.66406H342.406V4.89338H344.196V4.66406Z" fill="#161616"/>
<path d="M353.927 119.484L349.945 123.393H350.337L353.927 119.869V119.484Z" fill="#DCDCDC"/>
<path d="M353.928 119.867L350.338 123.391H350.729L353.928 120.252V119.867Z" fill="#818282"/>
<path d="M353.927 120.699L351.186 123.391H351.577L353.927 121.084V120.699Z" fill="#DCDCDC"/>
<path d="M353.928 121.086L351.578 123.393H351.97L353.928 121.47V121.086Z" fill="#818282"/>
<path d="M353.927 121.918L352.426 123.392H352.818L353.927 122.303V121.918Z" fill="#DCDCDC"/>
<path d="M353.927 122.305L352.818 123.394H353.21L353.927 122.689V122.305Z" fill="#818282"/>
<path d="M353.917 7.95703H349.949V119.471H353.917V7.95703Z" fill="#DCDCDC"/>
<path d="M353.683 115.777L353.916 115.547H349.949V119.469L350.182 119.239L353.683 115.777Z" fill="#DCDCDC"/>
<path d="M353.683 115.777L350.182 119.239L349.949 119.469H353.916V115.547L353.683 115.777Z" fill="#818282"/>
<path d="M353.685 115.773H350.184V119.234H353.685V115.773Z" fill="#BFBEBE"/>
<path d="M351.934 118.417L350.729 116.934H353.14L351.934 118.417Z" fill="#818282"/>
<path d="M353.683 8.22334L353.916 7.99219H349.949V11.9154L350.182 11.6843L353.683 8.22334Z" fill="#DCDCDC"/>
<path d="M353.683 8.22334L350.182 11.6843L349.949 11.9154H353.916V7.99219L353.683 8.22334Z" fill="#818282"/>
<path d="M353.685 8.22656H350.184V11.6875H353.685V8.22656Z" fill="#BFBEBE"/>
<path d="M351.934 9.17188L350.729 10.6551H353.14L351.934 9.17188Z" fill="#818282"/>
<path d="M265.961 119.471V123.367H349.874V119.471H265.961Z" fill="#DCDCDC"/>
<path d="M349.639 119.706L349.873 119.477H345.883V123.372L346.117 123.143L349.639 119.706Z" fill="#DCDCDC"/>
<path d="M349.639 119.706L346.117 123.143L345.883 123.372H349.873V119.477L349.639 119.706Z" fill="#818282"/>
<path d="M349.639 119.703H346.117V123.14H349.639V119.703Z" fill="#BFBEBE"/>
<path d="M348.634 121.379L347.125 120.195V122.563L348.634 121.379Z" fill="#818282"/>
<path d="M269.718 119.706L269.953 119.477H265.961V123.372L266.196 123.143L269.718 119.706Z" fill="#DCDCDC"/>
<path d="M269.718 119.706L266.196 123.143L265.961 123.372H269.953V119.477L269.718 119.706Z" fill="#818282"/>
<path d="M269.717 119.703H266.195V123.14H269.717V119.703Z" fill="#BFBEBE"/>
<path d="M267.203 121.379L268.712 120.195V122.563L267.203 121.379Z" fill="#818282"/>
<path d="M276.173 22.806L277.088 21.918H169.342V121.568L170.257 120.68L276.173 22.806Z" fill="#DCDCDC"/>
<path d="M277.088 21.918L276.173 22.806L170.257 120.68L169.342 121.568H277.088V21.918Z" fill="#818282"/>
<path d="M276.173 23.1562H170.256V120.332H276.173V23.1562Z" fill="#BFBEBE"/>
<path d="M275.441 113.484L269.219 119.526H275.441V113.484Z" fill="#BFBEBE"/>
<path d="M276.173 29.9219H170.256V120.678H276.173V29.9219Z" fill="#BFBEBE"/>
<path d="M274.718 30.8125H171.264V114.317H274.718V30.8125Z" fill="#818282"/>
<path d="M274.71 31.2773H171.721V114.319H274.71V31.2773Z" fill="#FCFCFC"/>
<path d="M276.173 22.8203H170.256V29.5573H276.173V22.8203Z" fill="url(#paint1_linear_13011_15671)"/>
<path d="M274.892 24.1599L275.167 23.8906H270.5V28.4721L270.775 28.2017L274.892 24.1599Z" fill="#DCDCDC"/>
<path d="M274.892 24.1599L270.775 28.2017L270.5 28.4721H275.167V23.8906L274.892 24.1599Z" fill="#818282"/>
<path d="M274.893 24.1641H270.775V28.2069H274.893V24.1641Z" fill="#BFBEBE"/>
<path d="M271.458 24.6338L271.264 24.8242L274.213 27.7199L274.407 27.5295L271.458 24.6338Z" fill="#161616"/>
<path d="M274.211 24.6316L271.262 27.5273L271.456 27.7178L274.405 24.8221L274.211 24.6316Z" fill="#161616"/>
<path d="M268.945 24.1599L269.219 23.8906H264.553V28.4721L264.828 28.2017L268.945 24.1599Z" fill="#DCDCDC"/>
<path d="M268.945 24.1599L264.828 28.2017L264.553 28.4721H269.219V23.8906L268.945 24.1599Z" fill="#818282"/>
<path d="M268.946 24.1641H264.828V28.2069H268.946V24.1641Z" fill="#BFBEBE"/>
<path d="M268.44 27.7109H265.328V24.6562H268.44V27.7109ZM265.604 27.4416H268.165V24.9267H265.604V27.4416Z" fill="#161616"/>
<path d="M268.303 24.8516H265.467V25.211H268.303V24.8516Z" fill="#161616"/>
<path d="M264.276 24.1599L264.55 23.8906H259.885V28.4721L260.159 28.2017L264.276 24.1599Z" fill="#DCDCDC"/>
<path d="M264.276 24.1599L260.159 28.2017L259.885 28.4721H264.55V23.8906L264.276 24.1599Z" fill="#818282"/>
<path d="M264.278 24.1641H260.16V28.2069H264.278V24.1641Z" fill="#BFBEBE"/>
<path d="M263.271 27.4023H261.166V27.6716H263.271V27.4023Z" fill="#161616"/>
<path d="M274.718 114.336L270.035 118.934H270.495L274.718 114.789V114.336Z" fill="#DCDCDC"/>
<path d="M274.718 114.789L270.496 118.934H270.956L274.718 115.241V114.789Z" fill="#818282"/>
<path d="M274.717 115.766L271.492 118.932H271.954L274.717 116.219V115.766Z" fill="#DCDCDC"/>
<path d="M274.717 116.219L271.953 118.932H272.413L274.717 116.671V116.219Z" fill="#818282"/>
<path d="M274.717 117.203L272.951 118.937H273.413L274.717 117.655V117.203Z" fill="#DCDCDC"/>
<path d="M274.719 117.652L273.414 118.934H273.874L274.719 118.105V117.652Z" fill="#818282"/>
<path d="M274.708 31.2812H270.041V114.323H274.708V31.2812Z" fill="#DCDCDC"/>
<path d="M274.433 109.982L274.708 109.711H270.041V114.325L270.315 114.053L274.433 109.982Z" fill="#DCDCDC"/>
<path d="M274.433 109.982L270.315 114.053L270.041 114.325H274.708V109.711L274.433 109.982Z" fill="#818282"/>
<path d="M274.435 109.984H270.316V114.055H274.435V109.984Z" fill="#BFBEBE"/>
<path d="M272.375 113.084L270.957 111.34H273.793L272.375 113.084Z" fill="#818282"/>
<path d="M274.433 31.5879L274.708 31.3164H270.041V35.9301L270.315 35.6586L274.433 31.5879Z" fill="#DCDCDC"/>
<path d="M274.433 31.5879L270.315 35.6586L270.041 35.9301H274.708V31.3164L274.433 31.5879Z" fill="#818282"/>
<path d="M274.435 31.5859H270.316V35.6566H274.435V31.5859Z" fill="#BFBEBE"/>
<path d="M272.375 32.7031L270.957 34.4469H273.793L272.375 32.7031Z" fill="#818282"/>
<path d="M171.262 114.321V118.902H269.951V114.321H171.262Z" fill="#DCDCDC"/>
<path d="M269.675 114.59L269.952 114.32H265.258V118.901L265.533 118.631L269.675 114.59Z" fill="#DCDCDC"/>
<path d="M269.675 114.59L265.533 118.631L265.258 118.901H269.952V114.32L269.675 114.59Z" fill="#818282"/>
<path d="M269.675 114.586H265.533V118.629H269.675V114.586Z" fill="#BFBEBE"/>
<path d="M268.492 116.556L266.717 115.164V117.948L268.492 116.556Z" fill="#818282"/>
<path d="M175.68 114.59L175.956 114.32H171.262V118.901L171.538 118.631L175.68 114.59Z" fill="#DCDCDC"/>
<path d="M175.68 114.59L171.538 118.631L171.262 118.901H175.956V114.32L175.68 114.59Z" fill="#818282"/>
<path d="M175.681 114.586H171.539V118.629H175.681V114.586Z" fill="#BFBEBE"/>
<path d="M172.723 116.556L174.498 115.164V117.948L172.723 116.556Z" fill="#818282"/>
<path d="M178.846 18.9907L179.617 18.2422H88.8945V142.655L89.6643 141.907L178.846 18.9907Z" fill="#DCDCDC"/>
<path d="M179.617 18.2422L178.846 18.9907L89.6643 141.907L88.8945 142.655H179.617V18.2422Z" fill="#818282"/>
<path d="M178.847 19.2852H89.666V141.614H178.847V19.2852Z" fill="#BFBEBE"/>
<path d="M178.229 135.848L172.99 140.934H178.229V135.848Z" fill="#BFBEBE"/>
<path d="M178.847 24.9844H89.666V141.908H178.847V24.9844Z" fill="#BFBEBE"/>
<path d="M177.62 25.7305H90.5117V136.548H177.62V25.7305Z" fill="#818282"/>
<path d="M177.614 26.1211H90.8984V136.549H177.614V26.1211Z" fill="#FCFCFC"/>
<path d="M178.846 19H89.6641V24.6726H178.846V19Z" fill="url(#paint2_linear_13011_15671)"/>
<path d="M177.772 20.1451L178.004 19.918H174.074V23.7757L174.306 23.5486L177.772 20.1451Z" fill="#DCDCDC"/>
<path d="M177.772 20.1451L174.306 23.5486L174.074 23.7757H178.004V19.918L177.772 20.1451Z" fill="#818282"/>
<path d="M177.772 20.1406H174.305V23.5442H177.772V20.1406Z" fill="#BFBEBE"/>
<path d="M174.878 20.5426L174.715 20.7031L177.198 23.1413L177.362 22.9807L174.878 20.5426Z" fill="#161616"/>
<path d="M177.196 20.5462L174.713 22.9844L174.876 23.1449L177.36 20.7068L177.196 20.5462Z" fill="#161616"/>
<path d="M172.761 20.1451L172.992 19.918H169.062V23.7757L169.294 23.5486L172.761 20.1451Z" fill="#DCDCDC"/>
<path d="M172.761 20.1451L169.294 23.5486L169.062 23.7757H172.992V19.918L172.761 20.1451Z" fill="#818282"/>
<path d="M172.76 20.1406H169.293V23.5442H172.76V20.1406Z" fill="#BFBEBE"/>
<path d="M172.338 23.1301H169.719V20.5586H172.338V23.1301ZM169.95 22.903H172.107V20.7857H169.95V22.903Z" fill="#161616"/>
<path d="M172.222 20.7188H169.834V21.0212H172.222V20.7188Z" fill="#161616"/>
<path d="M168.835 20.1451L169.066 19.918H165.137V23.7757L165.368 23.5486L168.835 20.1451Z" fill="#DCDCDC"/>
<path d="M168.835 20.1451L165.368 23.5486L165.137 23.7757H169.066V19.918L168.835 20.1451Z" fill="#818282"/>
<path d="M168.834 20.1406H165.367V23.5442H168.834V20.1406Z" fill="#BFBEBE"/>
<path d="M167.985 22.8672H166.213V23.0943H167.985V22.8672Z" fill="#161616"/>
<path d="M177.622 136.57L173.68 140.441H174.067L177.622 136.951V136.57Z" fill="#DCDCDC"/>
<path d="M177.623 136.953L174.068 140.443H174.456L177.623 137.334V136.953Z" fill="#818282"/>
<path d="M177.621 137.777L174.906 140.442H175.294L177.621 138.158V137.777Z" fill="#DCDCDC"/>
<path d="M177.622 138.156L175.295 140.441H175.683L177.622 138.537V138.156Z" fill="#818282"/>
<path d="M177.622 138.98L176.135 140.44H176.523L177.622 139.362V138.98Z" fill="#DCDCDC"/>
<path d="M177.622 139.363L176.523 140.441H176.911L177.622 139.744V139.363Z" fill="#818282"/>
<path d="M177.615 26.125H173.686V136.553H177.615V26.125Z" fill="#DCDCDC"/>
<path d="M177.379 132.896L177.61 132.668H173.682V136.552L173.912 136.324L177.379 132.896Z" fill="#DCDCDC"/>
<path d="M177.379 132.896L173.912 136.324L173.682 136.552H177.61V132.668L177.379 132.896Z" fill="#818282"/>
<path d="M177.381 132.895H173.914V136.322H177.381V132.895Z" fill="#BFBEBE"/>
<path d="M175.647 135.504L174.453 134.035H176.841L175.647 135.504Z" fill="#818282"/>
<path d="M177.381 26.3852L177.612 26.1562H173.684V30.0412L173.914 29.8123L177.381 26.3852Z" fill="#DCDCDC"/>
<path d="M177.381 26.3852L173.914 29.8123L173.684 30.0412H177.612V26.1562L177.381 26.3852Z" fill="#818282"/>
<path d="M177.383 26.3867H173.916V29.8139H177.383V26.3867Z" fill="#BFBEBE"/>
<path d="M175.649 27.3242L174.455 28.793H176.843L175.649 27.3242Z" fill="#818282"/>
<path d="M90.5156 136.552V140.41H173.611V136.552H90.5156Z" fill="#DCDCDC"/>
<path d="M173.376 136.778L173.608 136.551H169.656V140.409L169.888 140.181L173.376 136.778Z" fill="#DCDCDC"/>
<path d="M173.376 136.778L169.888 140.181L169.656 140.409H173.608V136.551L173.376 136.778Z" fill="#818282"/>
<path d="M173.374 136.777H169.887V140.181H173.374V136.777Z" fill="#BFBEBE"/>
<path d="M172.379 138.441L170.885 137.27V139.614L172.379 138.441Z" fill="#818282"/>
<path d="M94.2361 136.778L94.4683 136.551H90.5156V140.409L90.7488 140.181L94.2361 136.778Z" fill="#DCDCDC"/>
<path d="M94.2361 136.778L90.7488 140.181L90.5156 140.409H94.4683V136.551L94.2361 136.778Z" fill="#818282"/>
<path d="M94.2353 136.777H90.748V140.181H94.2353V136.777Z" fill="#BFBEBE"/>
<path d="M91.7441 138.437L93.2384 137.266V139.61L91.7441 138.437Z" fill="#818282"/>
<path d="M97.9459 34.3103L98.7846 33.4961H0V124.858L0.838673 124.044L97.9459 34.3103Z" fill="#DCDCDC"/>
<path d="M98.7846 33.4961L97.9459 34.3103L0.838673 124.044L0 124.858H98.7846V33.4961Z" fill="#818282"/>
<path d="M97.9452 34.6328H0.837891V123.726H97.9452V34.6328Z" fill="#BFBEBE"/>
<path d="M97.2747 117.445L91.5703 122.984H97.2747V117.445Z" fill="#BFBEBE"/>
<path d="M97.9452 40.8359H0.837891V124.044H97.9452V40.8359Z" fill="#BFBEBE"/>
<path d="M96.6117 41.6484H1.76172V118.207H96.6117V41.6484Z" fill="#818282"/>
<path d="M96.6045 42.0742H2.18164V118.209H96.6045V42.0742Z" fill="#FCFCFC"/>
<path d="M97.9452 34.3164H0.837891V40.493H97.9452V34.3164Z" fill="url(#paint3_linear_13011_15671)"/>
<path d="M96.7693 35.5594L97.0208 35.3125H92.7422V39.5129L92.9947 39.265L96.7693 35.5594Z" fill="#DCDCDC"/>
<path d="M96.7693 35.5594L92.9947 39.265L92.7422 39.5129H97.0208V35.3125L96.7693 35.5594Z" fill="#818282"/>
<path d="M96.7697 35.5586H92.9941V39.2652H96.7697V35.5586Z" fill="#BFBEBE"/>
<path d="M93.6192 35.9934L93.4414 36.168L96.1457 38.8228L96.3235 38.6482L93.6192 35.9934Z" fill="#161616"/>
<path d="M96.1437 35.9936L93.4395 38.6484L93.6173 38.823L96.3216 36.1682L96.1437 35.9936Z" fill="#161616"/>
<path d="M91.3181 35.5594L91.5696 35.3125H87.291V39.5129L87.5436 39.265L91.3181 35.5594Z" fill="#DCDCDC"/>
<path d="M91.3181 35.5594L87.5436 39.265L87.291 39.5129H91.5696V35.3125L91.3181 35.5594Z" fill="#818282"/>
<path d="M91.3186 35.5586H87.543V39.2652H91.3186V35.5586Z" fill="#BFBEBE"/>
<path d="M90.8566 38.8084H88.0039V36.0078H90.8566V38.8084ZM88.2564 38.5615H90.6051V36.2557H88.2564V38.5615Z" fill="#161616"/>
<path d="M90.7311 36.1836H88.1309V36.5131H90.7311V36.1836Z" fill="#161616"/>
<path d="M87.0339 35.5594L87.2854 35.3125H83.0078V39.5129L83.2593 39.265L87.0339 35.5594Z" fill="#DCDCDC"/>
<path d="M87.0339 35.5594L83.2593 39.265L83.0078 39.5129H87.2854V35.3125L87.0339 35.5594Z" fill="#818282"/>
<path d="M87.0373 35.5586H83.2617V39.2652H87.0373V35.5586Z" fill="#BFBEBE"/>
<path d="M86.1154 38.5312H84.1855V38.7782H86.1154V38.5312Z" fill="#161616"/>
<path d="M96.6115 118.227L92.3184 122.442H92.7403L96.6115 118.642V118.227Z" fill="#DCDCDC"/>
<path d="M96.6114 118.641L92.7402 122.441H93.1622L96.6114 119.055V118.641Z" fill="#818282"/>
<path d="M96.611 119.543L93.6543 122.446H94.0773L96.611 119.958V119.543Z" fill="#DCDCDC"/>
<path d="M96.6118 119.953L94.0781 122.441H94.5001L96.6118 120.367V119.953Z" fill="#818282"/>
<path d="M96.6133 120.852L94.9941 122.441H95.4171L96.6133 121.266V120.852Z" fill="#DCDCDC"/>
<path d="M96.6102 121.266L95.4141 122.441H95.836L96.6102 121.681V121.266Z" fill="#818282"/>
<path d="M96.6067 42.0703H92.3281V118.205H96.6067V42.0703Z" fill="#DCDCDC"/>
<path d="M96.3572 114.222L96.6087 113.973H92.3301V118.203L92.5816 117.954L96.3572 114.222Z" fill="#DCDCDC"/>
<path d="M96.3572 114.222L92.5816 117.954L92.3301 118.203H96.6087V113.973L96.3572 114.222Z" fill="#818282"/>
<path d="M96.3576 114.223H92.582V117.955H96.3576V114.223Z" fill="#BFBEBE"/>
<path d="M94.4681 117.067L93.168 115.469H95.7682L94.4681 117.067Z" fill="#818282"/>
<path d="M96.3572 42.3583L96.6087 42.1094H92.3301V46.3394L92.5816 46.0904L96.3572 42.3583Z" fill="#DCDCDC"/>
<path d="M96.3572 42.3583L92.5816 46.0904L92.3301 46.3394H96.6087V42.1094L96.3572 42.3583Z" fill="#818282"/>
<path d="M96.3576 42.3594H92.582V46.0915H96.3576V42.3594Z" fill="#BFBEBE"/>
<path d="M94.4681 43.3789L93.168 44.9776H95.7682L94.4681 43.3789Z" fill="#818282"/>
<path d="M1.76367 118.214L1.76367 122.414H92.2447V118.214H1.76367Z" fill="#DCDCDC"/>
<path d="M91.9953 118.458L92.2488 118.211H87.9453V122.41L88.1978 122.163L91.9953 118.458Z" fill="#DCDCDC"/>
<path d="M91.9953 118.458L88.1978 122.163L87.9453 122.41H92.2488V118.211L91.9953 118.458Z" fill="#818282"/>
<path d="M91.9947 118.457H88.1973V122.164H91.9947V118.457Z" fill="#BFBEBE"/>
<path d="M90.9068 120.261L89.2793 118.984V121.537L90.9068 120.261Z" fill="#818282"/>
<path d="M5.81661 118.458L6.06915 118.211H1.76562V122.41L2.0192 122.163L5.81661 118.458Z" fill="#DCDCDC"/>
<path d="M5.81661 118.458L2.0192 122.163L1.76562 122.41H6.06915V118.211L5.81661 118.458Z" fill="#818282"/>
<path d="M5.81694 118.457H2.01953V122.164H5.81694V118.457Z" fill="#BFBEBE"/>
<path d="M3.10352 120.261L4.73098 118.984V121.537L3.10352 120.261Z" fill="#818282"/>
<path d="M164.415 77.2658L164.405 85.4497C165.034 84.4569 165.533 83.8224 165.9 83.5459C166.268 83.2613 166.636 83.1193 167.004 83.1197C167.445 83.1202 167.823 83.2957 168.14 83.6462C168.456 83.9968 168.69 84.5467 168.842 85.296C168.949 85.8173 169.001 86.7701 169 88.1545L168.995 92.112C168.994 92.8205 169.033 93.3051 169.112 93.5657C169.168 93.7612 169.264 93.9161 169.4 94.0302C169.536 94.1444 169.784 94.2017 170.146 94.2021L170.146 94.6418L166.329 94.6374L166.329 94.1977L166.507 94.1979C166.869 94.1983 167.121 94.1212 167.262 93.9667C167.404 93.804 167.503 93.5679 167.56 93.2586C167.577 93.1283 167.586 92.7456 167.587 92.1104L167.592 88.1528C167.593 86.9314 167.549 86.1292 167.459 85.7464C167.374 85.3636 167.236 85.0784 167.044 84.8909C166.852 84.6952 166.62 84.5972 166.349 84.5969C166.072 84.5966 165.783 84.7021 165.483 84.9135C165.183 85.1249 164.824 85.5519 164.404 86.1948L164.398 92.1067C164.397 92.8721 164.424 93.3486 164.481 93.5359C164.543 93.7233 164.653 93.8822 164.811 94.0127C164.975 94.135 165.255 94.1964 165.651 94.1969L165.65 94.6366L161.799 94.6321L161.8 94.1924C162.144 94.1928 162.416 94.1157 162.614 93.9613C162.727 93.88 162.818 93.7253 162.886 93.4974C162.954 93.2695 162.989 92.8054 162.989 92.105L163.001 81.9791C163.003 80.7006 162.981 79.9147 162.936 79.6215C162.897 79.3283 162.832 79.1287 162.742 79.0228C162.657 78.9168 162.541 78.8638 162.394 78.8636C162.275 78.8634 162.083 78.9284 161.817 79.0584L161.699 78.6307L164.025 77.2654L164.415 77.2658Z" fill="#3A2F2F"/>
<path d="M253.385 85.4911C253.952 84.6775 254.286 84.2096 254.388 84.0876C254.643 83.7785 254.917 83.5386 255.212 83.3679C255.506 83.1972 255.797 83.1121 256.086 83.1124C256.572 83.113 256.99 83.317 257.34 83.7246C257.69 84.1322 257.924 84.7228 258.042 85.4966C258.626 84.5201 259.119 83.8814 259.521 83.5806C259.922 83.2716 260.335 83.1174 260.76 83.1179C261.172 83.1183 261.537 83.2735 261.853 83.5833C262.175 83.885 262.429 84.382 262.615 85.0744C262.739 85.5468 262.8 86.2879 262.799 87.2977L262.793 92.1103C262.792 92.8106 262.829 93.2911 262.902 93.5517C262.958 93.731 263.063 93.8858 263.215 94.0163C263.368 94.1386 263.616 94.2 263.961 94.2004L263.961 94.6401L260.127 94.6356L260.127 94.1959L260.289 94.1961C260.622 94.1965 260.882 94.1031 261.069 93.916C261.199 93.7859 261.293 93.5784 261.35 93.2934C261.373 93.155 261.384 92.7601 261.385 92.1086L261.391 87.296C261.392 86.384 261.316 85.7406 261.164 85.3658C260.944 84.8444 260.591 84.5834 260.105 84.5829C259.805 84.5825 259.502 84.6921 259.197 84.9116C258.897 85.123 258.531 85.5216 258.101 86.1074L258.084 86.2417L258.1 86.767L258.094 92.1048C258.093 92.8703 258.121 93.3467 258.177 93.534C258.239 93.7214 258.352 93.8803 258.516 94.0108C258.68 94.1331 258.96 94.1945 259.355 94.195L259.355 94.6347L255.428 94.6301L255.428 94.1904C255.858 94.1909 256.152 94.118 256.311 93.9716C256.475 93.8252 256.588 93.6055 256.651 93.3124C256.679 93.174 256.694 92.7709 256.694 92.1032L256.7 87.2906C256.701 86.3785 256.609 85.7229 256.422 85.3237C256.174 84.8022 255.827 84.5412 255.38 84.5407C255.075 84.5404 254.772 84.6581 254.472 84.8939C254.002 85.2516 253.64 85.6543 253.385 86.1019L253.378 92.0993C253.377 92.8322 253.41 93.3086 253.478 93.5285C253.551 93.7485 253.656 93.9155 253.791 94.0297C253.932 94.1357 254.215 94.189 254.639 94.1895L254.639 94.6292L250.796 94.6247L250.797 94.185C251.153 94.1854 251.402 94.1328 251.543 94.0271C251.685 93.9132 251.792 93.7383 251.866 93.5022C251.94 93.258 251.977 92.7898 251.978 92.0977L251.983 87.8225C251.985 86.5929 251.96 85.7989 251.91 85.4406C251.87 85.1718 251.808 84.9885 251.724 84.8907C251.639 84.7847 251.523 84.7317 251.376 84.7315C251.218 84.7313 251.028 84.7922 250.807 84.914L250.681 84.4742L253.024 83.1088L253.388 83.1093L253.385 85.4911Z" fill="#3A2F2F"/>
<path d="M341.008 85.3639L341.004 89.1749L340.724 89.1745C340.51 87.9772 340.234 87.1626 339.895 86.7306C339.562 86.2986 339.135 86.0824 338.615 86.0818C338.219 86.0813 337.9 86.2316 337.656 86.5326C337.413 86.8336 337.291 87.1673 337.29 87.5338C337.29 87.9898 337.38 88.3808 337.56 88.7067C337.735 89.0408 338.091 89.3954 338.628 89.7706L339.865 90.6393C341.012 91.4468 341.585 92.5102 341.583 93.8293C341.582 94.8472 341.313 95.6694 340.775 96.2958C340.242 96.914 339.645 97.2228 338.984 97.222C338.509 97.2215 337.966 97.0987 337.356 96.8537C337.169 96.772 337.016 96.7311 336.898 96.731C336.768 96.7308 336.666 96.8366 336.592 97.0482L336.312 97.0479L336.317 93.0537L336.597 93.054C336.754 94.1942 337.055 95.0537 337.501 95.6324C337.947 96.2111 338.447 96.5007 339.002 96.5014C339.392 96.5018 339.709 96.3393 339.952 96.0139C340.201 95.6803 340.326 95.2814 340.327 94.8173C340.327 94.2554 340.189 93.7829 339.913 93.3999C339.642 93.0168 339.097 92.5317 338.277 91.9444C337.458 91.3572 336.922 90.8272 336.668 90.3546C336.414 89.8902 336.287 89.3037 336.288 88.5953C336.289 87.6751 336.508 86.9058 336.944 86.2875C337.386 85.6691 337.954 85.3603 338.65 85.3611C338.955 85.3615 339.325 85.4556 339.761 85.6434C340.049 85.7658 340.241 85.8271 340.337 85.8272C340.428 85.8274 340.498 85.7989 340.549 85.742C340.6 85.685 340.66 85.5589 340.728 85.3635L341.008 85.3639Z" fill="#3A2F2F"/>
<path d="M78.0725 93.3945C77.693 93.9641 77.3221 94.3749 76.9599 94.6269C76.5977 94.8708 76.2073 94.9925 75.7889 94.992C74.9406 94.991 74.2004 94.4812 73.5683 93.4626C72.9361 92.4358 72.6209 91.1203 72.6228 89.5161C72.6247 87.9119 72.977 86.4465 73.6798 85.12C74.3825 83.7854 75.2853 83.1187 76.388 83.12C77.0722 83.1208 77.6374 83.4349 78.0834 84.0625L78.0858 81.9982C78.0873 80.7197 78.0656 79.9339 78.0207 79.6407C77.9814 79.3475 77.9166 79.1479 77.8263 79.0419C77.7359 78.936 77.6229 78.8829 77.4872 78.8827C77.3401 78.8826 77.145 78.9475 76.9017 79.0775L76.7919 78.6498L79.1092 77.2845L79.4909 77.2849L79.4758 90.2203C79.4743 91.5314 79.4931 92.3335 79.5324 92.6267C79.5773 92.9118 79.6449 93.1113 79.7353 93.2254C79.8313 93.3396 79.9415 93.3967 80.0659 93.3968C80.2186 93.397 80.4222 93.328 80.6769 93.1899L80.7697 93.6175L78.4608 94.9951L78.0706 94.9946L78.0725 93.3945ZM78.0735 92.5395L78.0802 86.7741C78.0469 86.2204 77.9457 85.7154 77.7766 85.2592C77.6075 84.8029 77.3817 84.4607 77.0992 84.2323C76.8224 83.9959 76.5511 83.8775 76.2853 83.8772C75.7877 83.8766 75.3434 84.1977 74.9525 84.8406C74.4369 85.6869 74.1781 86.9243 74.1762 88.5529C74.1743 90.1979 74.4217 91.4603 74.9183 92.3404C75.4149 93.2123 75.9686 93.6486 76.5793 93.6493C77.0939 93.6499 77.592 93.28 78.0735 92.5395Z" fill="#3A2F2F"/>
<defs>
<linearGradient id="paint0_linear_13011_15671" x1="265.105" y1="3.62639" x2="355.164" y2="3.62639" gradientUnits="userSpaceOnUse">
<stop stop-color="#6ABFEB"/>
<stop offset="0.51" stop-color="#6C89C6"/>
<stop offset="1" stop-color="#6F51A1"/>
</linearGradient>
<linearGradient id="paint1_linear_13011_15671" x1="170.256" y1="26.1888" x2="276.173" y2="26.1888" gradientUnits="userSpaceOnUse">
<stop stop-color="#6ABFEB"/>
<stop offset="0.51" stop-color="#6C89C6"/>
<stop offset="1" stop-color="#6F51A1"/>
</linearGradient>
<linearGradient id="paint2_linear_13011_15671" x1="89.6641" y1="21.8368" x2="178.846" y2="21.8368" gradientUnits="userSpaceOnUse">
<stop stop-color="#6ABFEB"/>
<stop offset="0.51" stop-color="#6C89C6"/>
<stop offset="1" stop-color="#6F51A1"/>
</linearGradient>
<linearGradient id="paint3_linear_13011_15671" x1="0.837891" y1="37.4047" x2="97.9452" y2="37.4047" gradientUnits="userSpaceOnUse">
<stop stop-color="#6ABFEB"/>
<stop offset="0.51" stop-color="#6C89C6"/>
<stop offset="1" stop-color="#6F51A1"/>
</linearGradient>
</defs>
</svg>
