<svg width="274" height="271" viewBox="0 0 274 271" fill="none" xmlns="http://www.w3.org/2000/svg">
<path d="M92.3441 6.56838L132.415 34.9509L132.699 35.1522L132.956 34.9179L169.571 1.60343L187.538 47.0328L187.668 47.3615L188.016 47.3L236.842 38.6639L227.01 86.714L226.938 87.0647L227.269 87.2011L272.804 105.976L238.295 141.401L238.046 141.656L238.249 141.949L266.045 182.176L217.808 193.727L217.467 193.809L217.476 194.159L218.705 243.075L172.055 227.077L171.726 226.964L171.545 227.26L145.809 269.33L115.566 230.865L115.349 230.589L115.035 230.744L70.51 252.604L66.2721 203.891L66.2412 203.536L65.887 203.498L16.7161 198.214L39.8214 154.716L39.9893 154.4L39.7105 154.175L1.49774 123.43L44.6166 98.9495L44.9239 98.775L44.8145 98.4389L29.6876 51.9866L79.1358 54.3029L79.4836 54.3192L79.5741 53.983L92.3441 6.56838Z" stroke="white" stroke-width="0.86593"/>
</svg>
