<svg width="249" height="235" viewBox="0 0 249 235" fill="none" xmlns="http://www.w3.org/2000/svg">
<path d="M101.385 1.94359L132.01 34.8037L132.456 35.2818L132.99 34.9057L171.042 8.13729L177.515 51.6988L177.617 52.3884L178.312 52.3365L225.167 48.8381L205.506 89.266L205.184 89.9277L205.84 90.2621L246.631 111.076L207.07 135.605L206.457 135.985L206.813 136.612L228.66 175.147L181.69 175.973L181.018 175.985L180.956 176.654L176.893 220.74L137.453 197.537L136.896 197.209L136.489 197.712L107.744 233.316L88.4196 193.483L88.1262 192.878L87.4931 193.103L43.2398 208.868L50.1207 165.108L50.2327 164.396L49.5253 164.256L3.8616 155.226L34.713 121.383L35.2087 120.84L34.6745 120.334L2.03842 89.4164L47.1251 76.1943L47.7941 75.9981L47.6473 75.3166L38.3683 32.2654L83.4083 43.9227L84.041 44.0865L84.2897 43.4821L101.385 1.94359Z" fill="#FFE59E" stroke="black" stroke-width="1.5"/>
</svg>
