<svg width="520" height="490" viewBox="0 0 520 490" fill="none" xmlns="http://www.w3.org/2000/svg">
<path d="M514.78 4.3587L519.188 0H0V489.114L4.40786 484.755L514.78 4.3587Z" fill="#DCDCDC"/>
<path d="M519.188 0L514.78 4.3587L4.40786 484.755L0 489.114H519.188V0Z" fill="#818282"/>
<path d="M514.779 6.07227H4.40625V483.039H514.779V6.07227Z" fill="#BFBEBE"/>
<path d="M511.251 449.434L481.27 479.087H511.251V449.434Z" fill="#BFBEBE"/>
<path d="M514.779 39.293H4.40625V484.754H514.779V39.293Z" fill="#BFBEBE"/>
<path d="M507.767 43.6582H9.25781V453.524H507.767V43.6582Z" fill="#818282"/>
<path d="M507.729 45.9297H11.4648V453.523H507.729V45.9297Z" fill="url(#paint0_linear_12958_15532)"/>
<path d="M514.78 4.4082H4.4082V37.4753H514.78V4.4082Z" fill="url(#paint1_linear_12958_15532)"/>
<path d="M508.607 11.0191L509.929 9.69727H487.441V32.1845L488.769 30.8572L508.607 11.0191Z" fill="#DCDCDC"/>
<path d="M508.607 11.0191L488.769 30.8572L487.441 32.1845H509.929V9.69727L508.607 11.0191Z" fill="#818282"/>
<path d="M508.613 11.0215H488.77V30.865H508.613V11.0215Z" fill="#BFBEBE"/>
<path d="M492.052 13.3681L491.117 14.3027L505.33 28.5158L506.265 27.5811L492.052 13.3681Z" fill="#161616"/>
<path d="M505.324 13.3612L491.111 27.5742L492.046 28.5089L506.259 14.2958L505.324 13.3612Z" fill="#161616"/>
<path d="M479.949 11.0191L481.27 9.69727H458.783V32.1845L460.11 30.8572L479.949 11.0191Z" fill="#DCDCDC"/>
<path d="M479.949 11.0191L460.11 30.8572L458.783 32.1845H481.27V9.69727L479.949 11.0191Z" fill="#818282"/>
<path d="M479.953 11.0215H460.109V30.865H479.953V11.0215Z" fill="#BFBEBE"/>
<path d="M477.525 28.4327H462.531V13.4395H477.525V28.4327ZM463.859 27.1109H476.203V14.7667H463.859V27.1109Z" fill="#161616"/>
<path d="M476.863 14.3906H463.197V16.1549H476.863V14.3906Z" fill="#161616"/>
<path d="M457.463 11.0191L458.784 9.69727H436.303V32.1845L437.625 30.8572L457.463 11.0191Z" fill="#DCDCDC"/>
<path d="M457.463 11.0191L437.625 30.8572L436.303 32.1845H458.784V9.69727L457.463 11.0191Z" fill="#818282"/>
<path d="M457.469 11.0215H437.625V30.865H457.469V11.0215Z" fill="#BFBEBE"/>
<path d="M452.616 26.9258H442.473V28.2476H452.616V26.9258Z" fill="#161616"/>
<path d="M507.767 453.619L485.203 476.188H487.421L507.767 455.842V453.619Z" fill="#DCDCDC"/>
<path d="M507.768 455.842L487.422 476.188H489.639L507.768 458.059V455.842Z" fill="#818282"/>
<path d="M507.766 460.652L492.227 476.192H494.45L507.766 462.875V460.652Z" fill="#DCDCDC"/>
<path d="M507.766 462.871L494.449 476.188H496.667L507.766 465.089V462.871Z" fill="#818282"/>
<path d="M507.768 467.68L499.258 476.19H501.481L507.768 469.897V467.68Z" fill="#DCDCDC"/>
<path d="M507.767 469.895L501.48 476.187H503.698L507.767 472.118V469.895Z" fill="#818282"/>
<path d="M507.729 45.9316H485.242V453.525H507.729V45.9316Z" fill="#DCDCDC"/>
<path d="M506.408 432.212L507.729 430.879H485.242V453.525L486.564 452.192L506.408 432.212Z" fill="#DCDCDC"/>
<path d="M506.408 432.212L486.564 452.192L485.242 453.525H507.729V430.879L506.408 432.212Z" fill="#818282"/>
<path d="M506.408 432.211H486.564V452.191H506.408V432.211Z" fill="#BFBEBE"/>
<path d="M496.481 447.43L489.648 438.871H503.314L496.481 447.43Z" fill="#818282"/>
<path d="M506.408 47.4441L507.729 46.1113H485.242V68.7569L486.564 67.4242L506.408 47.4441Z" fill="#DCDCDC"/>
<path d="M506.408 47.4441L486.564 67.4242L485.242 68.7569H507.729V46.1113L506.408 47.4441Z" fill="#818282"/>
<path d="M506.408 47.4434H486.564V67.4235H506.408V47.4434Z" fill="#BFBEBE"/>
<path d="M496.483 52.9102L489.65 61.4692H503.316L496.483 52.9102Z" fill="#818282"/>
<path d="M9.25781 453.517L9.25781 476.004L484.804 476.004V453.517H9.25781Z" fill="#DCDCDC"/>
<path d="M483.473 454.847L484.806 453.525H462.188V476.007L463.515 474.685L483.473 454.847Z" fill="#DCDCDC"/>
<path d="M483.473 454.847L463.515 474.685L462.188 476.007H484.806V453.525L483.473 454.847Z" fill="#818282"/>
<path d="M483.472 454.846H463.514V474.689H483.472V454.846Z" fill="#BFBEBE"/>
<path d="M477.77 464.521L469.217 457.688V471.354L477.77 464.521Z" fill="#818282"/>
<path d="M30.5488 454.847L31.8761 453.525H9.25781V476.007L10.5905 474.685L30.5488 454.847Z" fill="#DCDCDC"/>
<path d="M30.5488 454.847L10.5905 474.685L9.25781 476.007H31.8761V453.525L30.5488 454.847Z" fill="#818282"/>
<path d="M30.5501 454.846H10.5918V474.689H30.5501V454.846Z" fill="#BFBEBE"/>
<path d="M16.293 464.521L24.8465 457.688V471.354L16.293 464.521Z" fill="#818282"/>
<path d="M348.827 72.0289H352.027V78.4289H355.227V81.6289H352.027V97.6289H348.827V72.0289ZM352.027 68.8289H355.227V72.0289H352.027V68.8289ZM358.436 78.4289H364.836V81.6289H361.636V97.6289H358.436V78.4289ZM368.045 81.6289H371.245V94.4289H368.045V81.6289ZM371.245 94.4289H380.845V97.6289H371.245V94.4289ZM371.245 78.4289H380.845V81.6289H371.245V78.4289ZM380.845 81.6289H384.045V94.4289H380.845V81.6289ZM387.264 78.4289H390.464V81.6289H393.664V84.8289H390.464V97.6289H387.264V78.4289ZM400.064 81.6289H393.664V78.4289H400.064V81.6289H403.264V97.6289H400.064V81.6289ZM406.483 72.0289H409.683V78.4289H412.883V81.6289H409.683V94.4289H412.883V97.6289H409.683V94.4289H406.483V72.0289ZM419.292 94.4289H416.092V81.6289H419.292V84.8289H428.892V81.6289H419.292V78.4289H428.892V81.6289H432.092V88.0289H419.292V94.4289H428.892V97.6289H419.292V94.4289ZM428.892 91.2289H432.092V94.4289H428.892V91.2289ZM435.311 78.4289H438.511V81.6289H441.711V84.8289H438.511V97.6289H435.311V78.4289ZM448.111 81.6289H441.711V78.4289H448.111V81.6289H451.311V97.6289H448.111V81.6289ZM470.53 97.6289H457.73V94.4289H467.33V81.6289H457.73V94.4289H454.53V81.6289H457.73V78.4289H467.33V68.8289H470.53V97.6289Z" fill="#3A2F2F"/>
<defs>
<linearGradient id="paint0_linear_12958_15532" x1="259.597" y1="45.9297" x2="259.597" y2="453.523" gradientUnits="userSpaceOnUse">
<stop offset="0.4" stop-color="white"/>
<stop offset="1" stop-color="#B77EE9"/>
</linearGradient>
<linearGradient id="paint1_linear_12958_15532" x1="4.4082" y1="20.9418" x2="514.78" y2="20.9418" gradientUnits="userSpaceOnUse">
<stop stop-color="#6ABFEB"/>
<stop offset="0.51" stop-color="#6C89C6"/>
<stop offset="1" stop-color="#6F51A1"/>
</linearGradient>
</defs>
</svg>
