<svg width="418" height="584" viewBox="0 0 418 584" fill="none" xmlns="http://www.w3.org/2000/svg">
<path d="M414.341 3.51189L417.891 0H0V583.746L3.54597 580.238L414.341 3.51189Z" fill="#DCDCDC"/>
<path d="M417.891 0L414.341 3.51189L3.54597 580.238L0 583.746H417.891V0Z" fill="#818282"/>
<path d="M414.342 4.89453H3.54688V578.864H414.342V4.89453Z" fill="#BFBEBE"/>
<path d="M411.502 551.809L387.371 575.676H411.502V551.809Z" fill="#BFBEBE"/>
<path d="M414.342 31.6328H3.54688V580.239H414.342V31.6328Z" fill="#BFBEBE"/>
<path d="M408.693 35.1406H7.44922V555.098H408.693V35.1406Z" fill="#818282"/>
<path d="M408.663 36.9727H9.22656V555.101H408.663V36.9727Z" fill="url(#paint0_linear_12958_15285)"/>
<path d="M414.342 3.55078H3.54688V30.1668H414.342V3.55078Z" fill="url(#paint1_linear_12958_15285)"/>
<path d="M409.375 8.87995L410.44 7.81445H392.34V25.9151L393.405 24.8496L409.375 8.87995Z" fill="#DCDCDC"/>
<path d="M409.375 8.87995L393.405 24.8496L392.34 25.9151H410.44V7.81445L409.375 8.87995Z" fill="#818282"/>
<path d="M409.374 8.87695H393.404V24.8466H409.374V8.87695Z" fill="#BFBEBE"/>
<path d="M396.052 10.7817L395.299 11.5352L406.739 22.975L407.492 22.2216L396.052 10.7817Z" fill="#161616"/>
<path d="M406.735 10.7651L395.295 22.2051L396.048 22.9585L407.488 11.5186L406.735 10.7651Z" fill="#161616"/>
<path d="M386.309 8.87409L387.374 7.80859H369.273V25.9092L370.339 24.8437L386.309 8.87409Z" fill="#DCDCDC"/>
<path d="M386.309 8.87409L370.339 24.8437L369.273 25.9092H387.374V7.80859L386.309 8.87409Z" fill="#818282"/>
<path d="M386.309 8.87305H370.34V24.8427H386.309V8.87305Z" fill="#BFBEBE"/>
<path d="M384.357 22.8957H372.291V10.8301H384.357V22.8957ZM373.357 21.8302H383.291V11.8956H373.357V21.8302Z" fill="#161616"/>
<path d="M383.824 11.5957H372.824V13.0149H383.824V11.5957Z" fill="#161616"/>
<path d="M368.207 8.87409L369.273 7.80859H351.172V25.9092L352.237 24.8437L368.207 8.87409Z" fill="#DCDCDC"/>
<path d="M368.207 8.87409L352.237 24.8437L351.172 25.9092H369.273V7.80859L368.207 8.87409Z" fill="#818282"/>
<path d="M368.208 8.87305H352.238V24.8427H368.208V8.87305Z" fill="#BFBEBE"/>
<path d="M364.302 21.6758H356.141V22.7413H364.302V21.6758Z" fill="#161616"/>
<path d="M408.695 555.176L390.535 573.336H392.321L408.695 556.962V555.176Z" fill="#DCDCDC"/>
<path d="M408.695 556.963L392.32 573.337H394.106L408.695 558.749V556.963Z" fill="#818282"/>
<path d="M408.696 560.834L396.191 573.339H397.977L408.696 562.62V560.834Z" fill="#DCDCDC"/>
<path d="M408.695 562.615L397.977 573.334H399.762L408.695 564.401V562.615Z" fill="#818282"/>
<path d="M408.697 566.486L401.848 573.335H403.638L408.697 568.276V566.486Z" fill="#DCDCDC"/>
<path d="M408.696 568.277L403.637 573.336H405.423L408.696 570.063V568.277Z" fill="#818282"/>
<path d="M408.667 36.9727H390.566V555.101H408.667V36.9727Z" fill="#DCDCDC"/>
<path d="M407.601 537.939L408.667 536.869H390.57V555.093L391.632 554.024L407.601 537.939Z" fill="#DCDCDC"/>
<path d="M407.601 537.939L391.632 554.024L390.57 555.093H408.667V536.869L407.601 537.939Z" fill="#818282"/>
<path d="M407.602 537.939H391.633V554.02H407.602V537.939Z" fill="#BFBEBE"/>
<path d="M399.615 550.196L394.117 543.305H405.117L399.615 550.196Z" fill="#818282"/>
<path d="M407.601 38.2088L408.667 37.1348H390.57V55.3633L391.632 54.2892L407.601 38.2088Z" fill="#DCDCDC"/>
<path d="M407.601 38.2088L391.632 54.2892L390.57 55.3633H408.667V37.1348L407.601 38.2088Z" fill="#818282"/>
<path d="M407.602 38.2031H391.633V54.2836H407.602V38.2031Z" fill="#BFBEBE"/>
<path d="M399.615 42.5957L394.117 49.4873H405.117L399.615 42.5957Z" fill="#818282"/>
<path d="M7.45703 555.099L7.45703 573.199H390.217V555.099H7.45703Z" fill="#DCDCDC"/>
<path d="M389.141 556.157L390.211 555.092H372.008V573.192L373.078 572.127L389.141 556.157Z" fill="#DCDCDC"/>
<path d="M389.141 556.157L373.078 572.127L372.008 573.192H390.211V555.092L389.141 556.157Z" fill="#818282"/>
<path d="M389.142 556.16H373.078V572.13H389.142V556.16Z" fill="#BFBEBE"/>
<path d="M384.551 563.945L377.668 558.447V569.447L384.551 563.945Z" fill="#818282"/>
<path d="M24.5905 556.157L25.6603 555.092H7.45312V573.192L8.52715 572.127L24.5905 556.157Z" fill="#DCDCDC"/>
<path d="M24.5905 556.157L8.52715 572.127L7.45312 573.192H25.6603V555.092L24.5905 556.157Z" fill="#818282"/>
<path d="M24.5907 556.16H8.52734V572.13H24.5907V556.16Z" fill="#BFBEBE"/>
<path d="M13.1172 563.945L20.0003 558.447V569.447L13.1172 563.945Z" fill="#818282"/>
<path d="M31.9047 54.1461H35.1047V60.5461H38.3047V63.7461H35.1047V79.7461H31.9047V54.1461ZM35.1047 50.9461H38.3047V54.1461H35.1047V50.9461ZM57.5141 79.7461H54.3141V76.5461H51.1141V73.3461H54.3141V60.5461H57.5141V79.7461ZM44.7141 76.5461H51.1141V79.7461H44.7141V76.5461H41.5141V60.5461H44.7141V76.5461ZM60.7328 50.9461H63.9328V79.7461H60.7328V50.9461ZM67.1391 50.9461H70.3391V79.7461H67.1391V50.9461ZM73.5453 63.7461H76.7453V66.9461H73.5453V63.7461ZM76.7453 66.9461H79.9453V70.1461H76.7453V66.9461ZM79.9453 70.1461H83.1453V73.3461H79.9453V70.1461ZM83.1453 73.3461H86.3453V76.5461H83.1453V73.3461ZM76.7453 76.5461H83.1453V79.7461H76.7453V76.5461ZM73.5453 73.3461H76.7453V76.5461H73.5453V73.3461ZM76.7453 60.5461H83.1453V63.7461H76.7453V60.5461ZM83.1453 63.7461H86.3453V66.9461H83.1453V63.7461ZM89.5609 54.1461H92.7609V60.5461H95.9609V63.7461H92.7609V76.5461H95.9609V79.7461H92.7609V76.5461H89.5609V54.1461ZM102.37 76.5461H99.1703V70.1461H102.37V76.5461H111.97V70.1461H102.37V66.9461H111.97V63.7461H102.37V60.5461H111.97V63.7461H115.17V79.7461H102.37V76.5461ZM118.389 63.7461H121.589V76.5461H118.389V63.7461ZM121.589 76.5461H131.189V79.7461H121.589V76.5461ZM121.589 60.5461H131.189V63.7461H121.589V60.5461ZM131.189 63.7461H134.389V66.9461H131.189V63.7461ZM131.189 73.3461H134.389V76.5461H131.189V73.3461ZM144.008 70.1461H140.808V79.7461H137.608V50.9461H140.808V66.9461H144.008V70.1461H147.208V73.3461H150.408V76.5461H153.608V79.7461H150.408V76.5461H147.208V73.3461H144.008V70.1461ZM147.208 60.5461H150.408V63.7461H147.208V60.5461ZM144.008 63.7461H147.208V66.9461H144.008V63.7461Z" fill="#3A2F2F"/>
<path d="M31.6 460.946H34.8V470.546H44.4V473.746H47.6V486.546H44.4V473.746H34.8V486.546H44.4V489.746H31.6V460.946ZM54.0188 486.546H50.8188V480.146H54.0188V486.546H63.6188V480.146H54.0188V476.946H63.6188V473.746H54.0188V470.546H63.6188V473.746H66.8188V489.746H54.0188V486.546ZM70.0375 473.746H73.2375V486.546H70.0375V473.746ZM73.2375 486.546H82.8375V489.746H73.2375V486.546ZM73.2375 470.546H82.8375V473.746H73.2375V470.546ZM82.8375 473.746H86.0375V476.946H82.8375V473.746ZM82.8375 483.346H86.0375V486.546H82.8375V483.346ZM95.6563 480.146H92.4563V489.746H89.2563V460.946H92.4563V476.946H95.6563V480.146H98.8563V483.346H102.056V486.546H105.256V489.746H102.056V486.546H98.8563V483.346H95.6563V480.146ZM98.8563 470.546H102.056V473.746H98.8563V470.546ZM95.6563 473.746H98.8563V476.946H95.6563V473.746ZM111.675 486.546H108.475V473.746H111.675V476.946H121.275V473.746H111.675V470.546H121.275V473.746H124.475V480.146H111.675V486.546H121.275V489.746H111.675V486.546ZM121.275 483.346H124.475V486.546H121.275V483.346ZM127.694 470.546H130.894V473.746H134.094V476.946H130.894V489.746H127.694V470.546ZM140.494 473.746H134.094V470.546H140.494V473.746H143.694V489.746H140.494V473.746ZM162.913 489.746H150.113V486.546H159.713V473.746H150.113V486.546H146.913V473.746H150.113V470.546H159.713V460.946H162.913V489.746Z" fill="#3A2F2F"/>
<defs>
<linearGradient id="paint0_linear_12958_15285" x1="208.945" y1="36.9727" x2="208.945" y2="555.101" gradientUnits="userSpaceOnUse">
<stop offset="0.4" stop-color="white"/>
<stop offset="1" stop-color="#B77EE9"/>
</linearGradient>
<linearGradient id="paint1_linear_12958_15285" x1="3.54688" y1="16.8609" x2="414.342" y2="16.8609" gradientUnits="userSpaceOnUse">
<stop stop-color="#6ABFEB"/>
<stop offset="0.51" stop-color="#6C89C6"/>
<stop offset="1" stop-color="#6F51A1"/>
</linearGradient>
</defs>
</svg>
