<svg width="370" height="349" viewBox="0 0 370 349" fill="none" xmlns="http://www.w3.org/2000/svg">
<path d="M366.636 3.10435L369.776 0H0V348.356L3.13936 345.252L366.636 3.10435Z" fill="#DCDCDC"/>
<path d="M369.776 0L366.636 3.10435L3.13936 345.252L0 348.356H369.776V0Z" fill="#818282"/>
<path d="M366.637 4.32617H3.14062V344.031H366.637V4.32617Z" fill="#BFBEBE"/>
<path d="M364.123 320.094L342.77 341.213H364.123V320.094Z" fill="#BFBEBE"/>
<path d="M366.637 27.9883H3.14062V345.254H366.637V27.9883Z" fill="#BFBEBE"/>
<path d="M361.641 31.0938H6.59375V323.008H361.641V31.0938Z" fill="#818282"/>
<path d="M361.613 32.7109H8.16406V323.007H361.613V32.7109Z" fill="url(#paint0_linear_12956_11373)"/>
<path d="M366.637 3.13867H3.14062V26.6897H366.637V3.13867Z" fill="url(#paint1_linear_12956_11373)"/>
<path d="M362.238 7.85158L363.18 6.91016H347.164V22.926L348.109 21.9806L362.238 7.85158Z" fill="#DCDCDC"/>
<path d="M362.238 7.85158L348.109 21.9806L347.164 22.926H363.18V6.91016L362.238 7.85158Z" fill="#818282"/>
<path d="M362.242 7.85156H348.109V21.9845H362.242V7.85156Z" fill="#BFBEBE"/>
<path d="M350.451 9.52182L349.785 10.1875L359.908 20.3103L360.574 19.6446L350.451 9.52182Z" fill="#161616"/>
<path d="M359.904 9.51783L349.781 19.6406L350.447 20.3063L360.57 10.1835L359.904 9.51783Z" fill="#161616"/>
<path d="M341.828 7.85158L342.77 6.91016H326.754V22.926L327.699 21.9806L341.828 7.85158Z" fill="#DCDCDC"/>
<path d="M341.828 7.85158L327.699 21.9806L326.754 22.926H342.77V6.91016L341.828 7.85158Z" fill="#818282"/>
<path d="M341.832 7.85156H327.699V21.9845H341.832V7.85156Z" fill="#BFBEBE"/>
<path d="M340.1 20.2508H329.422V9.57227H340.1V20.2508ZM330.367 19.3093H339.159V10.5176H330.367V19.3093Z" fill="#161616"/>
<path d="M339.632 10.2461H329.898V11.5026H339.632V10.2461Z" fill="#161616"/>
<path d="M325.813 7.85158L326.754 6.91016H310.742V22.926L311.684 21.9806L325.813 7.85158Z" fill="#DCDCDC"/>
<path d="M325.813 7.85158L311.684 21.9806L310.742 22.926H326.754V6.91016L325.813 7.85158Z" fill="#818282"/>
<path d="M325.817 7.85156H311.684V21.9845H325.817V7.85156Z" fill="#BFBEBE"/>
<path d="M322.365 19.1797H315.141V20.1211H322.365V19.1797Z" fill="#161616"/>
<path d="M361.641 323.072L345.57 339.146H347.15L361.641 324.656V323.072Z" fill="#DCDCDC"/>
<path d="M361.639 324.656L347.148 339.147H348.728L361.639 326.236V324.656Z" fill="#818282"/>
<path d="M361.642 328.078L350.574 339.146H352.158L361.642 329.661V328.078Z" fill="#DCDCDC"/>
<path d="M361.64 329.662L352.156 339.146H353.736L361.64 331.242V329.662Z" fill="#818282"/>
<path d="M361.639 333.086L355.578 339.147H357.161L361.639 334.665V333.086Z" fill="#DCDCDC"/>
<path d="M361.642 334.664L357.164 339.146H358.743L361.642 336.247V334.664Z" fill="#818282"/>
<path d="M361.617 32.7129H345.602V323.009H361.617V32.7129Z" fill="#DCDCDC"/>
<path d="M360.676 307.828L361.617 306.879H345.602V323.008L346.543 322.058L360.676 307.828Z" fill="#DCDCDC"/>
<path d="M360.676 307.828L346.543 322.058L345.602 323.008H361.617V306.879L360.676 307.828Z" fill="#818282"/>
<path d="M360.676 307.828H346.543V322.058H360.676V307.828Z" fill="#BFBEBE"/>
<path d="M353.605 318.666L348.738 312.57H358.471L353.605 318.666Z" fill="#818282"/>
<path d="M360.676 33.7988L361.617 32.8496H345.602V48.9782L346.543 48.029L360.676 33.7988Z" fill="#DCDCDC"/>
<path d="M360.676 33.7988L346.543 48.029L345.602 48.9782H361.617V32.8496L360.676 33.7988Z" fill="#818282"/>
<path d="M360.676 33.7969H346.543V48.0271H360.676V33.7969Z" fill="#BFBEBE"/>
<path d="M353.605 37.6855L348.738 43.7814H358.471L353.605 37.6855Z" fill="#818282"/>
<path d="M6.59766 323.006L6.59766 339.021H345.291V323.006H6.59766Z" fill="#DCDCDC"/>
<path d="M344.34 323.957L345.289 323.016H329.18V339.028L330.125 338.086L344.34 323.957Z" fill="#DCDCDC"/>
<path d="M344.34 323.957L330.125 338.086L329.18 339.028H345.289V323.016L344.34 323.957Z" fill="#818282"/>
<path d="M344.34 323.955H330.125V338.088H344.34V323.955Z" fill="#BFBEBE"/>
<path d="M340.28 330.843L334.188 325.977V335.71L340.28 330.843Z" fill="#818282"/>
<path d="M21.7654 323.957L22.7107 323.016H6.60156V339.028L7.55076 338.086L21.7654 323.957Z" fill="#DCDCDC"/>
<path d="M21.7654 323.957L7.55076 338.086L6.60156 339.028H22.7107V323.016L21.7654 323.957Z" fill="#818282"/>
<path d="M21.7615 323.955H7.54688V338.088H21.7615V323.955Z" fill="#BFBEBE"/>
<path d="M11.6094 330.843L17.7014 325.977V335.71L11.6094 330.843Z" fill="#818282"/>
<defs>
<linearGradient id="paint0_linear_12956_11373" x1="184.888" y1="32.7109" x2="184.888" y2="323.007" gradientUnits="userSpaceOnUse">
<stop offset="0.4" stop-color="white"/>
<stop offset="1" stop-color="#B77EE9"/>
</linearGradient>
<linearGradient id="paint1_linear_12956_11373" x1="3.14062" y1="14.9142" x2="366.637" y2="14.9142" gradientUnits="userSpaceOnUse">
<stop stop-color="#6ABFEB"/>
<stop offset="0.51" stop-color="#6C89C6"/>
<stop offset="1" stop-color="#6F51A1"/>
</linearGradient>
</defs>
</svg>
