<svg width="404" height="380" viewBox="0 0 404 380" fill="none" xmlns="http://www.w3.org/2000/svg">
<path d="M399.897 3.38597L403.321 0H0V379.959L3.42416 376.573L399.897 3.38597Z" fill="#DCDCDC"/>
<path d="M403.321 0L399.897 3.38597L3.42416 376.573L0 379.959H403.321V0Z" fill="#818282"/>
<path d="M399.895 4.71875H3.42188V375.241H399.895V4.71875Z" fill="#BFBEBE"/>
<path d="M397.157 349.137L373.867 372.172H397.157V349.137Z" fill="#BFBEBE"/>
<path d="M399.899 30.5293H3.42578V376.577H399.899V30.5293Z" fill="#BFBEBE"/>
<path d="M394.448 33.918H7.19141V352.314H394.448V33.918Z" fill="#818282"/>
<path d="M394.419 35.6816H8.90625V352.313H394.419V35.6816Z" fill="url(#paint0_linear_12956_11533)"/>
<path d="M399.895 3.42969H3.42188V29.1173H399.895V3.42969Z" fill="url(#paint1_linear_12956_11533)"/>
<path d="M395.098 8.56784L396.125 7.54102H378.656V25.0098L379.687 23.9787L395.098 8.56784Z" fill="#DCDCDC"/>
<path d="M395.098 8.56784L379.687 23.9787L378.656 25.0098H396.125V7.54102L395.098 8.56784Z" fill="#818282"/>
<path d="M395.103 8.57031H379.688V23.9854H395.103V8.57031Z" fill="#BFBEBE"/>
<path d="M382.238 10.395L381.512 11.1211L392.553 22.1622L393.279 21.4362L382.238 10.395Z" fill="#161616"/>
<path d="M392.549 10.3905L381.508 21.4316L382.234 22.1577L393.275 11.1166L392.549 10.3905Z" fill="#161616"/>
<path d="M372.836 8.56784L373.863 7.54102H356.395V25.0098L357.426 23.9787L372.836 8.56784Z" fill="#DCDCDC"/>
<path d="M372.836 8.56784L357.426 23.9787L356.395 25.0098H373.863V7.54102L372.836 8.56784Z" fill="#818282"/>
<path d="M372.841 8.57031H357.426V23.9854H372.841V8.57031Z" fill="#BFBEBE"/>
<path d="M370.952 22.0925H359.305V10.4453H370.952V22.0925ZM360.336 21.0657H369.925V11.4764H360.336V21.0657Z" fill="#161616"/>
<path d="M370.436 11.1836H359.82V12.5541H370.436V11.1836Z" fill="#161616"/>
<path d="M355.367 8.56784L356.394 7.54102H338.93V25.0098L339.957 23.9787L355.367 8.56784Z" fill="#DCDCDC"/>
<path d="M355.367 8.56784L339.957 23.9787L338.93 25.0098H356.394V7.54102L355.367 8.56784Z" fill="#818282"/>
<path d="M355.372 8.57031H339.957V23.9854H355.372V8.57031Z" fill="#BFBEBE"/>
<path d="M351.606 20.9258H343.727V21.9526H351.606V20.9258Z" fill="#161616"/>
<path d="M394.45 352.391L376.922 369.923H378.645L394.45 354.118V352.391Z" fill="#DCDCDC"/>
<path d="M394.45 354.115L378.645 369.921H380.367L394.45 355.838V354.115Z" fill="#818282"/>
<path d="M394.45 357.85L382.379 369.921H384.106L394.45 359.577V357.85Z" fill="#DCDCDC"/>
<path d="M394.45 359.578L384.105 369.923H385.828L394.45 361.301V359.578Z" fill="#818282"/>
<path d="M394.451 363.312L387.84 369.923H389.567L394.451 365.035V363.312Z" fill="#DCDCDC"/>
<path d="M394.45 365.035L389.566 369.923H391.289L394.45 366.762V365.035Z" fill="#818282"/>
<path d="M394.418 35.6875H376.949V352.318H394.418V35.6875Z" fill="#DCDCDC"/>
<path d="M393.391 335.764L394.418 334.729H376.949V352.32L377.976 351.285L393.391 335.764Z" fill="#DCDCDC"/>
<path d="M393.391 335.764L377.976 351.285L376.949 352.32H394.418V334.729L393.391 335.764Z" fill="#818282"/>
<path d="M393.392 335.764H377.977V351.285H393.392V335.764Z" fill="#BFBEBE"/>
<path d="M385.683 347.583L380.375 340.934H390.991L385.683 347.583Z" fill="#818282"/>
<path d="M393.391 36.8693L394.418 35.834H376.949V53.4258L377.976 52.3905L393.391 36.8693Z" fill="#DCDCDC"/>
<path d="M393.391 36.8693L377.976 52.3905L376.949 53.4258H394.418V35.834L393.391 36.8693Z" fill="#818282"/>
<path d="M393.392 36.8672H377.977V52.3884H393.392V36.8672Z" fill="#BFBEBE"/>
<path d="M385.683 41.1113L380.375 47.7602H390.991L385.683 41.1113Z" fill="#818282"/>
<path d="M7.1875 352.316L7.1875 369.785H376.606V352.316H7.1875Z" fill="#DCDCDC"/>
<path d="M375.57 353.341L376.606 352.314H359.035V369.779L360.066 368.752L375.57 353.341Z" fill="#DCDCDC"/>
<path d="M375.57 353.341L360.066 368.752L359.035 369.779H376.606V352.314L375.57 353.341Z" fill="#818282"/>
<path d="M375.571 353.344H360.066V368.759H375.571V353.344Z" fill="#BFBEBE"/>
<path d="M371.141 360.857L364.496 355.549V366.165L371.141 360.857Z" fill="#818282"/>
<path d="M23.727 353.341L24.7581 352.314H7.1875V369.779L8.22281 368.752L23.727 353.341Z" fill="#DCDCDC"/>
<path d="M23.727 353.341L8.22281 368.752L7.1875 369.779H24.7581V352.314L23.727 353.341Z" fill="#818282"/>
<path d="M23.7268 353.344H8.22266V368.759H23.7268V353.344Z" fill="#BFBEBE"/>
<path d="M12.6523 360.857L19.297 355.549V366.165L12.6523 360.857Z" fill="#818282"/>
<defs>
<linearGradient id="paint0_linear_12956_11533" x1="201.663" y1="35.6816" x2="201.663" y2="352.313" gradientUnits="userSpaceOnUse">
<stop offset="0.4" stop-color="white"/>
<stop offset="1" stop-color="#B77EE9"/>
</linearGradient>
<linearGradient id="paint1_linear_12956_11533" x1="3.42188" y1="16.2735" x2="399.895" y2="16.2735" gradientUnits="userSpaceOnUse">
<stop stop-color="#6ABFEB"/>
<stop offset="0.51" stop-color="#6C89C6"/>
<stop offset="1" stop-color="#6F51A1"/>
</linearGradient>
</defs>
</svg>
