<svg width="503" height="474" viewBox="0 0 503 474" fill="none" xmlns="http://www.w3.org/2000/svg">
<path d="M498.289 4.21907L502.556 0H0V473.445L4.26665 469.226L498.289 4.21907Z" fill="#DCDCDC"/>
<path d="M502.556 0L498.289 4.21907L4.26665 469.226L0 473.445H502.556V0Z" fill="#818282"/>
<path d="M498.288 5.88281H4.26562V467.57H498.288V5.88281Z" fill="#BFBEBE"/>
<path d="M494.872 435.037L465.852 463.741H494.872V435.037Z" fill="#BFBEBE"/>
<path d="M498.288 38.0371H4.26562V469.228H498.288V38.0371Z" fill="#BFBEBE"/>
<path d="M491.5 42.2598H8.96094V438.995H491.5V42.2598Z" fill="#818282"/>
<path d="M491.464 44.459H11.0977V438.995H491.464V44.459Z" fill="url(#paint0_linear_12958_15368)"/>
<path d="M498.288 4.26953H4.26562V36.2774H498.288V4.26953Z" fill="url(#paint1_linear_12958_15368)"/>
<path d="M492.314 10.676L493.593 9.39648H471.826V31.1633L473.111 29.8785L492.314 10.676Z" fill="#DCDCDC"/>
<path d="M492.314 10.676L473.111 29.8785L471.826 31.1633H493.593V9.39648L492.314 10.676Z" fill="#818282"/>
<path d="M492.319 10.6738H473.111V29.8817H492.319V10.6738Z" fill="#BFBEBE"/>
<path d="M476.289 12.9468L475.385 13.8516L489.142 27.6093L490.047 26.7046L476.289 12.9468Z" fill="#161616"/>
<path d="M489.137 12.9415L475.379 26.6992L476.284 27.6039L490.041 13.8462L489.137 12.9415Z" fill="#161616"/>
<path d="M464.573 10.676L465.853 9.39648H444.086V31.1633L445.371 29.8785L464.573 10.676Z" fill="#DCDCDC"/>
<path d="M464.573 10.676L445.371 29.8785L444.086 31.1633H465.853V9.39648L464.573 10.676Z" fill="#818282"/>
<path d="M464.579 10.6738H445.371V29.8817H464.579V10.6738Z" fill="#BFBEBE"/>
<path d="M462.226 27.5305H447.713V13.0176H462.226V27.5305ZM448.998 26.2511H460.946V14.3023H448.998V26.2511Z" fill="#161616"/>
<path d="M461.586 13.9395H448.357V15.6472H461.586V13.9395Z" fill="#161616"/>
<path d="M442.806 10.676L444.086 9.39648H422.324V31.1633L423.604 29.8785L442.806 10.676Z" fill="#DCDCDC"/>
<path d="M442.806 10.676L423.604 29.8785L422.324 31.1633H444.086V9.39648L442.806 10.676Z" fill="#818282"/>
<path d="M442.811 10.6738H423.604V29.8817H442.811V10.6738Z" fill="#BFBEBE"/>
<path d="M438.117 26.0703H428.299V27.3498H438.117V26.0703Z" fill="#161616"/>
<path d="M491.499 439.09L469.658 460.936H471.805L491.499 441.242V439.09Z" fill="#DCDCDC"/>
<path d="M491.499 441.242L471.805 460.936H473.951L491.499 443.389V441.242Z" fill="#818282"/>
<path d="M491.499 445.896L476.457 460.938H478.609L491.499 448.048V445.896Z" fill="#DCDCDC"/>
<path d="M491.499 448.049L478.609 460.939H480.756L491.499 450.195V448.049Z" fill="#818282"/>
<path d="M491.499 452.697L483.262 460.935H485.414L491.499 454.844V452.697Z" fill="#DCDCDC"/>
<path d="M491.499 454.844L485.414 460.934H487.561L491.499 456.996V454.844Z" fill="#818282"/>
<path d="M491.46 44.4668H469.693V439.003H491.46V44.4668Z" fill="#DCDCDC"/>
<path d="M490.183 418.372L491.462 417.082H469.695V439.002L470.975 437.712L490.183 418.372Z" fill="#DCDCDC"/>
<path d="M490.183 418.372L470.975 437.712L469.695 439.002H491.462V417.082L490.183 418.372Z" fill="#818282"/>
<path d="M490.182 418.369H470.975V437.709H490.182V418.369Z" fill="#BFBEBE"/>
<path d="M480.575 433.097L473.961 424.812H487.189L480.575 433.097Z" fill="#818282"/>
<path d="M490.183 45.9287L491.462 44.6387H469.695V66.5588L470.975 65.2688L490.183 45.9287Z" fill="#DCDCDC"/>
<path d="M490.183 45.9287L470.975 65.2688L469.695 66.5588H491.462V44.6387L490.183 45.9287Z" fill="#818282"/>
<path d="M490.182 45.9336H470.975V65.2736H490.182V45.9336Z" fill="#BFBEBE"/>
<path d="M480.575 51.2207L473.961 59.5055H487.189L480.575 51.2207Z" fill="#818282"/>
<path d="M8.95703 438.993L8.95703 460.76H469.269V438.993H8.95703Z" fill="#DCDCDC"/>
<path d="M467.981 440.27L469.271 438.99H447.377V460.752L448.662 459.472L467.981 440.27Z" fill="#DCDCDC"/>
<path d="M467.981 440.27L448.662 459.472L447.377 460.752H469.271V438.99L467.981 440.27Z" fill="#818282"/>
<path d="M467.979 440.273H448.66V459.481H467.979V440.273Z" fill="#BFBEBE"/>
<path d="M462.461 449.64L454.182 443.025V456.254L462.461 449.64Z" fill="#818282"/>
<path d="M29.566 440.27L30.8507 438.99H8.95703V460.752L10.2471 459.472L29.566 440.27Z" fill="#DCDCDC"/>
<path d="M29.566 440.27L10.2471 459.472L8.95703 460.752H30.8507V438.99L29.566 440.27Z" fill="#818282"/>
<path d="M29.5669 440.273H10.248V459.481H29.5669V440.273Z" fill="#BFBEBE"/>
<path d="M15.7656 449.64L24.0452 443.025V456.254L15.7656 449.64Z" fill="#818282"/>
<path d="M389.311 57.5203H392.511V86.3203H389.311V57.5203ZM398.917 70.3203H402.117V76.7203H411.717V70.3203H408.517V63.9203H405.317V57.5203H408.517V63.9203H411.717V70.3203H414.917V79.9203H418.117V86.3203H414.917V79.9203H398.917V70.3203ZM402.117 63.9203H405.317V70.3203H402.117V63.9203ZM395.717 79.9203H398.917V86.3203H395.717V79.9203ZM427.703 70.3203H424.503V86.3203H421.303V57.5203H424.503V63.9203H427.703V70.3203H430.903V76.7203H434.103V83.1203H430.903V76.7203H427.703V70.3203ZM437.303 63.9203H440.503V57.5203H443.703V86.3203H440.503V70.3203H437.303V63.9203ZM434.103 70.3203H437.303V76.7203H434.103V70.3203Z" fill="#3A2F2F"/>
<path d="M33.3617 67.1203H46.1617V70.3203H36.5617V83.1203H46.1617V70.3203H49.3617V83.1203H46.1617V86.3203H36.5617V95.9203H33.3617V67.1203ZM52.5805 57.5203H55.7805V86.3203H52.5805V57.5203ZM62.1867 83.1203H58.9867V76.7203H62.1867V83.1203H71.7867V76.7203H62.1867V73.5203H71.7867V70.3203H62.1867V67.1203H71.7867V70.3203H74.9867V86.3203H62.1867V83.1203ZM78.2055 60.7203H81.4055V67.1203H84.6055V70.3203H81.4055V83.1203H84.6055V86.3203H81.4055V83.1203H78.2055V60.7203ZM87.8148 60.7203H91.0148V67.1203H94.2148V70.3203H91.0148V86.3203H87.8148V60.7203ZM91.0148 57.5203H94.2148V60.7203H91.0148V57.5203ZM97.4242 70.3203H100.624V83.1203H97.4242V70.3203ZM100.624 83.1203H110.224V86.3203H100.624V83.1203ZM100.624 67.1203H110.224V70.3203H100.624V67.1203ZM110.224 70.3203H113.424V83.1203H110.224V70.3203ZM116.643 67.1203H123.043V70.3203H119.843V86.3203H116.643V67.1203ZM135.852 70.3203H129.452V86.3203H126.252V67.1203H135.852V70.3203H139.052V86.3203H135.852V70.3203ZM139.052 67.1203H145.452V70.3203H148.652V86.3203H145.452V70.3203H139.052V67.1203Z" fill="#3A2F2F"/>
<defs>
<linearGradient id="paint0_linear_12958_15368" x1="251.281" y1="44.459" x2="251.281" y2="438.995" gradientUnits="userSpaceOnUse">
<stop offset="0.4" stop-color="white"/>
<stop offset="1" stop-color="#B77EE9"/>
</linearGradient>
<linearGradient id="paint1_linear_12958_15368" x1="4.26562" y1="20.2734" x2="498.288" y2="20.2734" gradientUnits="userSpaceOnUse">
<stop stop-color="#6ABFEB"/>
<stop offset="0.51" stop-color="#6C89C6"/>
<stop offset="1" stop-color="#6F51A1"/>
</linearGradient>
</defs>
</svg>
