<svg width="343" height="480" viewBox="0 0 343 480" fill="none" xmlns="http://www.w3.org/2000/svg">
<path d="M340.023 2.88198L342.937 0H0V479.043L2.90995 476.165L340.023 2.88198Z" fill="#DCDCDC"/>
<path d="M342.937 0L340.023 2.88198L2.90995 476.165L0 479.043H342.937V0Z" fill="#818282"/>
<path d="M340.023 4.01758H2.91016V475.037H340.023V4.01758Z" fill="#BFBEBE"/>
<path d="M337.694 452.834L317.891 472.42H337.694V452.834Z" fill="#BFBEBE"/>
<path d="M340.023 25.959H2.91016V476.165H340.023V25.959Z" fill="#BFBEBE"/>
<path d="M335.389 28.8379H6.11328V455.533H335.389V28.8379Z" fill="#818282"/>
<path d="M335.363 30.3418H7.57031V455.537H335.363V30.3418Z" fill="url(#paint0_linear_12956_11613)"/>
<path d="M340.023 2.91602H2.91016V24.7581H340.023V2.91602Z" fill="url(#paint1_linear_12956_11613)"/>
<path d="M335.948 7.28649L336.823 6.41211H321.969V21.2661L322.843 20.3917L335.948 7.28649Z" fill="#DCDCDC"/>
<path d="M335.948 7.28649L322.843 20.3917L321.969 21.2661H336.823V6.41211L335.948 7.28649Z" fill="#818282"/>
<path d="M335.949 7.28516H322.844V20.3904H335.949V7.28516Z" fill="#BFBEBE"/>
<path d="M325.009 8.84656L324.391 9.46484L333.779 18.8528L334.397 18.2346L325.009 8.84656Z" fill="#161616"/>
<path d="M333.779 8.83659L324.391 18.2246L325.009 18.8429L334.397 9.45487L333.779 8.83659Z" fill="#161616"/>
<path d="M317.015 7.28649L317.889 6.41211H303.035V21.2661L303.91 20.3917L317.015 7.28649Z" fill="#DCDCDC"/>
<path d="M317.015 7.28649L303.91 20.3917L303.035 21.2661H317.889V6.41211L317.015 7.28649Z" fill="#818282"/>
<path d="M317.015 7.28711H303.91V20.3924H317.015V7.28711Z" fill="#BFBEBE"/>
<path d="M315.417 18.7882H305.516V8.88672H315.417V18.7882ZM306.39 17.9138H314.543V9.7611H306.39V17.9138Z" fill="#161616"/>
<path d="M314.98 9.51172H305.953V10.6764H314.98V9.51172Z" fill="#161616"/>
<path d="M302.163 7.28649L303.038 6.41211H288.184V21.2661L289.058 20.3917L302.163 7.28649Z" fill="#DCDCDC"/>
<path d="M302.163 7.28649L289.058 20.3917L288.184 21.2661H303.038V6.41211L302.163 7.28649Z" fill="#818282"/>
<path d="M302.16 7.28711H289.055V20.3924H302.16V7.28711Z" fill="#BFBEBE"/>
<path d="M298.96 17.791H292.262V18.6654H298.96V17.791Z" fill="#161616"/>
<path d="M335.387 455.602L320.484 470.505H321.95L335.387 457.067V455.602Z" fill="#DCDCDC"/>
<path d="M335.387 457.068L321.949 470.506H323.415L335.387 458.534V457.068Z" fill="#818282"/>
<path d="M335.387 460.244L325.125 470.506H326.59L335.387 461.71V460.244Z" fill="#DCDCDC"/>
<path d="M335.39 461.707L326.594 470.503H328.059L335.39 463.173V461.707Z" fill="#818282"/>
<path d="M335.386 464.885L329.766 470.505H331.235L335.386 466.354V464.885Z" fill="#DCDCDC"/>
<path d="M335.39 466.354L331.238 470.505H332.704L335.39 467.819V466.354Z" fill="#818282"/>
<path d="M335.366 30.3477H320.512V455.543H335.366V30.3477Z" fill="#DCDCDC"/>
<path d="M334.492 441.46L335.366 440.582H320.516V455.537L321.387 454.66L334.492 441.46Z" fill="#DCDCDC"/>
<path d="M334.492 441.46L321.387 454.66L320.516 455.537H335.366V440.582L334.492 441.46Z" fill="#818282"/>
<path d="M334.492 441.461H321.387V454.657H334.492V441.461Z" fill="#BFBEBE"/>
<path d="M327.938 451.515L323.426 445.859H332.453L327.938 451.515Z" fill="#818282"/>
<path d="M334.492 31.3521L335.366 30.4707H320.516V45.4297L321.387 44.5483L334.492 31.3521Z" fill="#DCDCDC"/>
<path d="M334.492 31.3521L321.387 44.5483L320.516 45.4297H335.366V30.4707L334.492 31.3521Z" fill="#818282"/>
<path d="M334.492 31.3516H321.387V44.5477H334.492V31.3516Z" fill="#BFBEBE"/>
<path d="M327.938 34.9609L323.426 40.6165H332.453L327.938 34.9609Z" fill="#818282"/>
<path d="M6.11719 455.537L6.11719 470.391H320.224V455.537H6.11719Z" fill="#DCDCDC"/>
<path d="M319.341 456.41L320.219 455.535H305.281V470.389L306.159 469.515L319.341 456.41Z" fill="#DCDCDC"/>
<path d="M319.341 456.41L306.159 469.515L305.281 470.389H320.219V455.535L319.341 456.41Z" fill="#818282"/>
<path d="M319.342 456.41H306.16V469.515H319.342V456.41Z" fill="#BFBEBE"/>
<path d="M315.578 462.799L309.93 458.287V467.314L315.578 462.799Z" fill="#818282"/>
<path d="M20.1808 456.41L21.0587 455.535H6.11719V470.389L6.99857 469.515L20.1808 456.41Z" fill="#DCDCDC"/>
<path d="M20.1808 456.41L6.99857 469.515L6.11719 470.389H21.0587V455.535L20.1808 456.41Z" fill="#818282"/>
<path d="M20.1783 456.41H6.99609V469.515H20.1783V456.41Z" fill="#BFBEBE"/>
<path d="M10.7656 462.799L16.4141 458.287V467.314L10.7656 462.799Z" fill="#818282"/>
<defs>
<linearGradient id="paint0_linear_12956_11613" x1="171.466" y1="30.3418" x2="171.466" y2="455.537" gradientUnits="userSpaceOnUse">
<stop offset="0.4" stop-color="white"/>
<stop offset="1" stop-color="#B77EE9"/>
</linearGradient>
<linearGradient id="paint1_linear_12956_11613" x1="2.91016" y1="13.8388" x2="340.023" y2="13.8388" gradientUnits="userSpaceOnUse">
<stop stop-color="#6ABFEB"/>
<stop offset="0.51" stop-color="#6C89C6"/>
<stop offset="1" stop-color="#6F51A1"/>
</linearGradient>
</defs>
</svg>
