<svg width="434" height="606" viewBox="0 0 434 606" fill="none" xmlns="http://www.w3.org/2000/svg">
<path d="M429.631 3.64149L433.312 0H0V605.288L3.67682 601.651L429.631 3.64149Z" fill="#DCDCDC"/>
<path d="M433.312 0L429.631 3.64149L3.67682 601.651L0 605.288H433.312V0Z" fill="#818282"/>
<path d="M429.63 5.07422H3.67578V600.224H429.63V5.07422Z" fill="#BFBEBE"/>
<path d="M426.688 572.17L401.666 596.918H426.688V572.17Z" fill="#BFBEBE"/>
<path d="M429.63 32.8008H3.67578V601.652H429.63V32.8008Z" fill="#BFBEBE"/>
<path d="M423.776 36.4375H7.72461V575.582H423.776V36.4375Z" fill="#818282"/>
<path d="M423.747 38.3359H9.57031V575.585H423.747V38.3359Z" fill="url(#paint0_linear_12958_15451)"/>
<path d="M429.632 3.68164H3.67773V31.2799H429.632V3.68164Z" fill="url(#paint1_linear_12958_15451)"/>
<path d="M424.48 9.20247L425.585 8.09766H406.816V26.8662L407.921 25.7614L424.48 9.20247Z" fill="#DCDCDC"/>
<path d="M424.48 9.20247L407.921 25.7614L406.816 26.8662H425.585V8.09766L424.48 9.20247Z" fill="#818282"/>
<path d="M424.481 9.19922H407.922V25.7582H424.481V9.19922Z" fill="#BFBEBE"/>
<path d="M410.668 11.1797L409.887 11.9609L421.749 23.823L422.53 23.0418L410.668 11.1797Z" fill="#161616"/>
<path d="M421.743 11.1633L409.881 23.0254L410.662 23.8066L422.524 11.9445L421.743 11.1633Z" fill="#161616"/>
<path d="M400.56 9.20247L401.665 8.09766H382.896V26.8662L384.001 25.7614L400.56 9.20247Z" fill="#DCDCDC"/>
<path d="M400.56 9.20247L384.001 25.7614L382.896 26.8662H401.665V8.09766L400.56 9.20247Z" fill="#818282"/>
<path d="M400.561 9.19922H384.002V25.7582H400.561V9.19922Z" fill="#BFBEBE"/>
<path d="M398.536 23.7355H386.025V11.2246H398.536V23.7355ZM387.13 22.6307H397.431V12.3294H387.13V22.6307Z" fill="#161616"/>
<path d="M397.984 12.0176H386.578V13.4892H397.984V12.0176Z" fill="#161616"/>
<path d="M381.793 9.20247L382.898 8.09766H364.129V26.8662L365.234 25.7614L381.793 9.20247Z" fill="#DCDCDC"/>
<path d="M381.793 9.20247L365.234 25.7614L364.129 26.8662H382.898V8.09766L381.793 9.20247Z" fill="#818282"/>
<path d="M381.793 9.19922H365.234V25.7582H381.793V9.19922Z" fill="#BFBEBE"/>
<path d="M377.746 22.4766H369.283V23.5814H377.746V22.4766Z" fill="#161616"/>
<path d="M423.776 575.666L404.945 594.497H406.797L423.776 577.518V575.666Z" fill="#DCDCDC"/>
<path d="M423.776 577.516L406.797 594.494H408.649L423.776 579.367V577.516Z" fill="#818282"/>
<path d="M423.775 581.529L410.809 594.495H412.66L423.775 583.381V581.529Z" fill="#DCDCDC"/>
<path d="M423.775 583.385L412.66 594.499H414.512L423.775 585.237V583.385Z" fill="#818282"/>
<path d="M423.776 587.395L416.674 594.496H418.53L423.776 589.251V587.395Z" fill="#DCDCDC"/>
<path d="M423.777 589.252L418.531 594.498H420.383L423.777 591.104V589.252Z" fill="#818282"/>
<path d="M423.747 38.3379H404.979V575.587H423.747V38.3379Z" fill="#DCDCDC"/>
<path d="M422.64 557.791L423.745 556.682H404.98V575.578L406.081 574.469L422.64 557.791Z" fill="#DCDCDC"/>
<path d="M422.64 557.791L406.081 574.469L404.98 575.578H423.745V556.682L422.64 557.791Z" fill="#818282"/>
<path d="M422.641 557.793H406.082V574.467H422.641V557.793Z" fill="#BFBEBE"/>
<path d="M414.359 570.497L408.658 563.352H420.064L414.359 570.497Z" fill="#818282"/>
<path d="M422.64 39.6176L423.745 38.5039H404.98V57.4051L406.081 56.2914L422.64 39.6176Z" fill="#DCDCDC"/>
<path d="M422.64 39.6176L406.081 56.2914L404.98 57.4051H423.745V38.5039L422.64 39.6176Z" fill="#818282"/>
<path d="M422.641 39.6133H406.082V56.2871H422.641V39.6133Z" fill="#BFBEBE"/>
<path d="M414.361 44.1699L408.66 51.3159H420.066L414.361 44.1699Z" fill="#818282"/>
<path d="M7.73047 575.575L7.73047 594.344H404.615V575.575H7.73047Z" fill="#DCDCDC"/>
<path d="M403.504 576.679L404.613 575.574H385.738V594.343L386.848 593.238L403.504 576.679Z" fill="#DCDCDC"/>
<path d="M403.504 576.679L386.848 593.238L385.738 594.343H404.613V575.574L403.504 576.679Z" fill="#818282"/>
<path d="M403.504 576.68H386.848V593.239H403.504V576.68Z" fill="#BFBEBE"/>
<path d="M398.743 584.757L391.605 579.057V590.463L398.743 584.757Z" fill="#818282"/>
<path d="M25.4964 576.679L26.6056 575.574H7.72656V594.343L8.84022 593.238L25.4964 576.679Z" fill="#DCDCDC"/>
<path d="M25.4964 576.679L8.84022 593.238L7.72656 594.343H26.6056V575.574L25.4964 576.679Z" fill="#818282"/>
<path d="M25.496 576.68H8.83984V593.239H25.496V576.68Z" fill="#BFBEBE"/>
<path d="M13.5996 584.757L20.7367 579.057V590.463L13.5996 584.757Z" fill="#818282"/>
<defs>
<linearGradient id="paint0_linear_12958_15451" x1="216.659" y1="38.3359" x2="216.659" y2="575.585" gradientUnits="userSpaceOnUse">
<stop offset="0.4" stop-color="white"/>
<stop offset="1" stop-color="#B77EE9"/>
</linearGradient>
<linearGradient id="paint1_linear_12958_15451" x1="3.67773" y1="17.483" x2="429.632" y2="17.483" gradientUnits="userSpaceOnUse">
<stop stop-color="#6ABFEB"/>
<stop offset="0.51" stop-color="#6C89C6"/>
<stop offset="1" stop-color="#6F51A1"/>
</linearGradient>
</defs>
</svg>
