<svg width="340" height="475" viewBox="0 0 340 475" fill="none" xmlns="http://www.w3.org/2000/svg">
<path d="M336.71 2.85391L339.595 0H0V474.376L2.8816 471.525L336.71 2.85391Z" fill="#DCDCDC"/>
<path d="M339.595 0L336.71 2.85391L2.8816 471.525L0 474.376H339.595V0Z" fill="#818282"/>
<path d="M336.711 3.97656H2.88281V470.407H336.711V3.97656Z" fill="#BFBEBE"/>
<path d="M334.403 448.42L314.793 467.815H334.403V448.42Z" fill="#BFBEBE"/>
<path d="M336.711 25.707H2.88281V471.526H336.711V25.707Z" fill="#BFBEBE"/>
<path d="M332.122 28.5547H6.05469V451.093H332.122V28.5547Z" fill="#818282"/>
<path d="M332.099 30.0449H7.5V451.097H332.099V30.0449Z" fill="url(#paint0_linear_12956_11453)"/>
<path d="M336.711 2.88672H2.88281V24.516H336.711V2.88672Z" fill="url(#paint1_linear_12956_11453)"/>
<path d="M332.672 7.21352L333.537 6.34766H318.828V21.0569L319.694 20.1911L332.672 7.21352Z" fill="#DCDCDC"/>
<path d="M332.672 7.21352L319.694 20.1911L318.828 21.0569H333.537V6.34766L332.672 7.21352Z" fill="#818282"/>
<path d="M332.673 7.21289H319.695V20.1904H332.673V7.21289Z" fill="#BFBEBE"/>
<path d="M321.847 8.75688L321.234 9.36914L330.531 18.6657L331.143 18.0534L321.847 8.75688Z" fill="#161616"/>
<path d="M330.527 8.74837L321.23 18.0449L321.843 18.6572L331.139 9.36063L330.527 8.74837Z" fill="#161616"/>
<path d="M313.929 7.21352L314.795 6.34766H300.086V21.0569L300.952 20.1911L313.929 7.21352Z" fill="#DCDCDC"/>
<path d="M313.929 7.21352L300.952 20.1911L300.086 21.0569H314.795V6.34766L313.929 7.21352Z" fill="#818282"/>
<path d="M313.931 7.21289H300.953V20.1904H313.931V7.21289Z" fill="#BFBEBE"/>
<path d="M312.344 18.6058H302.539V8.80078H312.344V18.6058ZM303.405 17.74H311.478V9.66665H303.405V17.74Z" fill="#161616"/>
<path d="M311.912 9.41992H302.973V10.5733H311.912V9.41992Z" fill="#161616"/>
<path d="M299.218 7.21352L300.084 6.34766H285.375V21.0569L286.241 20.1911L299.218 7.21352Z" fill="#DCDCDC"/>
<path d="M299.218 7.21352L286.241 20.1911L285.375 21.0569H300.084V6.34766L299.218 7.21352Z" fill="#818282"/>
<path d="M299.22 7.21289H286.242V20.1904H299.22V7.21289Z" fill="#BFBEBE"/>
<path d="M296.047 17.6172H289.414V18.4831H296.047V17.6172Z" fill="#161616"/>
<path d="M332.121 451.164L317.363 465.922H318.814L332.121 452.615V451.164Z" fill="#DCDCDC"/>
<path d="M332.119 452.615L318.812 465.922H320.264L332.119 454.066V452.615Z" fill="#818282"/>
<path d="M332.123 455.762L321.961 465.924H323.412L332.123 457.213V455.762Z" fill="#DCDCDC"/>
<path d="M332.121 457.213L323.41 465.924H324.861L332.121 458.664V457.213Z" fill="#818282"/>
<path d="M332.12 460.355L326.555 465.921H328.009L332.12 461.81V460.355Z" fill="#DCDCDC"/>
<path d="M332.119 461.812L328.008 465.924H329.459L332.119 463.264V461.812Z" fill="#818282"/>
<path d="M332.1 30.0527H317.391V451.105H332.1V30.0527Z" fill="#DCDCDC"/>
<path d="M331.231 437.158L332.096 436.289H317.391V451.099L318.253 450.229L331.231 437.158Z" fill="#DCDCDC"/>
<path d="M331.231 437.158L318.253 450.229L317.391 451.099H332.096V436.289L331.231 437.158Z" fill="#818282"/>
<path d="M331.231 437.16H318.254V450.228H331.231V437.16Z" fill="#BFBEBE"/>
<path d="M324.741 447.118L320.273 441.518H329.213L324.741 447.118Z" fill="#818282"/>
<path d="M331.231 31.0486L332.096 30.1758H317.391V44.989L318.253 44.1162L331.231 31.0486Z" fill="#DCDCDC"/>
<path d="M331.231 31.0486L318.253 44.1162L317.391 44.989H332.096V30.1758L331.231 31.0486Z" fill="#818282"/>
<path d="M331.231 31.0488H318.254V44.1164H331.231V31.0488Z" fill="#BFBEBE"/>
<path d="M324.741 34.6172L320.273 40.2176H329.213L324.741 34.6172Z" fill="#818282"/>
<path d="M6.05859 451.101L6.05859 465.811H317.105V451.101H6.05859Z" fill="#DCDCDC"/>
<path d="M316.228 451.969L317.097 451.104H302.305V465.813L303.174 464.947L316.228 451.969Z" fill="#DCDCDC"/>
<path d="M316.228 451.969L303.174 464.947L302.305 465.813H317.097V451.104L316.228 451.969Z" fill="#818282"/>
<path d="M316.23 451.969H303.176V464.946H316.23V451.969Z" fill="#BFBEBE"/>
<path d="M312.496 458.296L306.902 453.828V462.767L312.496 458.296Z" fill="#818282"/>
<path d="M19.9773 451.969L20.8467 451.104H6.05078V465.813L6.92358 464.947L19.9773 451.969Z" fill="#DCDCDC"/>
<path d="M19.9773 451.969L6.92358 464.947L6.05078 465.813H20.8467V451.104L19.9773 451.969Z" fill="#818282"/>
<path d="M19.9795 451.969H6.92578V464.946H19.9795V451.969Z" fill="#BFBEBE"/>
<path d="M10.6562 458.294L16.2497 453.826V462.765L10.6562 458.294Z" fill="#818282"/>
<defs>
<linearGradient id="paint0_linear_12956_11453" x1="169.799" y1="30.0449" x2="169.799" y2="451.097" gradientUnits="userSpaceOnUse">
<stop offset="0.4" stop-color="white"/>
<stop offset="1" stop-color="#B77EE9"/>
</linearGradient>
<linearGradient id="paint1_linear_12956_11453" x1="2.88281" y1="13.7031" x2="336.711" y2="13.7031" gradientUnits="userSpaceOnUse">
<stop stop-color="#6ABFEB"/>
<stop offset="0.51" stop-color="#6C89C6"/>
<stop offset="1" stop-color="#6F51A1"/>
</linearGradient>
</defs>
</svg>
