<svg width="60" height="15" viewBox="0 0 60 15" fill="none" xmlns="http://www.w3.org/2000/svg">
<path d="M0.817658 2.00534H2.35947V5.08897H3.90128V6.63078H2.35947V14.3398H0.817658V2.00534ZM2.35947 0.463527H3.90128V2.00534H2.35947V0.463527ZM5.44761 5.08897H8.53124V6.63078H6.98943V14.3398H5.44761V5.08897ZM10.0776 6.63078H11.6194V12.798H10.0776V6.63078ZM11.6194 12.798H16.2448V14.3398H11.6194V12.798ZM11.6194 5.08897H16.2448V6.63078H11.6194V5.08897ZM16.2448 6.63078H17.7866V12.798H16.2448V6.63078ZM19.3375 5.08897H20.8793V6.63078H22.4211V8.17259H20.8793V14.3398H19.3375V5.08897ZM25.5047 6.63078H22.4211V5.08897H25.5047V6.63078H27.0465V14.3398H25.5047V6.63078ZM28.5974 2.00534H30.1392V5.08897H31.681V6.63078H30.1392V12.798H31.681V14.3398H30.1392V12.798H28.5974V2.00534ZM34.7692 12.798H33.2274V6.63078H34.7692V8.17259H39.3946V6.63078H34.7692V5.08897H39.3946V6.63078H40.9364V9.7144H34.7692V12.798H39.3946V14.3398H34.7692V12.798ZM39.3946 11.2562H40.9364V12.798H39.3946V11.2562ZM42.4873 5.08897H44.0291V6.63078H45.5709V8.17259H44.0291V14.3398H42.4873V5.08897ZM48.6545 6.63078H45.5709V5.08897H48.6545V6.63078H50.1963V14.3398H48.6545V6.63078ZM59.4562 14.3398H53.289V12.798H57.9144V6.63078H53.289V12.798H51.7472V6.63078H53.289V5.08897H57.9144V0.463527H59.4562V14.3398Z" fill="#ED76B4"/>
</svg>
