<svg width="27" height="15" viewBox="0 0 27 15" fill="none" xmlns="http://www.w3.org/2000/svg">
<path d="M0.188815 0.475246H1.73063V14.3516H0.188815V0.475246ZM4.81727 6.6425H6.35908V9.72612H10.9845V6.6425H9.44271V3.55887H7.90089V0.475246H9.44271V3.55887H10.9845V6.6425H12.5263V11.2679H14.0681V14.3516H12.5263V11.2679H4.81727V6.6425ZM6.35908 3.55887H7.90089V6.6425H6.35908V3.55887ZM3.27545 11.2679H4.81727V14.3516H3.27545V11.2679ZM18.6868 6.6425H17.145V14.3516H15.6032V0.475246H17.145V3.55887H18.6868V6.6425H20.2286V9.72612H21.7704V12.8097H20.2286V9.72612H18.6868V6.6425ZM23.3122 3.55887H24.8541V0.475246H26.3959V14.3516H24.8541V6.6425H23.3122V3.55887ZM21.7704 6.6425H23.3122V9.72612H21.7704V6.6425Z" fill="#ED76B4"/>
</svg>
