<svg width="60" height="15" viewBox="0 0 60 15" fill="none" xmlns="http://www.w3.org/2000/svg">
<path d="M0.539234 2.09909H2.08105V5.18272H3.62286V6.72453H2.08105V14.4336H0.539234V2.09909ZM2.08105 0.557277H3.62286V2.09909H2.08105V0.557277ZM12.8783 14.4336H11.3364V12.8918H9.79463V11.35H11.3364V5.18272H12.8783V14.4336ZM6.711 12.8918H9.79463V14.4336H6.711V12.8918H5.16919V5.18272H6.711V12.8918ZM14.4291 0.557277H15.9709V14.4336H14.4291V0.557277ZM17.5157 0.557277H19.0576V14.4336H17.5157V0.557277ZM20.6024 6.72453H22.1442V8.26634H20.6024V6.72453ZM22.1442 8.26634H23.686V9.80815H22.1442V8.26634ZM23.686 9.80815H25.2278V11.35H23.686V9.80815ZM25.2278 11.35H26.7696V12.8918H25.2278V11.35ZM22.1442 12.8918H25.2278V14.4336H22.1442V12.8918ZM20.6024 11.35H22.1442V12.8918H20.6024V11.35ZM22.1442 5.18272H25.2278V6.72453H22.1442V5.18272ZM25.2278 6.72453H26.7696V8.26634H25.2278V6.72453ZM28.319 2.09909H29.8608V5.18272H31.4026V6.72453H29.8608V12.8918H31.4026V14.4336H29.8608V12.8918H28.319V2.09909ZM34.4907 12.8918H32.9489V9.80815H34.4907V12.8918H39.1162V9.80815H34.4907V8.26634H39.1162V6.72453H34.4907V5.18272H39.1162V6.72453H40.658V14.4336H34.4907V12.8918ZM42.2088 6.72453H43.7506V12.8918H42.2088V6.72453ZM43.7506 12.8918H48.3761V14.4336H43.7506V12.8918ZM43.7506 5.18272H48.3761V6.72453H43.7506V5.18272ZM48.3761 6.72453H49.9179V8.26634H48.3761V6.72453ZM48.3761 11.35H49.9179V12.8918H48.3761V11.35ZM54.5524 9.80815H53.0106V14.4336H51.4687V0.557277H53.0106V8.26634H54.5524V9.80815H56.0942V11.35H57.636V12.8918H59.1778V14.4336H57.636V12.8918H56.0942V11.35H54.5524V9.80815ZM56.0942 5.18272H57.636V6.72453H56.0942V5.18272ZM54.5524 6.72453H56.0942V8.26634H54.5524V6.72453Z" fill="#ED76B4"/>
</svg>
