<svg width="56" height="19" viewBox="0 0 56 19" fill="none" xmlns="http://www.w3.org/2000/svg">
<path d="M0.460667 4.9249H6.62792V6.46672H2.00248V12.634H6.62792V6.46672H8.16973V12.634H6.62792V14.1758H2.00248V18.8012H0.460667V4.9249ZM9.72058 0.299465H11.2624V14.1758H9.72058V0.299465ZM14.349 12.634H12.8072V9.55034H14.349V12.634H18.9745V9.55034H14.349V8.00853H18.9745V6.46672H14.349V4.9249H18.9745V6.46672H20.5163V14.1758H14.349V12.634ZM22.0671 1.84128H23.6089V4.9249H25.1508V6.46672H23.6089V12.634H25.1508V14.1758H23.6089V12.634H22.0671V1.84128ZM26.6971 1.84128H28.2389V4.9249H29.7807V6.46672H28.2389V14.1758H26.6971V1.84128ZM28.2389 0.299465H29.7807V1.84128H28.2389V0.299465ZM31.327 6.46672H32.8688V12.634H31.327V6.46672ZM32.8688 12.634H37.4943V14.1758H32.8688V12.634ZM32.8688 4.9249H37.4943V6.46672H32.8688V4.9249ZM37.4943 6.46672H39.0361V12.634H37.4943V6.46672ZM40.587 4.9249H43.6706V6.46672H42.1288V14.1758H40.587V4.9249ZM49.8423 6.46672H46.7587V14.1758H45.2169V4.9249H49.8423V6.46672H51.3842V14.1758H49.8423V6.46672ZM51.3842 4.9249H54.4678V6.46672H56.0096V14.1758H54.4678V6.46672H51.3842V4.9249Z" fill="#ED76B4"/>
</svg>
