<svg width="64" height="15" viewBox="0 0 64 15" fill="none" xmlns="http://www.w3.org/2000/svg">
<path d="M0.267659 0.506496H1.80947V5.13193H6.43491V6.67375H7.97672V12.841H6.43491V6.67375H1.80947V12.841H6.43491V14.3828H0.267659V0.506496ZM11.0694 12.841H9.52757V9.75737H11.0694V12.841H15.6948V9.75737H11.0694V8.21556H15.6948V6.67375H11.0694V5.13193H15.6948V6.67375H17.2366V14.3828H11.0694V12.841ZM18.7875 6.67375H20.3293V12.841H18.7875V6.67375ZM20.3293 12.841H24.9547V14.3828H20.3293V12.841ZM20.3293 5.13193H24.9547V6.67375H20.3293V5.13193ZM24.9547 6.67375H26.4966V8.21556H24.9547V6.67375ZM24.9547 11.2992H26.4966V12.841H24.9547V11.2992ZM31.131 9.75737H29.5892V14.3828H28.0474V0.506496H29.5892V8.21556H31.131V9.75737H32.6728V11.2992H34.2146V12.841H35.7565V14.3828H34.2146V12.841H32.6728V11.2992H31.131V9.75737ZM32.6728 5.13193H34.2146V6.67375H32.6728V5.13193ZM31.131 6.67375H32.6728V8.21556H31.131V6.67375ZM38.8491 12.841H37.3073V6.67375H38.8491V8.21556H43.4746V6.67375H38.8491V5.13193H43.4746V6.67375H45.0164V9.75737H38.8491V12.841H43.4746V14.3828H38.8491V12.841ZM43.4746 11.2992H45.0164V12.841H43.4746V11.2992ZM46.5672 5.13193H48.109V6.67375H49.6508V8.21556H48.109V14.3828H46.5672V5.13193ZM52.7345 6.67375H49.6508V5.13193H52.7345V6.67375H54.2763V14.3828H52.7345V6.67375ZM63.5362 14.3828H57.3689V12.841H61.9944V6.67375H57.3689V12.841H55.8271V6.67375H57.3689V5.13193H61.9944V0.506496H63.5362V14.3828Z" fill="#ED76B4"/>
</svg>
