<svg width="92" height="15" viewBox="0 0 92 15" fill="none" xmlns="http://www.w3.org/2000/svg">
<path d="M0.255619 2.28659H1.79743V13.0793H0.255619V2.28659ZM1.79743 13.0793H7.96468V14.6211H1.79743V13.0793ZM7.96468 11.5375H9.5065V13.0793H7.96468V11.5375ZM7.96468 2.28659H9.5065V3.8284H7.96468V2.28659ZM1.79743 0.744777H7.96468V2.28659H1.79743V0.744777ZM11.04 0.744777H12.5818V14.6211H11.04V0.744777ZM14.1267 6.91203H15.6685V13.0793H14.1267V6.91203ZM15.6685 13.0793H20.2939V14.6211H15.6685V13.0793ZM15.6685 5.37022H20.2939V6.91203H15.6685V5.37022ZM20.2939 6.91203H21.8357V13.0793H20.2939V6.91203ZM31.0956 14.6211H29.5538V13.0793H28.012V11.5375H29.5538V5.37022H31.0956V14.6211ZM24.9284 13.0793H28.012V14.6211H24.9284V13.0793H23.3866V5.37022H24.9284V13.0793ZM40.3556 14.6211H34.1883V13.0793H38.8137V6.91203H34.1883V13.0793H32.6465V6.91203H34.1883V5.37022H38.8137V0.744777H40.3556V14.6211ZM41.9064 8.45384H46.5318V9.99565H41.9064V8.45384ZM48.0797 5.37022H49.6215V6.91203H51.1633V8.45384H49.6215V14.6211H48.0797V5.37022ZM54.2469 6.91203H51.1633V5.37022H54.2469V6.91203H55.7887V14.6211H54.2469V6.91203ZM58.8814 13.0793H57.3396V9.99565H58.8814V13.0793H63.5068V9.99565H58.8814V8.45384H63.5068V6.91203H58.8814V5.37022H63.5068V6.91203H65.0487V14.6211H58.8814V13.0793ZM66.5995 2.28659H68.1413V5.37022H69.6831V6.91203H68.1413V13.0793H69.6831V14.6211H68.1413V13.0793H66.5995V2.28659ZM71.2295 5.37022H72.7713V14.6211H71.2295V5.37022ZM71.2295 0.744777H72.7713V2.28659H71.2295V0.744777ZM74.3161 5.37022H75.8579V8.45384H74.3161V5.37022ZM75.8579 8.45384H77.3997V11.5375H75.8579V8.45384ZM77.3997 11.5375H78.9415V14.6211H77.3997V11.5375ZM78.9415 8.45384H80.4834V11.5375H78.9415V8.45384ZM80.4834 5.37022H82.0252V8.45384H80.4834V5.37022ZM85.1178 13.0793H83.576V6.91203H85.1178V8.45384H89.7433V6.91203H85.1178V5.37022H89.7433V6.91203H91.2851V9.99565H85.1178V13.0793H89.7433V14.6211H85.1178V13.0793ZM89.7433 11.5375H91.2851V13.0793H89.7433V11.5375Z" fill="#ED76B4"/>
</svg>
