<svg width="583" height="164" viewBox="0 0 583 164" fill="none" xmlns="http://www.w3.org/2000/svg">
<path d="M546.138 52.875C546.517 56.2181 545.249 59.7598 542.293 63.4785C539.336 67.1997 534.741 71.0281 528.627 74.8982C516.401 82.6361 498.27 90.4362 475.543 97.8466C430.102 112.663 366.463 125.866 295.402 133.931C224.341 141.995 159.361 143.389 111.756 139.132C87.9457 137.003 68.5277 133.465 54.8793 128.663C48.0531 126.262 42.717 123.56 39.0009 120.596C35.2874 117.635 33.2579 114.467 32.8785 111.124C32.4991 107.781 33.7672 104.239 36.7226 100.521C39.6799 96.7994 44.275 92.971 50.3894 89.1009C62.6148 81.363 80.7459 73.5629 103.473 66.1525C148.914 51.3361 212.553 38.133 283.614 30.0683C354.675 22.0037 419.655 20.6101 467.26 24.8668C491.07 26.9958 510.488 30.5344 524.137 35.336C530.963 37.7374 536.299 40.4388 540.015 43.4026C543.729 46.3645 545.758 49.5319 546.138 52.875Z" fill="#FF9ACF" stroke="black" stroke-width="1.7062"/>
<path d="M91.7435 82.7912C95.2444 82.3939 98.4924 83.9692 101.487 87.517C104.494 91.0443 106.322 95.6724 106.972 101.401C107.642 107.302 106.904 112.347 104.761 116.536C102.617 120.725 99.7082 123.028 96.0348 123.445C92.3217 123.866 88.983 122.321 86.0189 118.808C83.068 115.294 81.2501 110.519 80.5653 104.485C79.8653 98.317 80.7529 93.1196 83.2283 88.8929C85.3776 85.2254 88.216 83.1915 91.7435 82.7912ZM91.6028 84.9251C89.1893 85.199 87.3994 86.7078 86.2333 89.4513C84.7806 92.8656 84.4053 97.6664 85.1075 103.854C85.827 110.193 87.3223 114.966 89.5933 118.17C91.3335 120.603 93.3905 121.685 95.7642 121.416C98.2971 121.128 100.224 119.469 101.546 116.437C102.881 113.403 103.2 108.821 102.504 102.692C101.75 96.0461 100.279 91.1937 98.0921 88.1345C96.3386 85.7029 94.1755 84.6332 91.6028 84.9251ZM124.374 109.233C124.276 112.745 123.616 115.518 122.397 117.552C121.175 119.567 119.695 120.673 117.958 120.87C115.889 121.105 113.944 120.058 112.121 117.731C110.299 115.404 109.146 112.112 108.663 107.853C108.195 103.729 108.663 100.281 110.068 97.5102C111.486 94.7381 113.389 93.2165 115.776 92.9456C117.566 92.7425 119.116 93.2629 120.426 94.5069C121.734 95.7318 122.471 97.0794 122.638 98.5498C122.72 99.2755 122.622 99.8863 122.342 100.382C122.074 100.858 121.648 101.128 121.064 101.195C120.282 101.283 119.65 100.987 119.17 100.307C118.899 99.9315 118.66 99.185 118.453 98.0673C118.258 96.9482 117.896 96.119 117.364 95.5797C116.835 95.0595 116.16 94.846 115.337 94.9393C114.011 95.0898 113.024 95.9175 112.375 97.4224C111.514 99.4158 111.257 101.95 111.606 105.024C111.961 108.156 112.806 110.865 114.14 113.15C115.485 115.416 117.066 116.445 118.883 116.239C120.183 116.091 121.277 115.319 122.166 113.922C122.796 112.961 123.324 111.286 123.752 108.897L124.374 109.233ZM127.429 83.6735L128.408 92.2955L132.664 91.8124L132.892 93.8175L128.635 94.3006L130.566 111.315C130.759 113.015 131.055 114.142 131.453 114.696C131.865 115.249 132.337 115.495 132.867 115.435C133.305 115.385 133.707 115.146 134.075 114.718C134.441 114.27 134.693 113.652 134.832 112.862L135.607 112.774C135.356 114.698 134.86 116.186 134.119 117.237C133.377 118.269 132.555 118.836 131.653 118.938C131.043 119.008 130.419 118.837 129.781 118.426C129.141 117.995 128.631 117.347 128.251 116.481C127.869 115.596 127.57 114.208 127.355 112.318L125.353 94.6731L122.469 95.0004L122.361 94.0551C123.043 93.5522 123.706 92.7614 124.349 91.6826C125.003 90.5832 125.55 89.3122 125.991 87.8696C126.214 87.1093 126.488 85.7339 126.812 83.7435L127.429 83.6735ZM141.242 90.0556C144 89.7426 146.386 90.9998 148.399 93.8274C150.111 96.2443 151.156 99.1237 151.535 102.466C151.802 104.814 151.68 107.236 151.171 109.731C150.662 112.226 149.787 114.163 148.546 115.542C147.319 116.919 145.863 117.703 144.179 117.894C141.434 118.206 139.074 116.878 137.098 113.91C135.431 111.411 134.41 108.51 134.035 105.206C133.762 102.8 133.902 100.366 134.456 97.9049C135.021 95.4231 135.915 93.5421 137.14 92.2619C138.363 90.9626 139.73 90.2272 141.242 90.0556ZM140.836 91.9875C140.133 92.0672 139.459 92.4533 138.812 93.1456C138.176 93.8174 137.725 94.9324 137.459 96.4906C137.192 98.0489 137.193 100.012 137.462 102.38C137.896 106.199 138.793 109.434 140.155 112.084C141.53 114.732 143.08 115.959 144.804 115.763C146.09 115.617 147.064 114.733 147.726 113.11C148.389 111.488 148.508 108.815 148.086 105.091C147.557 100.432 146.445 96.8441 144.749 94.3287C143.599 92.6023 142.295 91.8219 140.836 91.9875ZM156.257 93.719C157.619 89.9861 159.322 88.0037 161.364 87.7719C163.234 87.5597 164.996 88.5299 166.651 90.6825C168.303 92.816 169.356 95.8784 169.809 99.8694C170.338 104.529 169.69 108.403 167.864 111.492C166.298 114.146 164.381 115.601 162.114 115.859C161.053 115.979 159.941 115.825 158.777 115.396C157.627 114.966 156.419 114.261 155.152 113.283L152.067 86.0997C151.729 83.1207 151.468 81.2935 151.284 80.6181C151.113 79.9412 150.908 79.4906 150.667 79.2665C150.427 79.0423 150.148 78.9483 149.829 78.9844C149.458 79.0265 149.011 79.232 148.489 79.6007L148.097 78.6298L153.203 74.8008L154.098 74.6992L156.257 93.719ZM156.465 95.5522L158.246 111.249C159.031 112.127 159.809 112.774 160.582 113.189C161.365 113.584 162.135 113.738 162.891 113.652C164.098 113.516 165.11 112.434 165.928 110.407C166.758 108.378 166.967 105.54 166.553 101.893C166.172 98.5318 165.355 96.0133 164.104 94.3371C162.864 92.6404 161.58 91.8672 160.254 92.0177C159.551 92.0975 158.878 92.4351 158.234 93.0304C157.746 93.4726 157.157 94.3132 156.465 95.5522ZM173.267 97.2139C173.696 101.111 174.699 104.092 176.277 106.157C177.854 108.221 179.538 109.152 181.328 108.949C182.522 108.813 183.503 108.228 184.272 107.193C185.052 106.137 185.611 104.43 185.948 102.071L186.629 102.574C186.648 105.221 186.11 107.7 185.015 110.01C183.918 112.301 182.362 113.561 180.347 113.789C178.158 114.038 176.143 113.029 174.301 110.762C172.47 108.475 171.319 105.259 170.849 101.115C170.34 96.6274 170.739 93.0425 172.046 90.3603C173.365 87.6576 175.231 86.1692 177.644 85.8953C179.687 85.6635 181.475 86.447 183.009 88.2459C184.54 90.0256 185.49 92.5386 185.859 95.785L173.267 97.2139ZM173.079 95.5526L181.513 94.5954C181.256 92.9225 180.982 91.7543 180.692 91.0909C180.239 90.0592 179.646 89.2754 178.914 88.7395C178.195 88.2022 177.477 87.9742 176.761 88.0554C175.661 88.1804 174.743 88.9131 174.009 90.2537C173.285 91.5737 172.975 93.34 173.079 95.5526ZM190.39 84.4778L191.06 90.3785C192.139 86.2716 193.48 84.1271 195.085 83.945C195.814 83.8622 196.454 84.1184 197.005 84.7135C197.554 85.2895 197.877 85.9976 197.972 86.8378C198.056 87.5826 197.956 88.2323 197.669 88.787C197.383 89.3418 197.001 89.6462 196.524 89.7004C196.06 89.7531 195.499 89.4879 194.842 88.9048C194.196 88.3012 193.733 88.0152 193.455 88.0468C193.216 88.0739 192.979 88.2942 192.744 88.7077C192.236 89.5584 191.766 90.9173 191.333 92.7846L192.76 105.359C192.925 106.811 193.175 107.894 193.512 108.611C193.743 109.107 194.097 109.502 194.573 109.796C195.05 110.09 195.699 110.19 196.521 110.097L196.638 111.128L187.309 112.187L187.192 111.156C188.12 111.05 188.786 110.762 189.189 110.291C189.486 109.948 189.663 109.434 189.72 108.751C189.749 108.419 189.677 107.489 189.504 105.961L188.35 95.7924C188.003 92.737 187.751 90.9281 187.593 90.3658C187.446 89.7828 187.238 89.3712 186.969 89.131C186.714 88.8892 186.413 88.7879 186.068 88.827C185.657 88.8737 185.21 89.0696 184.725 89.4147L184.409 88.4061L189.555 84.5726L190.39 84.4778ZM224.359 100.41L223.317 108.1L207.404 109.906L207.284 108.847C211.267 102.166 213.992 96.77 215.46 92.6577C216.928 88.5453 217.478 84.8755 217.112 81.6483C216.832 79.1849 216.079 77.2201 214.851 75.754C213.624 74.2879 212.281 73.6377 210.822 73.8032C209.496 73.9537 208.366 74.6525 207.433 75.8996C206.511 77.1261 205.921 78.8468 205.662 81.0619L204.926 81.1454C204.856 77.575 205.397 74.767 206.549 72.7215C207.713 70.6744 209.323 69.5343 211.379 69.301C213.567 69.0527 215.505 69.8578 217.194 71.7165C218.895 73.5736 219.902 75.8771 220.214 78.627C220.438 80.5939 220.342 82.5969 219.929 84.636C219.299 87.841 218.079 91.2966 216.27 95.0028C213.558 100.572 211.851 103.938 211.15 105.1L218.192 104.301C219.624 104.139 220.617 103.949 221.169 103.731C221.736 103.512 222.225 103.147 222.637 102.636C223.047 102.106 223.375 101.392 223.623 100.493L224.359 100.41ZM230.458 87.474C228.037 85.1956 226.428 83.3279 225.632 81.8709C224.848 80.4125 224.363 78.8621 224.177 77.2198C223.891 74.6991 224.321 72.455 225.468 70.4873C226.613 68.5006 228.305 67.38 230.547 67.1257C232.721 66.8789 234.568 67.53 236.087 69.079C237.606 70.6281 238.489 72.4911 238.736 74.6681C238.901 76.1194 238.711 77.64 238.166 79.2298C237.621 80.8197 236.331 82.765 234.295 85.0656C236.924 87.3978 238.701 89.2658 239.626 90.6695C240.854 92.5029 241.591 94.4986 241.836 96.6564C242.146 99.3872 241.689 101.808 240.465 103.92C239.238 106.013 237.451 107.193 235.104 107.459C232.544 107.75 230.417 106.821 228.723 104.673C227.372 102.95 226.572 100.99 226.323 98.7942C226.128 97.0755 226.333 95.3308 226.938 93.56C227.554 91.7687 228.727 89.74 230.458 87.474ZM233.233 84.0546C234.591 81.8116 235.414 80.074 235.704 78.8419C235.992 77.5907 236.05 76.2108 235.879 74.7022C235.652 72.6971 235.083 71.1756 234.173 70.1377C233.26 69.0808 232.128 68.629 230.775 68.7825C229.422 68.936 228.385 69.6243 227.665 70.8473C226.944 72.0703 226.669 73.4361 226.84 74.9447C226.953 75.9377 227.238 76.9111 227.695 77.865C228.166 78.8174 228.777 79.7054 229.529 80.5292L233.233 84.0546ZM231.517 88.4563C230.568 89.918 229.918 91.4714 229.567 93.1166C229.215 94.7427 229.142 96.4723 229.35 98.3055C229.63 100.769 230.318 102.693 231.416 104.077C232.524 105.44 233.801 106.04 235.247 105.876C236.679 105.714 237.76 105.001 238.49 103.738C239.219 102.476 239.49 101.014 239.301 99.3522C239.145 97.9773 238.754 96.7742 238.126 95.7429C236.955 93.8255 234.752 91.3967 231.517 88.4563ZM245.801 70.2396L246.78 78.8616L251.037 78.3784L251.264 80.3835L247.007 80.8667L248.938 97.8813C249.131 99.5809 249.427 100.708 249.826 101.262C250.238 101.815 250.709 102.061 251.239 102.001C251.677 101.952 252.08 101.712 252.448 101.284C252.813 100.836 253.065 100.218 253.204 99.4282L253.98 99.3401C253.728 101.264 253.232 102.752 252.492 103.803C251.749 104.835 250.927 105.402 250.025 105.505C249.415 105.574 248.791 105.403 248.154 104.992C247.514 104.561 247.004 103.913 246.623 103.047C246.241 102.162 245.942 100.775 245.728 98.884L243.725 81.2391L240.841 81.5665L240.734 80.6212C241.415 80.1183 242.078 79.3275 242.721 78.2487C243.375 77.1493 243.923 75.8783 244.364 74.4356C244.586 73.6754 244.86 72.3 245.185 70.3096L245.801 70.2396ZM254.496 63.3052L256.674 82.4968C257.882 80 258.88 78.3781 259.668 77.631C260.454 76.8648 261.278 76.4328 262.14 76.335C263.175 76.2176 264.11 76.5273 264.945 77.2642C265.781 78.001 266.478 79.2276 267.035 80.9438C267.426 82.1373 267.806 84.3573 268.174 87.6036L269.227 96.8844C269.416 98.5458 269.638 99.6714 269.893 100.261C270.077 100.705 270.344 101.042 270.692 101.273C271.041 101.504 271.64 101.572 272.488 101.476L272.605 102.507L263.654 103.523L263.537 102.491L263.955 102.444C264.804 102.348 265.373 102.099 265.663 101.699C265.952 101.279 266.121 100.699 266.171 99.9585C266.176 99.6484 266.094 98.7486 265.925 97.2591L264.872 87.9784C264.547 85.114 264.227 83.245 263.913 82.3716C263.612 81.4967 263.212 80.8652 262.711 80.4771C262.208 80.07 261.638 79.9025 261.002 79.9748C260.352 80.0485 259.704 80.3735 259.057 80.9498C258.411 81.526 257.683 82.6242 256.872 84.2441L258.446 98.108C258.65 99.903 258.843 101.013 259.025 101.437C259.221 101.859 259.522 102.202 259.928 102.466C260.345 102.709 261.017 102.777 261.946 102.672L262.063 103.703L253.032 104.728L252.915 103.697C253.724 103.605 254.34 103.351 254.763 102.936C255.006 102.715 255.177 102.328 255.276 101.775C255.374 101.222 255.33 100.125 255.144 98.4827L252.449 74.7366C252.109 71.7385 251.846 69.9018 251.662 69.2263C251.492 68.5494 251.286 68.0989 251.046 67.8747C250.818 67.649 250.533 67.5557 250.188 67.5949C249.909 67.6265 249.476 67.8304 248.887 68.2067L248.495 67.2357L253.581 63.409L254.496 63.3052ZM278.887 86.2718L289.171 85.1047L289.662 89.43L279.378 90.5971L278.887 86.2718ZM293.707 60.7701L301.027 59.9393L320.823 87.1991L318.281 64.7993C318.01 62.4123 317.656 60.9438 317.217 60.394C316.635 59.6476 315.814 59.3347 314.753 59.4551L313.818 59.5612L313.698 58.5013L323.087 57.4358L323.207 58.4956L322.252 58.604C321.112 58.7334 320.359 59.3217 319.995 60.3689C319.772 61.0131 319.785 62.4237 320.032 64.6006L323.747 97.341L323.031 97.4223L301.698 68.161L304.412 92.0789C304.683 94.4659 305.031 95.9351 305.457 96.4865C306.052 97.2313 306.873 97.5443 307.92 97.4254L308.875 97.317L308.996 98.3769L299.607 99.4424L299.486 98.3826L300.421 98.2765C301.575 98.1455 302.334 97.5565 302.699 96.5093C302.921 95.8651 302.909 94.4545 302.662 92.2776L299.596 65.266C298.664 64.0372 297.969 63.236 297.51 62.8626C297.065 62.4876 296.43 62.1631 295.607 61.8891C295.203 61.7609 294.609 61.7411 293.827 61.8299L293.707 60.7701ZM333.174 68.2735C335.932 67.9604 338.318 69.2177 340.331 72.0453C342.043 74.4622 343.088 77.3416 343.468 80.6834C343.734 83.0322 343.613 85.4541 343.103 87.949C342.594 90.4439 341.719 92.3807 340.479 93.7594C339.251 95.1366 337.796 95.9207 336.112 96.1119C333.367 96.4234 331.006 95.0955 329.031 92.1283C327.364 89.6289 326.343 86.7274 325.968 83.4238C325.695 81.0177 325.835 78.584 326.388 76.1228C326.953 73.6409 327.848 71.7599 329.072 70.4797C330.295 69.1805 331.662 68.445 333.174 68.2735ZM332.769 70.2053C332.066 70.2851 331.391 70.6711 330.744 71.3635C330.109 72.0352 329.657 73.1502 329.391 74.7085C329.125 76.2668 329.126 78.2299 329.395 80.5978C329.828 84.417 330.726 87.6517 332.088 90.3017C333.463 92.9503 335.012 94.1767 336.736 93.9811C338.023 93.8351 338.997 92.9508 339.659 91.3283C340.321 89.7058 340.441 87.0327 340.018 83.3089C339.489 78.6495 338.377 75.062 336.681 72.5466C335.531 70.8202 334.227 70.0398 332.769 70.2053ZM341.748 68.0838L350.321 67.1108L350.441 68.1707L349.884 68.2339C349.367 68.2926 348.99 68.5191 348.752 68.9136C348.528 69.3065 348.451 69.8085 348.52 70.4196C348.596 71.0879 348.825 71.8646 349.208 72.7496L355.09 86.7628L357.64 71.2414C357.824 70.1374 357.884 69.3086 357.821 68.7548C357.791 68.4874 357.713 68.2738 357.587 68.114C357.409 67.8441 357.202 67.6742 356.965 67.6043C356.727 67.5153 356.263 67.51 355.573 67.5882L355.453 66.5284L361.401 65.8534L361.521 66.9132C360.84 67.0679 360.385 67.3226 360.157 67.6773C359.758 68.3029 359.449 69.3051 359.229 70.684L355.319 93.932L354.504 94.0246L345.486 72.6208C345.077 71.6227 344.715 70.9191 344.4 70.51C344.083 70.0818 343.702 69.7382 343.256 69.4793C343.011 69.3331 342.548 69.2212 341.868 69.1436L341.748 68.0838ZM365.2 75.4318C365.629 79.3289 366.632 82.3098 368.209 84.3745C369.787 86.4391 371.471 87.3699 373.261 87.1667C374.454 87.0313 375.436 86.446 376.205 85.411C376.985 84.3553 377.543 82.6479 377.88 80.2886L378.562 80.7915C378.58 83.4393 378.042 85.9181 376.948 88.228C375.851 90.5188 374.295 91.7785 372.279 92.0073C370.091 92.2556 368.076 91.2464 366.233 88.9797C364.402 86.6924 363.252 83.4768 362.781 79.3329C362.272 74.8453 362.671 71.2604 363.979 68.5782C365.297 65.8754 367.163 64.3871 369.577 64.1131C371.619 63.8814 373.407 64.6649 374.941 66.4637C376.473 68.2434 377.423 70.7565 377.791 74.0028L365.2 75.4318ZM365.011 73.7704L373.445 72.8133C373.188 71.1403 372.915 69.9722 372.624 69.3088C372.172 68.277 371.579 67.4932 370.846 66.9574C370.127 66.4201 369.41 66.192 368.694 66.2733C367.593 66.3982 366.675 67.131 365.941 68.4716C365.218 69.7915 364.908 71.5578 365.011 73.7704ZM383.036 68.2722C384.146 66.2121 384.803 65.0253 385.01 64.7118C385.524 63.9184 386.103 63.2821 386.747 62.8028C387.391 62.3235 388.052 62.0455 388.728 61.9687C389.868 61.8393 390.904 62.2053 391.834 63.0668C392.765 63.9283 393.472 65.2503 393.957 67.0329C395.063 64.5863 396.046 62.9563 396.908 62.1429C397.767 61.3104 398.694 60.8377 399.688 60.7248C400.656 60.615 401.553 60.8807 402.378 61.5221C403.214 62.1429 403.943 63.24 404.565 64.8135C404.982 65.888 405.325 67.6092 405.594 69.9771L406.875 81.263C407.061 82.9052 407.275 84.0221 407.517 84.6136C407.697 85.0187 407.984 85.3537 408.376 85.6186C408.767 85.8644 409.367 85.9414 410.176 85.8496L410.293 86.8808L401.302 87.9012L401.185 86.87L401.563 86.8271C402.345 86.7383 402.93 86.4495 403.318 85.9606C403.588 85.6204 403.752 85.1086 403.808 84.4252C403.825 84.0946 403.746 83.1654 403.573 81.6377L402.292 70.3519C402.049 68.2131 401.699 66.7248 401.241 65.887C400.585 64.7236 399.687 64.2066 398.547 64.336C397.844 64.4157 397.164 64.7541 396.506 65.3509C395.86 65.9272 395.11 66.96 394.259 68.4493L394.255 68.7689L394.434 69.9961L395.855 82.5136C396.058 84.3087 396.251 85.4183 396.434 85.8424C396.63 86.2651 396.937 86.6073 397.356 86.8692C397.773 87.112 398.446 87.1808 399.374 87.0754L399.491 88.1066L390.282 89.1518L390.165 88.1206C391.172 88.0063 391.842 87.7561 392.175 87.3703C392.52 86.9829 392.727 86.4372 392.795 85.7332C392.824 85.401 392.75 84.452 392.573 82.8861L391.292 71.6003C391.049 69.4615 390.656 67.9491 390.112 67.063C389.39 65.9071 388.505 65.3886 387.457 65.5075C386.741 65.5887 386.063 65.9462 385.423 66.5797C384.418 67.5449 383.676 68.5864 383.199 69.7045L384.795 83.7688C384.99 85.4874 385.196 86.5955 385.414 87.0931C385.645 87.5891 385.935 87.9527 386.283 88.184C386.643 88.3946 387.32 88.4435 388.315 88.3306L388.432 89.3618L379.421 90.3844L379.304 89.3532C380.139 89.2584 380.708 89.0681 381.012 88.7822C381.313 88.4772 381.518 88.0381 381.628 87.4647C381.735 86.8723 381.697 85.7644 381.513 84.1413L380.375 74.1158C380.048 71.2323 379.777 69.3772 379.562 68.5505C379.398 67.9308 379.203 67.5177 378.978 67.3111C378.751 67.0855 378.465 66.9922 378.12 67.0313C377.749 67.0735 377.321 67.2671 376.836 67.6122L376.421 66.6149L381.547 62.7837L382.402 62.6866L383.036 68.2722ZM412.257 64.6659C413.619 60.933 415.322 58.9506 417.364 58.7188C419.234 58.5066 420.996 59.4768 422.651 61.6294C424.303 63.763 425.356 66.8253 425.809 70.8164C426.338 75.4758 425.69 79.3501 423.864 82.4393C422.298 85.0928 420.381 86.5482 418.114 86.8056C417.053 86.926 415.941 86.7717 414.777 86.3428C413.627 85.9125 412.419 85.2082 411.152 84.2301L408.067 57.0467C407.729 54.0677 407.468 52.2404 407.284 51.565C407.113 50.8881 406.908 50.4376 406.667 50.2134C406.427 49.9892 406.148 49.8952 405.829 49.9313C405.458 49.9734 405.011 50.1789 404.489 50.5476L404.097 49.5767L409.203 45.7477L410.098 45.6461L412.257 64.6659ZM412.465 66.4992L414.246 82.1962C415.031 83.0743 415.809 83.7209 416.582 84.1361C417.365 84.5308 418.135 84.6852 418.891 84.5994C420.098 84.4624 421.11 83.3805 421.928 81.3535C422.759 79.3249 422.967 76.487 422.553 72.8396C422.172 69.4787 421.355 66.9602 420.104 65.284C418.864 63.5873 417.58 62.8142 416.254 62.9647C415.551 63.0444 414.878 63.382 414.234 63.9773C413.746 64.4195 413.157 65.2601 412.465 66.4992ZM429.267 68.1609C429.696 72.058 430.699 75.0389 432.277 77.1035C433.854 79.1682 435.538 80.0989 437.329 79.8958C438.522 79.7603 439.503 79.1751 440.272 78.14C441.053 77.0844 441.611 75.3769 441.948 73.0177L442.629 73.5206C442.648 76.1683 442.11 78.6472 441.015 80.957C439.919 83.2478 438.362 84.5076 436.347 84.7363C434.159 84.9847 432.143 83.9755 430.301 81.7087C428.47 79.4214 427.319 76.2058 426.849 72.062C426.34 67.5744 426.739 63.9895 428.046 61.3073C429.365 58.6045 431.231 57.1161 433.644 56.8422C435.687 56.6104 437.475 57.394 439.009 59.1928C440.54 60.9725 441.49 63.4855 441.859 66.7319L429.267 68.1609ZM429.079 66.4995L437.513 65.5423C437.256 63.8694 436.982 62.7012 436.692 62.0378C436.239 61.0061 435.647 60.2223 434.914 59.6865C434.195 59.1491 433.477 58.9211 432.761 59.0024C431.661 59.1273 430.743 59.86 430.009 61.2006C429.285 62.5206 428.975 64.2869 429.079 66.4995ZM446.39 55.4247L447.06 61.3254C448.139 57.2185 449.48 55.074 451.085 54.8919C451.814 54.8092 452.454 55.0653 453.005 55.6604C453.554 56.2364 453.877 56.9445 453.972 57.7847C454.056 58.5295 453.956 59.1792 453.669 59.734C453.383 60.2887 453.001 60.5931 452.524 60.6473C452.06 60.7 451.499 60.4348 450.842 59.8517C450.196 59.2481 449.733 58.9621 449.455 58.9937C449.216 59.0208 448.979 59.2411 448.744 59.6546C448.236 60.5053 447.766 61.8642 447.333 63.7315L448.76 76.3064C448.925 77.7577 449.175 78.8414 449.512 79.5576C449.743 80.0536 450.097 80.4486 450.573 80.7427C451.05 81.0368 451.699 81.1371 452.521 81.0438L452.639 82.075L443.309 83.1338L443.192 82.1026C444.121 81.9972 444.786 81.7089 445.189 81.2376C445.486 80.8945 445.663 80.3812 445.72 79.6978C445.749 79.3656 445.677 78.4357 445.504 76.908L444.35 66.7393C444.003 63.6839 443.751 61.875 443.593 61.3127C443.446 60.7297 443.238 60.3181 442.969 60.0779C442.714 59.8361 442.413 59.7348 442.069 59.7739C441.657 59.8206 441.21 60.0165 440.725 60.3616L440.409 59.353L445.555 55.5195L446.39 55.4247ZM463.327 45.3789L469.368 40.0222L470.024 39.9477L473.747 72.7454C473.994 74.9223 474.207 76.2714 474.387 76.7925C474.581 77.3122 474.892 77.6926 475.323 77.9339C475.753 78.1752 476.58 78.2457 477.805 78.1455L477.925 79.2053L467.78 80.3566L467.66 79.2968C468.929 79.1141 469.734 78.868 470.074 78.5585C470.413 78.23 470.63 77.8282 470.723 77.3534C470.815 76.8594 470.729 75.4476 470.464 73.1178L468.085 52.1502C467.764 49.324 467.492 47.5174 467.268 46.7304C467.106 46.1299 466.883 45.7007 466.598 45.4428C466.327 45.1835 466.019 45.0734 465.674 45.1125C465.184 45.1682 464.534 45.5417 463.726 46.233L463.327 45.3789ZM490.845 50.3796L491.859 59.3166L491.202 59.3911C490.38 56.6412 489.513 54.8053 488.603 53.8835C487.706 52.9602 486.647 52.5678 485.427 52.7063C484.499 52.8116 483.789 53.2499 483.299 54.0212C482.809 54.7925 482.613 55.6078 482.711 56.4671C482.832 57.5365 483.148 58.429 483.659 59.1447C484.159 59.881 485.089 60.6169 486.448 61.3523L489.583 63.0565C492.49 64.6415 494.119 66.9808 494.47 70.0743C494.741 72.4614 494.33 74.4616 493.237 76.0749C492.155 77.6677 490.838 78.5522 489.287 78.7282C488.173 78.8547 486.867 78.7127 485.37 78.3023C484.911 78.1611 484.542 78.1062 484.263 78.1378C483.958 78.1724 483.748 78.4478 483.632 78.9638L482.975 79.0383L481.912 69.6717L482.569 69.5972C483.243 72.2285 484.182 74.1626 485.383 75.3995C486.585 76.6365 487.835 77.1812 489.135 77.0337C490.05 76.9299 490.749 76.4637 491.233 75.6351C491.727 74.7859 491.913 73.8171 491.789 72.7286C491.64 71.411 491.189 70.3403 490.437 69.5165C489.699 68.6912 488.29 67.7002 486.212 66.5435C484.133 65.3868 482.732 64.2886 482.009 63.2487C481.289 62.228 480.835 60.8869 480.646 59.2255C480.401 57.0677 480.707 55.2051 481.563 53.6379C482.433 52.0692 483.684 51.1923 485.315 51.0072C486.031 50.926 486.924 51.047 487.995 51.3703C488.704 51.58 489.171 51.672 489.397 51.6465C489.609 51.6224 489.767 51.5367 489.871 51.3895C489.975 51.2423 490.081 50.9305 490.188 50.4541L490.845 50.3796ZM497.306 41.6967L498.284 50.3187L502.541 49.8356L502.769 51.8407L498.512 52.3238L500.443 69.3384C500.636 71.038 500.932 72.165 501.33 72.7193C501.742 73.2722 502.214 73.5185 502.744 73.4583C503.182 73.4086 503.584 73.1695 503.952 72.7409C504.318 72.2933 504.57 71.6747 504.709 70.8853L505.484 70.7972C505.233 72.7213 504.737 74.2089 503.996 75.2601C503.254 76.2921 502.431 76.8593 501.53 76.9616C500.92 77.0309 500.296 76.8599 499.658 76.4487C499.018 76.0184 498.508 75.3703 498.128 74.5044C497.745 73.6194 497.447 72.2316 497.232 70.3411L495.23 52.6962L492.346 53.0236L492.238 52.0783C492.92 51.5754 493.582 50.7846 494.226 49.7058C494.88 48.6064 495.427 47.3354 495.868 45.8928C496.091 45.1325 496.364 43.7571 496.689 41.7667L497.306 41.6967Z" fill="#3A2F2F"/>
</svg>
