<svg width="192" height="40" viewBox="0 0 192 40" fill="none" xmlns="http://www.w3.org/2000/svg">
<path d="M190.99 20.239C190.99 21.4796 190.378 22.7246 189.141 23.9642C187.903 25.2046 186.06 26.4162 183.659 27.5799C178.858 29.9067 171.89 32.0106 163.255 33.7807C145.99 37.3198 122.124 39.5111 95.753 39.5111C69.3817 39.5111 45.5159 37.3198 28.2508 33.7807C19.6157 32.0106 12.6483 29.9067 7.8473 27.5799C5.44612 26.4162 3.60336 25.2046 2.36507 23.9642C1.12764 22.7246 0.515744 21.4796 0.515744 20.239C0.515744 18.9984 1.12764 17.7534 2.36507 16.5138C3.60336 15.2734 5.44612 14.0618 7.8473 12.8981C12.6483 10.5713 19.6157 8.46738 28.2508 6.69731C45.5159 3.15823 69.3817 0.966916 95.753 0.966916C122.124 0.966916 145.99 3.15823 163.255 6.69731C171.89 8.46738 178.858 10.5713 183.659 12.8981C186.06 14.0618 187.903 15.2734 189.141 16.5138C190.378 17.7534 190.99 18.9984 190.99 20.239Z" fill="#FF9ACF" stroke="black" stroke-width="0.629145"/>
<path d="M22.3623 12.4239C23.6616 12.4239 24.7861 13.1361 25.7359 14.5605C26.6907 15.9779 27.168 17.7495 27.168 19.8756C27.168 22.0654 26.6882 23.8831 25.7285 25.3288C24.7689 26.7745 23.6074 27.4973 22.2442 27.4973C20.8663 27.4973 19.7073 26.7922 18.7673 25.382C17.8322 23.9717 17.3647 22.1469 17.3647 19.9074C17.3647 17.6184 17.9061 15.7511 18.9888 14.3054C19.9287 13.051 21.0533 12.4239 22.3623 12.4239ZM22.2221 13.1998C21.3264 13.1998 20.6079 13.6782 20.0665 14.6349C19.3923 15.8255 19.0552 17.5688 19.0552 19.8649C19.0552 22.2177 19.4046 24.0284 20.1034 25.2969C20.6399 26.2607 21.3485 26.7426 22.2295 26.7426C23.1694 26.7426 23.9446 26.2146 24.5548 25.1587C25.17 24.1028 25.4776 22.4374 25.4776 20.1626C25.4776 17.6964 25.1404 15.8574 24.4662 14.6455C23.9249 13.6817 23.1768 13.1998 22.2221 13.1998ZM33.2183 23.4685C33.0363 24.7512 32.6795 25.7398 32.148 26.4343C31.6164 27.1217 31.0283 27.4655 30.3837 27.4655C29.6159 27.4655 28.9466 27.0013 28.3757 26.0729C27.8049 25.1445 27.5194 23.8902 27.5194 22.3099C27.5194 20.7791 27.8344 19.5354 28.4643 18.5787C29.0992 17.622 29.8595 17.1436 30.7454 17.1436C31.4098 17.1436 31.956 17.3987 32.3842 17.909C32.8123 18.4121 33.0264 18.9366 33.0264 19.4822C33.0264 19.7515 32.9649 19.9712 32.8419 20.1413C32.7238 20.3043 32.5564 20.3858 32.3399 20.3858C32.0495 20.3858 31.8305 20.2512 31.6829 19.9819C31.5992 19.833 31.5426 19.5496 31.5131 19.1314C31.4885 18.7133 31.3901 18.3944 31.2178 18.1747C31.0456 17.9621 30.8069 17.8558 30.5018 17.8558C30.0096 17.8558 29.6135 18.118 29.3133 18.6425C28.9146 19.337 28.7153 20.2547 28.7153 21.3957C28.7153 22.5579 28.9122 23.5855 29.3059 24.4784C29.7045 25.3642 30.2409 25.8072 30.9152 25.8072C31.3974 25.8072 31.8305 25.5698 32.2144 25.0949C32.4851 24.769 32.7484 24.1772 33.0043 23.3197L33.2183 23.4685ZM35.4005 14.231L35.4005 17.4306H36.9802L36.9802 18.1747H35.4005L35.4005 24.489C35.4005 25.1197 35.462 25.5449 35.585 25.7646C35.713 25.9843 35.8754 26.0942 36.0722 26.0942C36.2346 26.0942 36.3921 26.0233 36.5447 25.8816C36.6972 25.7327 36.8154 25.5166 36.899 25.2331H37.1869C37.0147 25.9276 36.7711 26.4521 36.4561 26.8064C36.1411 27.1536 35.8163 27.3273 35.4817 27.3273C35.2553 27.3273 35.0338 27.2387 34.8173 27.0615C34.6008 26.8773 34.4408 26.6186 34.3375 26.2855C34.2341 25.9454 34.1824 25.4245 34.1824 24.7229L34.1824 18.1747H33.112L33.112 17.8239C33.3827 17.668 33.6583 17.4058 33.9388 17.0373C34.2243 16.6617 34.4777 16.2188 34.6992 15.7086C34.8124 15.4393 34.9699 14.9467 35.1716 14.231H35.4005ZM40.1958 17.1436C41.2195 17.1436 42.0413 17.7035 42.6614 18.8232C43.188 19.7799 43.4513 20.8783 43.4513 22.1185C43.4513 22.9902 43.3061 23.8725 43.0158 24.7654C42.7254 25.6583 42.3243 26.3316 41.8125 26.7851C41.3056 27.2387 40.7396 27.4655 40.1146 27.4655C39.0959 27.4655 38.2864 26.8808 37.6859 25.7115C37.179 24.7264 36.9256 23.6209 36.9256 22.3949C36.9256 21.502 37.0782 20.6161 37.3833 19.7374C37.6933 18.8515 38.0993 18.1995 38.6013 17.7814C39.1033 17.3562 39.6348 17.1436 40.1958 17.1436ZM39.967 17.8346C39.7062 17.8346 39.4429 17.948 39.1771 18.1747C38.9163 18.3944 38.7047 18.7842 38.5423 19.3441C38.3799 19.9039 38.2987 20.6232 38.2987 21.502C38.2987 22.9193 38.493 24.1418 38.8818 25.1694C39.2755 26.1969 39.7923 26.7107 40.4321 26.7107C40.9094 26.7107 41.3031 26.4272 41.6132 25.8603C41.9232 25.2934 42.0782 24.3189 42.0782 22.937C42.0782 21.2079 41.8199 19.8472 41.3031 18.8551C40.9537 18.1747 40.5083 17.8346 39.967 17.8346ZM45.5448 19.1102C46.1994 17.7991 46.9056 17.1436 47.6635 17.1436C48.3574 17.1436 48.9627 17.5724 49.4795 18.4299C49.9962 19.2803 50.2546 20.446 50.2546 21.9272C50.2546 23.6563 49.8559 25.0489 49.0587 26.1048C48.3746 27.0119 47.6118 27.4655 46.7703 27.4655C46.3766 27.4655 45.9755 27.3627 45.567 27.1572C45.1634 26.9517 44.75 26.6434 44.3268 26.2324L44.3268 16.1444C44.3268 15.0389 44.3071 14.3585 44.2678 14.1034C44.2333 13.8483 44.1767 13.6747 44.098 13.5825C44.0192 13.4904 43.9208 13.4443 43.8027 13.4443C43.6649 13.4443 43.4926 13.501 43.2859 13.6144L43.1826 13.2424L45.2127 12.0518H45.5448L45.5448 19.1102ZM45.5448 19.7905L45.5448 25.6158C45.7958 25.9702 46.0542 26.2395 46.32 26.4237C46.5906 26.6009 46.8662 26.6895 47.1467 26.6895C47.5946 26.6895 48.0104 26.3351 48.3943 25.6264C48.7831 24.9178 48.9775 23.8867 48.9775 22.5331C48.9775 21.2858 48.7831 20.3291 48.3943 19.663C48.0104 18.9897 47.5724 18.6531 47.0803 18.6531C46.8195 18.6531 46.5586 18.7488 46.2978 18.9401C46.101 19.0818 45.85 19.3653 45.5448 19.7905ZM51.6321 21.098C51.6271 22.5437 51.8707 23.6776 52.3629 24.4997C52.855 25.3217 53.4333 25.7327 54.0977 25.7327C54.5406 25.7327 54.9244 25.5591 55.2493 25.2119C55.579 24.8575 55.8546 24.2552 56.076 23.4048L56.3049 23.6174C56.2015 24.5882 55.9013 25.4741 55.4043 26.2749C54.9072 27.0686 54.2847 27.4655 53.5366 27.4655C52.7246 27.4655 52.0282 27.0119 51.4475 26.1048C50.8717 25.1906 50.5838 23.9646 50.5838 22.4268C50.5838 20.7614 50.8791 19.4645 51.4697 18.5362C52.0651 17.6007 52.8107 17.133 53.7064 17.133C54.4643 17.133 55.0868 17.4944 55.5741 18.2173C56.0613 18.933 56.3049 19.8933 56.3049 21.098H51.6321ZM51.6321 20.4815H54.762C54.7374 19.8578 54.6858 19.4185 54.607 19.1633C54.484 18.7665 54.2994 18.4547 54.0534 18.2279C53.8122 18.0011 53.5588 17.8877 53.293 17.8877C52.8845 17.8877 52.5179 18.118 52.1931 18.5787C51.8732 19.0322 51.6862 19.6665 51.6321 20.4815ZM58.4353 17.1436L58.4353 19.3334C59.0013 17.8736 59.582 17.1436 60.1775 17.1436C60.4482 17.1436 60.6721 17.2641 60.8493 17.505C61.0264 17.7389 61.115 18.0117 61.115 18.3236C61.115 18.5999 61.051 18.8338 60.9231 19.0251C60.7951 19.2165 60.6426 19.3122 60.4654 19.3122C60.2931 19.3122 60.0987 19.1917 59.8822 18.9507C59.6706 18.7027 59.5131 18.5787 59.4098 18.5787C59.3212 18.5787 59.2252 18.6496 59.1219 18.7913C58.9004 19.0818 58.6716 19.5602 58.4353 20.2264L58.4353 24.893C58.4353 25.4316 58.4821 25.839 58.5756 26.1154C58.6396 26.3068 58.7528 26.4662 58.9152 26.5938C59.0776 26.7213 59.3113 26.7851 59.6165 26.7851L59.6165 27.1678H56.1543L56.1543 26.7851C56.4988 26.7851 56.7547 26.7072 56.922 26.5513C57.0451 26.4379 57.1312 26.2572 57.1804 26.0091C57.205 25.8887 57.2173 25.5449 57.2173 24.978L57.2173 21.2043C57.2173 20.0704 57.2001 19.3972 57.1656 19.1846C57.1361 18.9649 57.077 18.8055 56.9885 18.7062C56.9048 18.607 56.799 18.5574 56.671 18.5574C56.5185 18.5574 56.3462 18.6106 56.1543 18.7169L56.0805 18.3342L58.1253 17.1436H58.4353ZM70.2185 24.3934L69.5172 27.1678H63.6116L63.6116 26.7745C65.3488 24.4926 66.5718 22.6288 67.2805 21.1831C67.9891 19.7374 68.3435 18.4157 68.3435 17.218C68.3435 16.3038 68.1491 15.5526 67.7603 14.9644C67.3715 14.3762 66.9064 14.0821 66.3651 14.0821C65.873 14.0821 65.43 14.2912 65.0363 14.7093C64.6475 15.1204 64.3597 15.7263 64.1726 16.5271H63.8995C64.0225 15.216 64.3375 14.2097 64.8444 13.5081C65.3562 12.8065 65.9935 12.4557 66.7563 12.4557C67.5684 12.4557 68.2451 12.8313 68.7864 13.5825C69.3327 14.3337 69.6058 15.2196 69.6058 16.2401C69.6058 16.97 69.4877 17.6999 69.2515 18.4299C68.8873 19.5779 68.2967 20.7933 67.4798 22.076C66.2544 24.0036 65.4891 25.1658 65.184 25.5627H67.7972C68.3287 25.5627 68.7003 25.5343 68.9119 25.4776C69.1284 25.4209 69.3228 25.3075 69.4951 25.1375C69.6673 24.9603 69.8174 24.7123 69.9454 24.3934H70.2185ZM72.9912 19.9074C72.1989 18.972 71.687 18.2208 71.4557 17.6539C71.2294 17.0869 71.1162 16.4987 71.1162 15.8893C71.1162 14.9538 71.3672 14.1495 71.8691 13.4762C72.3711 12.7959 73.038 12.4557 73.8697 12.4557C74.6768 12.4557 75.3264 12.7711 75.8185 13.4018C76.3106 14.0325 76.5567 14.7518 76.5567 15.5597C76.5567 16.0983 76.4238 16.6475 76.1581 17.2074C75.8923 17.7673 75.3387 18.4263 74.4971 19.1846C75.3633 20.1484 75.9366 20.9067 76.2171 21.4594C76.5912 22.1823 76.7782 22.9441 76.7782 23.7449C76.7782 24.7583 76.51 25.6264 75.9735 26.3493C75.4371 27.0651 74.7334 27.4229 73.8623 27.4229C72.9125 27.4229 72.1718 26.9942 71.6403 26.1367C71.2171 25.4493 71.0054 24.6981 71.0054 23.8831C71.0054 23.2453 71.1531 22.6146 71.4484 21.9909C71.7486 21.3602 72.2628 20.6657 72.9912 19.9074ZM74.1502 18.77C74.7407 18.0047 75.1148 17.4023 75.2722 16.9629C75.4297 16.5164 75.5085 16.0133 75.5085 15.4534C75.5085 14.7093 75.3633 14.1282 75.0729 13.7101C74.7826 13.2849 74.3864 13.0723 73.8844 13.0723C73.3824 13.0723 72.974 13.2813 72.659 13.6995C72.344 14.1176 72.1866 14.6066 72.1866 15.1664C72.1866 15.5349 72.2505 15.9034 72.3785 16.272C72.5114 16.6405 72.6984 16.9913 72.9395 17.3243L74.1502 18.77ZM73.3382 20.3114C72.9297 20.8075 72.627 21.3496 72.4302 21.9378C72.2333 22.5189 72.1349 23.1496 72.1349 23.83C72.1349 24.7441 72.3071 25.4776 72.6516 26.0304C73.001 26.5761 73.444 26.8489 73.9804 26.8489C74.5119 26.8489 74.9376 26.6328 75.2575 26.2005C75.5774 25.7682 75.7373 25.2438 75.7373 24.6272C75.7373 24.117 75.6438 23.6599 75.4568 23.2559C75.1074 22.5047 74.4012 21.5232 73.3382 20.3114ZM79.3294 14.231L79.3294 17.4306H80.9092L80.9092 18.1747H79.3294L79.3294 24.489C79.3294 25.1197 79.3909 25.5449 79.514 25.7646C79.6419 25.9843 79.8043 26.0942 80.0012 26.0942C80.1636 26.0942 80.3211 26.0233 80.4736 25.8816C80.6262 25.7327 80.7443 25.5166 80.828 25.2331H81.1159C80.9436 25.9276 80.7 26.4521 80.385 26.8064C80.0701 27.1536 79.7453 27.3273 79.4106 27.3273C79.1842 27.3273 78.9628 27.2387 78.7462 27.0615C78.5297 26.8773 78.3697 26.6186 78.2664 26.2855C78.163 25.9454 78.1114 25.4245 78.1114 24.7229L78.1114 18.1747H77.041L77.041 17.8239C77.3117 17.668 77.5872 17.4058 77.8678 17.0373C78.1532 16.6617 78.4067 16.2188 78.6281 15.7086C78.7413 15.4393 78.8988 14.9467 79.1006 14.231H79.3294ZM82.8034 12.0518L82.8034 19.174C83.3497 18.3094 83.7827 17.7566 84.1026 17.5157C84.4225 17.2676 84.7424 17.1436 85.0623 17.1436C85.4461 17.1436 85.7759 17.296 86.0515 17.6007C86.3271 17.9054 86.5313 18.3838 86.6642 19.0358C86.7577 19.4893 86.8044 20.3185 86.8044 21.5232L86.8044 24.9674C86.8044 25.5839 86.8389 26.0056 86.9078 26.2324C86.957 26.4024 87.0407 26.5371 87.1588 26.6363C87.2769 26.7355 87.4934 26.7851 87.8084 26.7851L87.8084 27.1678H84.4865L84.4865 26.7851H84.6415C84.9565 26.7851 85.1755 26.7178 85.2985 26.5832C85.4215 26.4414 85.5077 26.2359 85.5569 25.9666C85.5716 25.8532 85.579 25.5201 85.579 24.9674L85.579 21.5232C85.579 20.4602 85.5397 19.7622 85.4609 19.4291C85.3871 19.096 85.2665 18.848 85.0992 18.685C84.9319 18.5149 84.7301 18.4299 84.4939 18.4299C84.2527 18.4299 84.0017 18.522 83.7409 18.7062C83.4801 18.8905 83.1676 19.2626 82.8034 19.8224L82.8034 24.9674C82.8034 25.6335 82.828 26.0481 82.8772 26.2111C82.9313 26.3741 83.0273 26.5123 83.1651 26.6257C83.3078 26.732 83.5514 26.7851 83.8959 26.7851L83.8959 27.1678H80.5445L80.5445 26.7851C80.8447 26.7851 81.0809 26.7178 81.2532 26.5832C81.3516 26.5123 81.4303 26.3776 81.4894 26.1792C81.5484 25.9808 81.578 25.5768 81.578 24.9674L81.578 16.155C81.578 15.0424 81.5583 14.3585 81.5189 14.1034C81.4845 13.8483 81.4279 13.6747 81.3491 13.5825C81.2753 13.4904 81.1744 13.4443 81.0465 13.4443C80.9431 13.4443 80.7758 13.501 80.5445 13.6144L80.4411 13.2424L82.4638 12.0518H82.8034ZM90.7848 21.4807H94.6013L94.6013 23.0859H90.7848L90.7848 21.4807ZM97.2751 12.7534H99.9917L106.111 23.5642L106.111 15.2515C106.111 14.3656 106.042 13.8129 105.905 13.5932C105.723 13.2955 105.435 13.1467 105.041 13.1467H104.694L104.694 12.7534H108.178L108.178 13.1467H107.824C107.401 13.1467 107.101 13.331 106.923 13.6995C106.815 13.9262 106.761 14.4436 106.761 15.2515L106.761 27.4017H106.495L99.8957 15.7936L99.8957 24.6697C99.8957 25.5556 99.9622 26.1083 100.095 26.328C100.282 26.6257 100.57 26.7745 100.959 26.7745H101.313L101.313 27.1678H97.8287L97.8287 26.7745H98.1757C98.6039 26.7745 98.9065 26.5902 99.0837 26.2217C99.192 25.995 99.2461 25.4776 99.2461 24.6697L99.2461 14.6455C98.9557 14.1566 98.7343 13.8341 98.5817 13.6782C98.4341 13.5223 98.2151 13.377 97.9247 13.2424C97.782 13.1786 97.5655 13.1467 97.2751 13.1467L97.2751 12.7534ZM111.423 17.1436C112.447 17.1436 113.269 17.7035 113.889 18.8232C114.416 19.7799 114.679 20.8783 114.679 22.1185C114.679 22.9902 114.534 23.8725 114.243 24.7654C113.953 25.6583 113.552 26.3316 113.04 26.7851C112.533 27.2387 111.967 27.4655 111.342 27.4655C110.324 27.4655 109.514 26.8808 108.914 25.7115C108.407 24.7264 108.153 23.6209 108.153 22.3949C108.153 21.502 108.306 20.6161 108.611 19.7374C108.921 18.8515 109.327 18.1995 109.829 17.7814C110.331 17.3562 110.862 17.1436 111.423 17.1436ZM111.195 17.8346C110.934 17.8346 110.671 17.948 110.405 18.1747C110.144 18.3944 109.932 18.7842 109.77 19.3441C109.608 19.9039 109.526 20.6232 109.526 21.502C109.526 22.9193 109.721 24.1418 110.109 25.1694C110.503 26.1969 111.02 26.7107 111.66 26.7107C112.137 26.7107 112.531 26.4272 112.841 25.8603C113.151 25.2934 113.306 24.3189 113.306 22.937C113.306 21.2079 113.048 19.8472 112.531 18.8551C112.181 18.1747 111.736 17.8346 111.195 17.8346ZM114.573 17.4306H117.754L117.754 17.8239H117.548C117.356 17.8239 117.208 17.8913 117.105 18.0259C117.006 18.1606 116.957 18.3413 116.957 18.5681C116.957 18.8161 117.009 19.1102 117.112 19.4504L118.684 24.8292L120.264 19.2484C120.377 18.8515 120.434 18.5503 120.434 18.3448C120.434 18.2456 120.414 18.1641 120.375 18.1003C120.321 17.994 120.252 17.9232 120.168 17.8877C120.085 17.8452 119.915 17.8239 119.659 17.8239L119.659 17.4306H121.866L121.866 17.8239C121.61 17.8523 121.433 17.9267 121.335 18.0472C121.162 18.2598 121.007 18.6141 120.87 19.1102L118.47 27.4655H118.168L115.754 19.2484C115.645 18.8657 115.542 18.5929 115.444 18.4299C115.345 18.2598 115.22 18.118 115.067 18.0047C114.984 17.9409 114.819 17.8806 114.573 17.8239L114.573 17.4306ZM122.86 21.098C122.855 22.5437 123.098 23.6776 123.591 24.4997C124.083 25.3217 124.661 25.7327 125.325 25.7327C125.768 25.7327 126.152 25.5591 126.477 25.2119C126.807 24.8575 127.082 24.2552 127.304 23.4048L127.533 23.6174C127.429 24.5882 127.129 25.4741 126.632 26.2749C126.135 27.0686 125.512 27.4655 124.764 27.4655C123.952 27.4655 123.256 27.0119 122.675 26.1048C122.099 25.1906 121.811 23.9646 121.811 22.4268C121.811 20.7614 122.107 19.4645 122.697 18.5362C123.293 17.6007 124.038 17.133 124.934 17.133C125.692 17.133 126.314 17.4944 126.802 18.2173C127.289 18.933 127.533 19.8933 127.533 21.098H122.86ZM122.86 20.4815H125.99C125.965 19.8578 125.913 19.4185 125.835 19.1633C125.712 18.7665 125.527 18.4547 125.281 18.2279C125.04 18.0011 124.786 17.8877 124.521 17.8877C124.112 17.8877 123.746 18.118 123.421 18.5787C123.101 19.0322 122.914 19.6665 122.86 20.4815ZM129.693 19.2165C130.185 18.5078 130.475 18.1003 130.564 17.994C130.785 17.7247 131.024 17.5157 131.28 17.3669C131.536 17.218 131.789 17.1436 132.04 17.1436C132.463 17.1436 132.827 17.3208 133.133 17.6751C133.438 18.0295 133.642 18.5433 133.745 19.2165C134.252 18.3661 134.68 17.8098 135.03 17.5476C135.379 17.2783 135.738 17.1436 136.107 17.1436C136.467 17.1436 136.784 17.2783 137.06 17.5476C137.34 17.8098 137.562 18.2421 137.724 18.8444C137.832 19.2555 137.887 19.9004 137.887 20.7791L137.887 24.9674C137.887 25.5768 137.919 25.995 137.983 26.2217C138.032 26.3776 138.123 26.5123 138.256 26.6257C138.389 26.732 138.605 26.7851 138.905 26.7851L138.905 27.1678H135.569L135.569 26.7851H135.709C135.999 26.7851 136.226 26.7036 136.388 26.5406C136.501 26.4272 136.582 26.2465 136.632 25.9985C136.651 25.878 136.661 25.5343 136.661 24.9674L136.661 20.7791C136.661 19.9854 136.595 19.4255 136.462 19.0996C136.27 18.646 135.962 18.4192 135.539 18.4192C135.278 18.4192 135.015 18.5149 134.749 18.7062C134.488 18.8905 134.171 19.2378 133.797 19.748L133.782 19.8649L133.797 20.322L133.797 24.9674C133.797 25.6335 133.822 26.0481 133.871 26.2111C133.925 26.3741 134.023 26.5123 134.166 26.6257C134.309 26.732 134.552 26.7851 134.897 26.7851L134.897 27.1678H131.479L131.479 26.7851C131.853 26.7851 132.109 26.7213 132.247 26.5938C132.389 26.4662 132.488 26.2749 132.542 26.0198C132.567 25.8993 132.579 25.5485 132.579 24.9674L132.579 20.7791C132.579 19.9854 132.498 19.4149 132.335 19.0677C132.119 18.6141 131.816 18.3873 131.427 18.3873C131.162 18.3873 130.898 18.4901 130.637 18.6956C130.229 19.0074 129.914 19.3582 129.693 19.748L129.693 24.9674C129.693 25.6052 129.722 26.0198 129.781 26.2111C129.845 26.4024 129.936 26.5477 130.054 26.6469C130.177 26.7391 130.423 26.7851 130.792 26.7851L130.792 27.1678H127.448L127.448 26.7851C127.758 26.7851 127.975 26.7391 128.098 26.6469C128.221 26.5477 128.315 26.3954 128.379 26.1898C128.442 25.9772 128.474 25.5698 128.474 24.9674L128.474 21.2468C128.474 20.1767 128.452 19.4858 128.408 19.174C128.374 18.9401 128.319 18.7807 128.246 18.6956C128.172 18.6035 128.071 18.5574 127.943 18.5574C127.805 18.5574 127.64 18.6106 127.448 18.7169L127.338 18.3342L129.375 17.1436H129.693L129.693 19.2165ZM140.549 19.1102C141.203 17.7991 141.909 17.1436 142.667 17.1436C143.361 17.1436 143.966 17.5724 144.483 18.4299C145 19.2803 145.258 20.446 145.258 21.9272C145.258 23.6563 144.86 25.0489 144.062 26.1048C143.378 27.0119 142.615 27.4655 141.774 27.4655C141.38 27.4655 140.979 27.3627 140.571 27.1572C140.167 26.9517 139.754 26.6434 139.33 26.2324L139.33 16.1444C139.33 15.0389 139.311 14.3585 139.271 14.1034C139.237 13.8483 139.18 13.6747 139.102 13.5825C139.023 13.4904 138.924 13.4443 138.806 13.4443C138.669 13.4443 138.496 13.501 138.29 13.6144L138.186 13.2424L140.216 12.0518H140.549L140.549 19.1102ZM140.549 19.7905L140.549 25.6158C140.799 25.9702 141.058 26.2395 141.324 26.4237C141.594 26.6009 141.87 26.6895 142.15 26.6895C142.598 26.6895 143.014 26.3351 143.398 25.6264C143.787 24.9178 143.981 23.8867 143.981 22.5331C143.981 21.2858 143.787 20.3291 143.398 19.663C143.014 18.9897 142.576 18.6531 142.084 18.6531C141.823 18.6531 141.562 18.7488 141.301 18.9401C141.105 19.0818 140.854 19.3653 140.549 19.7905ZM146.636 21.098C146.631 22.5437 146.874 23.6776 147.367 24.4997C147.859 25.3217 148.437 25.7327 149.101 25.7327C149.544 25.7327 149.928 25.5591 150.253 25.2119C150.583 24.8575 150.858 24.2552 151.08 23.4048L151.309 23.6174C151.205 24.5882 150.905 25.4741 150.408 26.2749C149.911 27.0686 149.288 27.4655 148.54 27.4655C147.728 27.4655 147.032 27.0119 146.451 26.1048C145.875 25.1906 145.587 23.9646 145.587 22.4268C145.587 20.7614 145.883 19.4645 146.473 18.5362C147.069 17.6007 147.814 17.133 148.71 17.133C149.468 17.133 150.09 17.4944 150.578 18.2173C151.065 18.933 151.309 19.8933 151.309 21.098H146.636ZM146.636 20.4815H149.766C149.741 19.8578 149.689 19.4185 149.611 19.1633C149.488 18.7665 149.303 18.4547 149.057 18.2279C148.816 18.0011 148.562 17.8877 148.297 17.8877C147.888 17.8877 147.522 18.118 147.197 18.5787C146.877 19.0322 146.69 19.6665 146.636 20.4815ZM153.439 17.1436L153.439 19.3334C154.005 17.8736 154.586 17.1436 155.181 17.1436C155.452 17.1436 155.676 17.2641 155.853 17.505C156.03 17.7389 156.119 18.0117 156.119 18.3236C156.119 18.5999 156.055 18.8338 155.927 19.0251C155.799 19.2165 155.646 19.3122 155.469 19.3122C155.297 19.3122 155.102 19.1917 154.886 18.9507C154.674 18.7027 154.517 18.5787 154.413 18.5787C154.325 18.5787 154.229 18.6496 154.126 18.7913C153.904 19.0818 153.675 19.5602 153.439 20.2264L153.439 24.893C153.439 25.4316 153.486 25.839 153.579 26.1154C153.643 26.3068 153.756 26.4662 153.919 26.5938C154.081 26.7213 154.315 26.7851 154.62 26.7851L154.62 27.1678H151.158L151.158 26.7851C151.502 26.7851 151.758 26.7072 151.926 26.5513C152.049 26.4379 152.135 26.2572 152.184 26.0091C152.209 25.8887 152.221 25.5449 152.221 24.978L152.221 21.2043C152.221 20.0704 152.204 19.3972 152.169 19.1846C152.14 18.9649 152.081 18.8055 151.992 18.7062C151.908 18.607 151.803 18.5574 151.675 18.5574C151.522 18.5574 151.35 18.6106 151.158 18.7169L151.084 18.3342L153.129 17.1436H153.439ZM160.062 14.1672L162.498 12.4557H162.742L162.742 24.6272C162.742 25.4351 162.764 25.9383 162.808 26.1367C162.857 26.3351 162.956 26.4875 163.104 26.5938C163.251 26.7001 163.551 26.7603 164.004 26.7745L164.004 27.1678H160.239L160.239 26.7745C160.712 26.7603 161.017 26.7036 161.155 26.6044C161.292 26.4981 161.388 26.3599 161.443 26.1898C161.497 26.0127 161.524 25.4918 161.524 24.6272L161.524 16.846C161.524 15.7971 161.499 15.1239 161.45 14.8263C161.415 14.5995 161.352 14.4329 161.258 14.3266C161.169 14.2203 161.061 14.1672 160.933 14.1672C160.751 14.1672 160.498 14.277 160.173 14.4967L160.062 14.1672ZM169.936 17.1436L169.936 20.4602H169.693C169.506 19.4185 169.265 18.7098 168.969 18.3342C168.679 17.9586 168.307 17.7708 167.855 17.7708C167.51 17.7708 167.232 17.9019 167.02 18.1641C166.809 18.4263 166.703 18.7169 166.703 19.0358C166.703 19.4326 166.782 19.7728 166.939 20.0563C167.092 20.3468 167.402 20.6551 167.869 20.9811L168.947 21.7358C169.946 22.4374 170.446 23.3622 170.446 24.5103C170.446 25.3961 170.212 26.1119 169.744 26.6576C169.282 27.1962 168.763 27.4655 168.187 27.4655C167.773 27.4655 167.301 27.3592 166.769 27.1466C166.607 27.0757 166.474 27.0403 166.371 27.0403C166.258 27.0403 166.169 27.1324 166.105 27.3166H165.861L165.861 23.8406H166.105C166.243 24.8327 166.506 25.5804 166.895 26.0835C167.284 26.5867 167.719 26.8383 168.202 26.8383C168.541 26.8383 168.817 26.6965 169.028 26.4131C169.245 26.1225 169.353 25.7753 169.353 25.3713C169.353 24.8823 169.233 24.4713 168.991 24.1382C168.755 23.8052 168.28 23.3835 167.567 22.8732C166.853 22.363 166.386 21.9024 166.164 21.4913C165.943 21.0874 165.832 20.5771 165.832 19.9606C165.832 19.1598 166.021 18.4901 166.4 17.9515C166.784 17.4129 167.279 17.1436 167.884 17.1436C168.15 17.1436 168.472 17.2251 168.851 17.3881C169.102 17.4944 169.269 17.5476 169.353 17.5476C169.432 17.5476 169.493 17.5228 169.538 17.4732C169.582 17.4235 169.634 17.3137 169.693 17.1436H169.936ZM172.665 14.231L172.665 17.4306H174.244L174.244 18.1747H172.665L172.665 24.489C172.665 25.1197 172.726 25.5449 172.849 25.7646C172.977 25.9843 173.14 26.0942 173.336 26.0942C173.499 26.0942 173.656 26.0233 173.809 25.8816C173.962 25.7327 174.08 25.5166 174.163 25.2331H174.451C174.279 25.9276 174.035 26.4521 173.72 26.8064C173.405 27.1536 173.081 27.3273 172.746 27.3273C172.52 27.3273 172.298 27.2387 172.082 27.0615C171.865 26.8773 171.705 26.6186 171.602 26.2855C171.498 25.9454 171.447 25.4245 171.447 24.7229L171.447 18.1747H170.376L170.376 17.8239C170.647 17.668 170.923 17.4058 171.203 17.0373C171.489 16.6617 171.742 16.2188 171.963 15.7086C172.077 15.4393 172.234 14.9467 172.436 14.231H172.665Z" fill="#3A2F2F"/>
</svg>
