<svg width="350" height="155" viewBox="0 0 350 155" fill="none" xmlns="http://www.w3.org/2000/svg">
<g clip-path="url(#clip0_12956_8366)">
<path fill-rule="evenodd" clip-rule="evenodd" d="M77.8339 25.4255C77.7882 24.5347 77.6776 23.6871 77.4997 22.8805L77.1848 21.7055C76.7834 20.4415 76.2064 19.293 75.4468 18.2576C74.7064 17.2488 64.908 6.57031 64.908 6.57031L61.8118 12.5488C59.3189 12.2936 56.4294 12.1636 53.1385 12.1636H28.5681L0.961565 94.1456L0 95.1737L12.3176 106.647H36.2991L36.4193 106.127L43.0805 68.2862H49.6288C54.9606 68.2862 59.4055 67.5518 62.9681 66.0807C66.5307 64.6119 69.1702 62.5027 70.8914 59.7555C72.6102 57.0082 73.9996 52.6357 75.055 46.638L76.4949 38.454C77.531 32.5742 77.9757 28.2306 77.8339 25.4231V25.4255ZM56.5376 35.9595L55.1794 43.6788C54.5664 47.1605 53.7274 49.4526 52.6649 50.5554C51.6024 51.6582 49.9485 52.2095 47.708 52.2095C47.2056 52.2095 46.6095 52.1903 45.9219 52.1518L50.1312 28.2402C53.2971 28.2402 55.2996 28.7242 56.1338 29.6921C56.9679 30.66 57.1025 32.75 56.5376 35.9595Z" fill="black"/>
<path fill-rule="evenodd" clip-rule="evenodd" d="M135.879 62.8282L131.014 63.1388L131.783 58.7687C133.098 51.3023 133.257 45.5068 132.264 41.3871C132.043 40.4745 131.749 39.6029 131.391 38.7698L131.398 38.7506L131.365 38.7048C130.86 37.5467 130.218 36.4656 129.442 35.464C128.665 34.4623 117.314 21.9805 117.314 21.9805L115.78 28.1757C113.828 27.8747 111.718 27.7206 109.436 27.7206C107.619 27.7206 105.854 27.841 104.138 28.0793C103.448 26.4252 102.948 25.2695 102.948 25.2695L88.0439 30.5666L87.3972 35.7505C86.1688 36.9592 85.0822 38.2979 84.1399 39.7642C81.6398 43.6528 79.796 48.9643 78.6109 55.6964L74.6565 78.1585C73.6492 83.8866 73.2863 88.247 73.5699 91.2471C73.8536 94.2472 74.8272 96.992 76.4931 99.4889C78.159 101.983 80.7576 103.948 84.2938 105.381C87.8275 106.811 92.0656 107.528 97.0105 107.528C101.955 107.528 106.477 106.804 110.112 105.352C113.746 103.9 116.922 101.723 119.634 98.8219C122.345 95.9206 124.228 93.1926 125.276 90.638C126.165 88.4686 126.98 85.4998 127.718 81.7412L141.889 79.9282L135.879 62.8331V62.8282ZM102.876 50.8183C103.638 46.4843 104.299 43.8237 104.859 42.839C105.419 41.8518 106.511 41.3582 108.133 41.3582C109.446 41.3582 110.213 41.9384 110.434 43.099C110.655 44.2595 110.415 46.8334 109.713 50.8183L108.722 56.4477H101.886L102.876 50.8183ZM110.715 73.9762H106.912L105.124 84.1322C105.116 84.1803 105.107 84.2237 105.1 84.2718C102.585 81.1826 99.9456 78.132 98.3062 76.7837L99.6788 68.9849H112.035L110.715 73.9762Z" fill="black"/>
<path fill-rule="evenodd" clip-rule="evenodd" d="M69.2897 78.4785L66.8281 90.8424L78.8477 102.159L89.2422 87.628L69.2897 78.4785Z" fill="black"/>
<path d="M69.2897 78.4785L66.8281 90.8424L78.8477 102.159L89.2422 87.628L69.2897 78.4785Z" stroke="#2D211F" stroke-width="0.259629" stroke-miterlimit="100"/>
<path fill-rule="evenodd" clip-rule="evenodd" d="M181.558 28.4313L181.683 27.7186C181.471 27.733 181.26 27.7499 181.048 27.7716L171.125 15.5449L166.642 28.0846L157.076 16.9631H156.485L152.971 29.1127H144.179L134.427 84.5082L132.996 82.8131L119.996 94.1296L130.124 106.118L154.031 106.13L159.384 75.7174C160.699 68.2509 161.769 63.4812 162.598 61.4105C163.425 59.3398 164.947 57.7242 167.161 56.5636C169.375 55.4031 172.625 54.8228 176.914 54.8228L178.017 48.5554L184.584 32.3439L181.558 28.4313Z" fill="black"/>
<path d="M304.288 12.1641H280.184L278.027 24.41H302.131L304.288 12.1641Z" fill="black" stroke="black" stroke-width="1.03852" stroke-miterlimit="10"/>
<path fill-rule="evenodd" clip-rule="evenodd" d="M335.346 18.8505L329.954 18.8385L329.88 13.2164L325.072 6.7154L320.368 18.8385H312.257L310.122 30.9688H305.081L302.935 43.1569H307.976L301.088 82.2759C300.807 83.8723 300.557 85.3434 300.338 86.6966L290.739 89.1188L300.446 33.9858L303.91 28.6381L291.528 20.8875L303.341 14.2156L293.728 0.00976562L266.126 13.4836L279.347 27.4487L283.864 24.882L282.227 29.11H277.201L267.042 86.8146L265.45 85.4614L259.404 89.9086L266.169 51.4806C267.28 45.165 267.722 40.5253 267.479 37.6889C267.405 36.8101 267.229 35.9698 266.962 35.1704L268.573 34.6575L252.89 19.0913L252.88 27.2657C250.154 27.4102 247.52 28.1493 245.031 29.4736C242.442 30.8533 239.933 32.8999 237.567 35.5628C234.882 30.037 230.389 27.2368 224.202 27.2368C220.932 27.2368 217.843 27.988 215.019 29.4712C212.708 30.6847 210.526 32.4159 208.514 34.6262L209.759 29.2497L210.158 29.1197L209.867 28.7826L209.903 28.6309H209.737L198.71 16.9075L191.891 20.2133L189.21 28.6333H185.775L175.402 87.5538L160.582 95.1792L171.686 106.614H195.737L196.999 99.4505L203.187 106.614H226.043L227.343 99.2242L233.594 106.614H256.464L257.818 98.9305L264.039 106.132H287.747L290.345 91.9287C290.345 91.9287 296.973 99.4144 300.514 103.329C301.696 104.637 304.336 106.373 308.182 106.373C308.3 106.373 327.998 106.094 327.998 106.094L329.846 93.7128L323.774 86.8844C323.892 86.1163 331.445 43.1594 331.445 43.1594H337.76L339.907 30.9712L335.346 18.8529V18.8505ZM204.631 87.1468L198.518 90.8211L205.208 52.8169C205.857 49.1234 206.326 46.6819 206.6 45.5623C206.853 44.5221 207.386 43.6265 208.184 42.9041C208.973 42.1866 209.809 41.8399 210.737 41.8399C212.148 41.8399 212.817 42.3985 212.901 43.6529C212.999 45.1169 212.382 49.6483 211.067 57.1172L205.665 87.7969L204.631 87.1444V87.1468ZM241.712 55.8411L235.978 88.4157L228.675 91.6662L234.952 56.0096C236.103 49.4677 237.058 45.3889 237.791 43.8913C238.464 42.5117 239.51 41.8399 240.983 41.8399C242.368 41.8399 243.048 42.4322 243.192 43.7613C243.354 45.2782 242.856 49.3425 241.712 55.8435V55.8411Z" fill="black"/>
<path d="M15.9531 100.424H20.5062C20.8163 100.424 21.0711 100.677 21.0711 100.99V152.944C21.0711 153.255 20.8187 153.51 20.5062 153.51H15.9531C15.643 153.51 15.3906 153.257 15.3906 152.947V100.992C15.3906 100.681 15.643 100.426 15.9555 100.426L15.9531 100.424Z" fill="white"/>
<path d="M20.5047 100.892C20.5575 100.892 20.5984 100.935 20.5984 100.986V152.941C20.5984 152.994 20.5551 153.035 20.5047 153.035H15.9517C15.8988 153.035 15.8579 152.991 15.8579 152.941V100.986C15.8579 100.933 15.9012 100.892 15.9517 100.892H20.5047ZM20.5047 99.9531H15.9517C15.3819 99.9531 14.918 100.418 14.918 100.988V152.943C14.918 153.514 15.3819 153.979 15.9517 153.979H20.5047C21.0744 153.979 21.5383 153.514 21.5383 152.943V100.988C21.5383 100.418 21.0744 99.9531 20.5047 99.9531Z" fill="black"/>
<path d="M33.9594 154.295C31.2598 154.295 29.0242 153.171 27.315 150.953C25.6346 148.772 24.7812 146.015 24.7812 142.757C24.7812 139.191 25.625 136.377 27.2861 134.39C28.9496 132.404 31.1588 131.161 33.8536 130.701L41.2553 129.445C42.1495 129.288 42.7337 128.792 43.039 127.93C43.2265 127.417 43.3226 126.654 43.3226 125.66C43.3226 123.656 42.8082 122.197 41.7961 121.321C40.7625 120.428 39.2408 119.975 37.272 119.975C35.0099 119.975 33.457 120.772 32.5242 122.414C32.0026 123.324 31.6516 124.711 31.4834 126.536C31.4569 126.825 31.2189 127.042 30.9329 127.042H26.7813C26.6347 127.042 26.4904 126.981 26.3847 126.876C26.2813 126.77 26.2236 126.623 26.226 126.473C26.327 121.778 27.4953 118.446 29.6948 116.565C31.892 114.687 34.4738 113.736 37.3729 113.736C40.712 113.736 43.4717 114.62 45.5727 116.361C47.6833 118.126 48.7531 120.88 48.7531 124.552V146.138C48.7531 146.716 48.8372 147.175 49.0007 147.505C49.0415 147.59 49.1689 147.845 49.8396 147.845C50.0247 147.845 50.2387 147.828 50.4743 147.797C50.6882 147.768 50.9118 147.727 51.145 147.674L51.1954 147.662H51.2676C51.5728 147.662 51.8205 147.907 51.8205 148.213V152.684C51.8205 152.913 51.6762 153.12 51.4647 153.202C50.7387 153.481 50.193 153.652 49.794 153.727C49.3829 153.804 48.8492 153.84 48.1641 153.84C46.378 153.84 45.0679 152.973 44.265 151.266C43.9837 150.657 43.7577 149.872 43.5943 148.919C42.6808 150.207 41.5005 151.36 40.0701 152.357C38.2287 153.643 36.171 154.293 33.9522 154.293L33.9594 154.295ZM43.1928 134.443C42.7337 134.73 42.2096 134.982 41.6255 135.197C40.7096 135.534 39.7985 135.777 38.9163 135.919L36.1157 136.408C34.5171 136.694 33.3079 137.147 32.5242 137.751C31.1949 138.763 30.5506 140.357 30.5506 142.62C30.5506 144.305 31.0026 145.644 31.8968 146.598C32.7935 147.556 33.8224 148.023 35.0411 148.023C36.5748 148.023 38.0845 147.532 39.5292 146.564C41.9957 144.939 43.1928 142.333 43.1928 138.599V134.443Z" fill="white"/>
<path d="M37.3751 114.2C40.6203 114.2 43.255 115.04 45.2815 116.718C47.2912 118.397 48.296 121.009 48.296 124.556V146.141C48.296 146.794 48.3946 147.319 48.5917 147.716C48.7888 148.111 49.2071 148.308 49.8417 148.308C50.0485 148.308 50.2793 148.291 50.5389 148.255C50.7624 148.224 51.0004 148.181 51.2504 148.125C51.2577 148.125 51.2649 148.125 51.2721 148.125C51.3226 148.125 51.3658 148.166 51.3658 148.217V152.688C51.3658 152.727 51.3418 152.763 51.3057 152.777C50.6134 153.044 50.0845 153.21 49.7167 153.278C49.3393 153.348 48.8225 153.384 48.1686 153.384C46.57 153.384 45.4089 152.613 44.6878 151.075C44.3344 150.312 44.0772 149.25 43.9185 147.892C43.9113 147.839 43.8704 147.807 43.8272 147.807C43.7983 147.807 43.7671 147.822 43.7478 147.853C42.8103 149.43 41.4978 150.808 39.8126 151.985C38.0409 153.22 36.0914 153.839 33.9591 153.839C31.3965 153.839 29.3051 152.784 27.6801 150.678C26.055 148.571 25.2425 145.932 25.2425 142.763C25.2425 139.294 26.043 136.602 27.6416 134.692C29.2402 132.783 31.3364 131.606 33.9327 131.163L41.3343 129.906C42.3992 129.72 43.1132 129.114 43.4738 128.09C43.6805 127.529 43.7839 126.72 43.7839 125.668C43.7839 123.515 43.2214 121.953 42.0987 120.98C40.9761 120.01 39.3655 119.523 37.2741 119.523C34.8558 119.523 33.1394 120.414 32.1273 122.196C31.5696 123.166 31.2042 124.604 31.0287 126.506C31.0239 126.554 30.9855 126.593 30.9374 126.593H26.7858C26.7329 126.593 26.6921 126.549 26.6921 126.496C26.7906 121.917 27.894 118.729 29.9999 116.928C32.1201 115.115 34.5793 114.209 37.3799 114.209M35.0409 148.482C36.6731 148.482 38.2549 147.969 39.7862 146.945C42.3656 145.246 43.6541 142.465 43.6541 138.598V133.729C43.6541 133.674 43.6108 133.635 43.5627 133.635C43.5435 133.635 43.5219 133.643 43.505 133.657C42.9618 134.093 42.2814 134.461 41.4665 134.76C40.5747 135.087 39.6996 135.321 38.8414 135.46L36.0361 135.949C34.3557 136.253 33.0913 136.729 32.2427 137.382C30.8076 138.475 30.0888 140.221 30.0888 142.616C30.0888 144.432 30.5792 145.862 31.5576 146.909C32.536 147.957 33.6971 148.479 35.0385 148.479M37.3751 113.275C34.363 113.275 31.6802 114.265 29.3989 116.215C27.0935 118.185 25.8723 121.633 25.769 126.465C25.7642 126.737 25.8699 127.004 26.0598 127.199C26.2498 127.394 26.5142 127.505 26.7834 127.505H30.935C31.4614 127.505 31.8965 127.108 31.9446 126.581C32.1057 124.82 32.435 123.496 32.9254 122.646C33.7716 121.158 35.1923 120.436 37.2741 120.436C39.1299 120.436 40.5506 120.85 41.4978 121.669C42.404 122.454 42.8632 123.795 42.8632 125.658C42.8632 126.829 42.7262 127.45 42.6108 127.763C42.356 128.485 41.916 128.858 41.178 128.988L33.7812 130.245C30.9758 130.724 28.6729 132.017 26.9373 134.09C26.0598 135.138 25.3964 136.409 24.9613 137.871C24.5382 139.296 24.3242 140.938 24.3242 142.754C24.3242 146.115 25.2089 148.968 26.9541 151.231C28.7546 153.567 31.1129 154.751 33.9615 154.751C36.2741 154.751 38.4208 154.072 40.3415 152.731C41.5098 151.918 42.517 151 43.3536 149.991C43.493 150.547 43.6589 151.031 43.8536 151.453C44.7262 153.314 46.2191 154.294 48.171 154.294C48.8874 154.294 49.4475 154.255 49.885 154.174C50.3129 154.094 50.885 153.916 51.6375 153.627C52.0269 153.478 52.2889 153.095 52.2889 152.678V148.207C52.2889 147.649 51.8346 147.191 51.2745 147.191C51.2 147.191 51.123 147.198 51.0509 147.215C50.8298 147.266 50.6182 147.304 50.4187 147.331C50.2023 147.36 50.01 147.374 49.8466 147.374C49.5557 147.374 49.4403 147.314 49.4235 147.299C49.3273 147.109 49.2191 146.76 49.2191 146.129V124.544C49.2191 120.727 48.0941 117.852 45.8753 115.998C43.6853 114.183 40.8271 113.266 37.3775 113.266L37.3751 113.275ZM35.0409 147.559C33.9567 147.559 33.036 147.141 32.2307 146.281C31.4085 145.402 31.0095 144.205 31.0095 142.619C31.0095 140.507 31.5961 139.036 32.798 138.119C33.5264 137.558 34.6683 137.136 36.1971 136.862L38.9977 136.373C39.8992 136.226 40.8391 135.976 41.7814 135.629C42.1156 135.506 42.4329 135.371 42.731 135.224V138.598C42.731 142.164 41.6011 144.644 39.279 146.175C37.9039 147.095 36.4808 147.559 35.0409 147.559Z" fill="black"/>
<path d="M63.8849 154.539C59.7453 154.539 56.8847 152.613 55.3846 148.811C54.5914 146.827 54.1875 144.152 54.1875 140.865V115.119C54.1875 114.808 54.4399 114.553 54.7524 114.553H59.4112C59.7213 114.553 59.9737 114.806 59.9737 115.119V140.261C59.9737 142.139 60.1901 143.685 60.6132 144.857C61.3656 146.942 62.7238 147.956 64.7647 147.956C67.7744 147.956 69.7745 146.117 70.8827 142.329C71.5005 140.251 71.813 137.345 71.813 133.693V115.117C71.813 114.806 72.0654 114.551 72.3755 114.551H76.9285C77.2386 114.551 77.4934 114.804 77.4934 115.117V152.943C77.4934 153.253 77.241 153.506 76.9285 153.506H72.6399C72.4885 153.506 72.3467 153.446 72.2385 153.337C72.1303 153.229 72.075 153.087 72.075 152.935L72.1087 149.456C71.6832 150.176 71.212 150.824 70.6952 151.397C68.8369 153.477 66.546 154.534 63.8849 154.534V154.539Z" fill="white"/>
<path d="M76.9285 115.022C76.9814 115.022 77.0223 115.065 77.0223 115.115V152.941C77.0223 152.994 76.979 153.035 76.9285 153.035H72.6399C72.5871 153.035 72.5438 152.992 72.5462 152.939L72.5943 147.892C72.5943 147.832 72.5462 147.796 72.4981 147.796C72.4645 147.796 72.4284 147.813 72.4116 147.854C71.8418 149.113 71.1543 150.189 70.3466 151.083C68.5725 153.071 66.4186 154.063 63.8849 154.063C59.9377 154.063 57.2501 152.253 55.8198 148.632C55.0433 146.691 54.6563 144.1 54.6563 140.857V115.111C54.6563 115.058 54.6995 115.017 54.75 115.017H59.4064C59.4593 115.017 59.5002 115.06 59.5002 115.111V140.255C59.5002 142.196 59.7213 143.782 60.1684 145.013C60.9882 147.286 62.5195 148.42 64.7599 148.42C67.9739 148.42 70.1639 146.431 71.3274 142.456C71.9596 140.325 72.2769 137.404 72.2769 133.689V115.113C72.2769 115.06 72.3202 115.019 72.3707 115.019H76.9237M76.9285 114.082H72.3755C71.8058 114.082 71.3418 114.547 71.3418 115.118V133.694C71.3418 137.301 71.0365 140.161 70.4307 142.193C68.8826 147.485 65.7816 147.485 64.7623 147.485C62.9185 147.485 61.7382 146.599 61.0531 144.697C60.6468 143.575 60.4425 142.082 60.4425 140.26V115.115C60.4425 114.545 59.9785 114.08 59.4088 114.08H54.7524C54.1827 114.08 53.7188 114.545 53.7188 115.115V140.862C53.7188 144.208 54.1322 146.941 54.9496 148.985C56.5265 152.98 59.5338 155.007 63.8849 155.007C66.6854 155.007 69.0942 153.9 71.0461 151.713C71.2457 151.492 71.438 151.261 71.6255 151.018L71.6087 152.934C71.6063 153.209 71.7144 153.478 71.9067 153.671C72.0991 153.866 72.3659 153.977 72.6399 153.977H76.9285C77.4982 153.977 77.9622 153.512 77.9622 152.941V115.115C77.9622 114.545 77.4982 114.08 76.9285 114.08V114.082Z" fill="black"/>
<path d="M101.168 153.507C100.858 153.507 100.603 153.254 100.603 152.943V129.078C100.603 126.824 100.356 124.992 99.8677 123.629C99.0912 121.45 97.7354 120.39 95.7257 120.39C94.6704 120.39 93.8026 120.532 93.1439 120.814C91.9348 121.298 90.8578 122.288 89.9323 123.756C89.1775 124.953 88.6823 126.205 88.4563 127.474C88.2255 128.779 88.1077 130.679 88.1077 133.125V152.943C88.1077 153.254 87.8553 153.507 87.5452 153.507H82.9922C82.6821 153.507 82.4297 153.254 82.4297 152.943V115.117C82.4297 114.807 82.6821 114.552 82.9922 114.552H87.3072C87.6173 114.552 87.8697 114.804 87.8697 115.117V118.828C88.9852 117.234 90.1631 116.025 91.3867 115.231C92.9492 114.214 94.7113 113.699 96.62 113.699C100.822 113.699 103.7 115.7 105.173 119.649C105.962 121.751 106.363 124.78 106.363 128.651V152.943C106.363 153.254 106.111 153.507 105.798 153.507H101.166H101.168Z" fill="white"/>
<path d="M96.6233 114.17C100.628 114.17 103.333 116.05 104.737 119.813C105.508 121.872 105.895 124.819 105.895 128.652V152.944C105.895 152.997 105.852 153.038 105.801 153.038H101.169C101.116 153.038 101.075 152.995 101.075 152.944V129.078C101.075 126.76 100.821 124.889 100.311 123.471C99.4671 121.104 97.9406 119.922 95.7266 119.922C94.6016 119.922 93.6809 120.076 92.9597 120.384C91.6592 120.904 90.5174 121.947 89.5342 123.507C88.7433 124.761 88.2312 126.057 87.9933 127.393C87.7553 128.729 87.6375 130.641 87.6375 133.126V152.944C87.6375 152.997 87.5942 153.038 87.5437 153.038H82.9907C82.9378 153.038 82.897 152.995 82.897 152.944V115.118C82.897 115.065 82.9402 115.024 82.9907 115.024H87.3057C87.3586 115.024 87.3995 115.068 87.3995 115.118V120.083C87.3995 120.141 87.4452 120.177 87.4932 120.177C87.5245 120.177 87.5533 120.162 87.575 120.131C88.8587 118.056 90.2121 116.556 91.64 115.626C93.1328 114.656 94.7915 114.172 96.6185 114.172M96.6233 113.23C94.6208 113.23 92.7746 113.772 91.1328 114.836C90.1688 115.462 89.2361 116.329 88.3394 117.427V115.118C88.3394 114.548 87.8755 114.083 87.3057 114.083H82.9907C82.421 114.083 81.957 114.548 81.957 115.118V152.944C81.957 153.515 82.421 153.98 82.9907 153.98H87.5437C88.1135 153.98 88.5774 153.515 88.5774 152.944V133.126C88.5774 130.708 88.6928 128.835 88.9188 127.557C89.1327 126.346 89.6087 125.151 90.3299 124.008C91.2001 122.623 92.2025 121.699 93.3107 121.256L93.3203 121.251L93.3299 121.246C93.9309 120.991 94.7386 120.861 95.729 120.861C97.5416 120.861 98.7171 121.79 99.4287 123.786C99.8998 125.098 100.138 126.88 100.138 129.078V152.944C100.138 153.515 100.602 153.98 101.171 153.98H105.804C106.374 153.98 106.838 153.515 106.838 152.944V128.652C106.838 124.667 106.438 121.67 105.619 119.483C104.068 115.335 101.044 113.23 96.6281 113.23H96.6233Z" fill="black"/>
<path d="M122.978 154.123C119.131 154.123 116.025 152.214 113.751 148.448C111.52 144.759 110.391 140.098 110.391 134.591C110.391 127.857 111.631 122.528 114.076 118.753C116.564 114.913 119.788 112.965 123.663 112.965C126.958 112.965 129.682 114.065 131.759 116.232C133.805 118.37 135.055 122.052 135.475 127.171C135.487 127.327 135.435 127.484 135.326 127.602C135.221 127.717 135.069 127.785 134.913 127.785H130.49C130.206 127.785 129.966 127.573 129.932 127.289C129.656 125.064 129.035 123.195 128.091 121.729C127.172 120.309 125.725 119.62 123.663 119.62C120.843 119.62 118.869 121.462 117.629 125.252C116.804 127.768 116.388 130.929 116.388 134.642C116.388 138.355 116.977 141.528 118.136 144.054C119.256 146.493 120.961 147.68 123.348 147.68C125.17 147.68 126.576 146.953 127.641 145.455C128.732 143.922 129.504 141.786 129.932 139.104C129.975 138.829 130.208 138.627 130.487 138.627H134.911C135.069 138.627 135.223 138.697 135.331 138.815C135.439 138.935 135.49 139.094 135.473 139.253C134.93 144.316 133.564 148.089 131.415 150.468C129.225 152.89 126.386 154.118 122.98 154.118L122.978 154.123Z" fill="white"/>
<path d="M123.663 113.437C126.841 113.437 129.427 114.48 131.42 116.56C133.398 118.628 134.596 122.18 135.007 127.212C135.012 127.267 134.968 127.315 134.911 127.315H130.487C130.439 127.315 130.401 127.279 130.394 127.231C130.108 124.925 129.47 123.008 128.48 121.474C127.48 119.924 125.872 119.148 123.66 119.148C120.639 119.148 118.48 121.135 117.179 125.105C116.336 127.681 115.915 130.86 115.915 134.642C115.915 138.425 116.511 141.649 117.706 144.249C118.9 146.85 120.778 148.15 123.343 148.15C125.309 148.15 126.869 147.343 128.019 145.728C129.158 144.129 129.949 141.945 130.389 139.179C130.396 139.133 130.434 139.099 130.483 139.099H134.906C134.963 139.099 135.007 139.15 134.999 139.205C134.466 144.191 133.151 147.842 131.059 150.156C128.951 152.486 126.256 153.652 122.973 153.652C119.285 153.652 116.343 151.836 114.148 148.203C111.953 144.57 110.855 140.033 110.855 134.589C110.855 127.915 112.057 122.721 114.463 119.006C116.869 115.291 119.934 113.432 123.658 113.432M123.663 112.498C119.619 112.498 116.261 114.518 113.682 118.498C111.186 122.351 109.922 127.766 109.922 134.592C109.922 140.185 111.076 144.928 113.35 148.692C115.715 152.607 118.956 154.593 122.978 154.593C126.523 154.593 129.478 153.312 131.759 150.789C133.978 148.335 135.384 144.473 135.937 139.309C135.968 139.017 135.875 138.723 135.677 138.507C135.483 138.288 135.201 138.162 134.908 138.162H130.485C129.975 138.162 129.547 138.528 129.466 139.034C129.05 141.644 128.307 143.712 127.256 145.186C126.285 146.551 125.004 147.213 123.343 147.213C121.16 147.213 119.593 146.118 118.557 143.862C117.424 141.398 116.852 138.297 116.852 134.647C116.852 130.997 117.261 127.872 118.071 125.404C119.239 121.831 121.069 120.095 123.66 120.095C125.55 120.095 126.869 120.716 127.694 121.989C128.6 123.393 129.196 125.197 129.463 127.352C129.528 127.869 129.968 128.259 130.487 128.259H134.911C135.199 128.259 135.475 128.137 135.67 127.925C135.865 127.713 135.963 127.426 135.939 127.137C135.504 121.833 134.247 118.164 132.093 115.912C129.925 113.647 127.086 112.498 123.658 112.498H123.663Z" fill="black"/>
<path d="M157.854 153.508C157.544 153.508 157.292 153.256 157.292 152.945V129.079C157.292 126.361 157.037 124.355 156.535 123.115C155.749 121.211 154.304 120.286 152.121 120.286C150.304 120.286 148.623 121.153 147.126 122.86C145.611 124.586 144.845 127.957 144.845 132.879V152.945C144.845 153.256 144.592 153.508 144.282 153.508H139.729C139.419 153.508 139.164 153.256 139.164 152.945V100.812C139.164 100.501 139.416 100.246 139.729 100.246H144.282C144.592 100.246 144.845 100.499 144.845 100.812V118.519C145.655 117.283 146.397 116.378 147.097 115.769C148.703 114.351 150.732 113.631 153.121 113.631C157.407 113.631 160.357 115.68 161.883 119.72C162.691 121.87 163.1 124.875 163.1 128.653V152.945C163.1 153.256 162.847 153.508 162.535 153.508H157.852H157.854Z" fill="white"/>
<path d="M144.282 100.717C144.335 100.717 144.376 100.76 144.376 100.811V119.822C144.376 119.88 144.424 119.916 144.472 119.916C144.503 119.916 144.534 119.902 144.554 119.868C145.607 118.108 146.559 116.858 147.407 116.119C148.936 114.771 150.84 114.097 153.124 114.097C157.215 114.097 159.989 116.025 161.448 119.883C162.239 121.989 162.633 124.912 162.633 128.649V152.941C162.633 152.994 162.59 153.035 162.54 153.035H157.857C157.804 153.035 157.763 152.992 157.763 152.941V129.076C157.763 126.282 157.499 124.236 156.972 122.936C156.112 120.853 154.496 119.813 152.126 119.813C150.16 119.813 148.376 120.723 146.777 122.546C145.179 124.368 144.381 127.811 144.381 132.875V152.941C144.381 152.994 144.337 153.035 144.287 153.035H139.734C139.681 153.035 139.64 152.992 139.64 152.941V100.808C139.64 100.755 139.683 100.714 139.734 100.714H144.287M144.282 99.7754H139.729C139.159 99.7754 138.695 100.24 138.695 100.811V152.944C138.695 153.514 139.159 153.979 139.729 153.979H144.282C144.852 153.979 145.316 153.514 145.316 152.944V132.877C145.316 128.071 146.044 124.804 147.479 123.167C148.905 121.542 150.422 120.754 152.121 120.754C154.119 120.754 155.383 121.563 156.102 123.297C156.578 124.474 156.821 126.42 156.821 129.078V152.944C156.821 153.514 157.285 153.979 157.854 153.979H162.537C163.107 153.979 163.571 153.514 163.571 152.944V128.652C163.571 124.819 163.153 121.756 162.326 119.553C160.722 115.308 157.626 113.158 153.124 113.158C150.616 113.158 148.484 113.919 146.787 115.416C146.316 115.828 145.828 116.365 145.316 117.037V100.811C145.316 100.24 144.852 99.7754 144.282 99.7754Z" fill="black"/>
<path d="M204.887 153.508C204.618 153.508 204.385 153.315 204.334 153.051L199.074 126.098L193.983 153.048C193.932 153.315 193.699 153.508 193.43 153.508H188.658C188.394 153.508 188.163 153.32 188.108 153.063L180.009 115.237C179.973 115.068 180.014 114.897 180.122 114.762C180.23 114.627 180.389 114.553 180.559 114.553H185.552C185.824 114.553 186.057 114.748 186.108 115.017L191.062 142.37L196.089 115.017C196.137 114.75 196.37 114.555 196.644 114.555H201.808C202.079 114.555 202.312 114.748 202.36 115.015L207.428 142.29L212.712 115.013C212.762 114.748 212.995 114.555 213.265 114.555H217.81C217.981 114.555 218.142 114.632 218.248 114.765C218.354 114.897 218.397 115.07 218.361 115.239L210.209 153.067C210.154 153.325 209.921 153.513 209.659 153.513H204.887V153.508Z" fill="white"/>
<path d="M217.805 115.021C217.866 115.021 217.911 115.076 217.899 115.137L209.748 152.963C209.738 153.006 209.699 153.037 209.654 153.037H204.882C204.836 153.037 204.798 153.006 204.788 152.96L199.156 124.096C199.146 124.045 199.105 124.019 199.062 124.019C199.021 124.019 198.978 124.045 198.968 124.096L193.516 152.96C193.507 153.006 193.468 153.037 193.423 153.037H188.651C188.605 153.037 188.567 153.006 188.557 152.963L180.458 115.137C180.446 115.076 180.49 115.021 180.552 115.021H185.545C185.591 115.021 185.629 115.055 185.639 115.098L190.959 144.468C190.968 144.521 191.009 144.545 191.052 144.545C191.096 144.545 191.136 144.519 191.146 144.468L196.543 115.098C196.55 115.052 196.591 115.021 196.637 115.021H201.8C201.846 115.021 201.884 115.055 201.894 115.098L207.32 144.312C207.329 144.362 207.37 144.389 207.413 144.389C207.457 144.389 207.498 144.362 207.507 144.312L213.166 115.098C213.176 115.052 213.214 115.021 213.26 115.021H217.805ZM217.805 114.082H213.26C212.767 114.082 212.339 114.434 212.245 114.92L207.43 139.77L202.815 114.927C202.723 114.438 202.298 114.082 201.8 114.082H196.637C196.139 114.082 195.711 114.438 195.62 114.93L191.057 139.756L186.562 114.932C186.473 114.438 186.045 114.082 185.545 114.082H180.552C180.24 114.082 179.946 114.222 179.749 114.467C179.552 114.713 179.478 115.028 179.542 115.334L187.641 153.16C187.742 153.634 188.168 153.979 188.651 153.979H193.423C193.918 153.979 194.346 153.625 194.437 153.136L199.074 128.586L203.868 153.143C203.961 153.627 204.389 153.979 204.882 153.979H209.654C210.137 153.979 210.562 153.634 210.663 153.163L218.815 115.336C218.882 115.028 218.806 114.713 218.608 114.467C218.411 114.222 218.118 114.082 217.805 114.082Z" fill="black"/>
<path d="M232.746 154.182C229.172 154.182 226.107 152.408 223.64 148.907C221.21 145.457 219.977 140.581 219.977 134.415C219.977 128.248 221.215 123.344 223.655 119.537C226.138 115.665 229.438 113.703 233.467 113.703C235.508 113.703 237.511 114.358 239.417 115.651C241.314 116.937 242.778 118.625 243.77 120.666C244.715 122.585 245.352 124.856 245.667 127.411C245.939 129.122 246.081 131.887 246.083 135.611C246.083 135.92 245.833 136.168 245.528 136.168H225.912C226.039 139.664 226.681 142.514 227.823 144.643C228.982 146.8 230.722 147.848 233.15 147.848C235.422 147.848 237.189 146.848 238.549 144.792C239.304 143.61 239.855 142.211 240.179 140.644C240.232 140.388 240.46 140.201 240.72 140.201H245.126C245.283 140.201 245.434 140.268 245.537 140.384C245.643 140.499 245.694 140.656 245.679 140.81C245.545 142.194 245.131 143.747 244.453 145.428C243.756 147.149 242.968 148.577 242.105 149.678C240.653 151.601 238.818 152.926 236.66 153.602C235.511 153.985 234.188 154.182 232.741 154.182H232.746ZM240.33 130.252C240.129 127.82 239.713 125.841 239.092 124.365C237.893 121.502 235.955 120.11 233.172 120.11C231.191 120.11 229.568 121.066 228.208 123.036C226.897 124.933 226.164 127.358 226.02 130.254H240.33V130.252Z" fill="white"/>
<path d="M233.469 114.164C235.426 114.164 237.323 114.788 239.159 116.033C240.996 117.278 242.395 118.891 243.357 120.868C244.285 122.753 244.902 124.951 245.21 127.465C245.482 129.172 245.619 131.888 245.621 135.61C245.621 135.661 245.58 135.704 245.527 135.704H225.534C225.481 135.704 225.438 135.748 225.44 135.801C225.537 139.559 226.195 142.578 227.419 144.859C228.652 147.158 230.563 148.306 233.152 148.306C235.568 148.306 237.496 147.218 238.936 145.044C239.729 143.799 240.294 142.364 240.633 140.734C240.643 140.691 240.679 140.659 240.724 140.659H245.131C245.186 140.659 245.229 140.708 245.225 140.763C245.092 142.109 244.696 143.607 244.03 145.251C243.347 146.939 242.585 148.319 241.746 149.388C240.34 151.249 238.599 152.506 236.527 153.158C235.412 153.529 234.152 153.717 232.748 153.717C229.315 153.717 226.407 152.024 224.02 148.636C221.633 145.251 220.44 140.508 220.44 134.409C220.44 128.31 221.642 123.528 224.046 119.782C226.45 116.035 229.59 114.162 233.469 114.162M225.642 130.713H240.732C240.787 130.713 240.83 130.665 240.825 130.612C240.633 127.937 240.198 125.794 239.522 124.185C238.256 121.161 236.14 119.647 233.176 119.647C231.054 119.647 229.272 120.689 227.832 122.772C226.409 124.833 225.647 127.448 225.549 130.617C225.549 130.67 225.589 130.715 225.642 130.715M233.469 113.242C229.275 113.242 225.842 115.277 223.27 119.288C220.782 123.169 219.52 128.259 219.52 134.416C219.52 140.573 220.779 145.646 223.267 149.176C225.825 152.807 229.015 154.646 232.748 154.646C234.241 154.646 235.609 154.444 236.813 154.042C239.059 153.334 240.965 151.959 242.479 149.956C243.366 148.824 244.176 147.358 244.888 145.603C245.583 143.883 246.006 142.287 246.145 140.857C246.174 140.573 246.078 140.286 245.886 140.074C245.693 139.862 245.419 139.74 245.133 139.74H240.727C240.248 139.74 239.83 140.079 239.734 140.549C239.422 142.058 238.893 143.402 238.167 144.543C236.897 146.455 235.26 147.384 233.155 147.384C230.914 147.384 229.303 146.416 228.234 144.423C227.176 142.456 226.561 139.836 226.397 136.629H245.53C245.799 136.629 246.064 136.518 246.253 136.325C246.441 136.133 246.547 135.88 246.547 135.61C246.547 131.873 246.402 129.09 246.126 127.337C245.804 124.737 245.152 122.423 244.186 120.461C243.16 118.349 241.643 116.601 239.679 115.27C237.693 113.924 235.604 113.242 233.472 113.242H233.469ZM226.515 129.788C226.707 127.195 227.404 125.014 228.59 123.295C229.856 121.46 231.356 120.569 233.174 120.569C235.751 120.569 237.549 121.869 238.669 124.542C239.229 125.873 239.616 127.633 239.828 129.788H226.513H226.515Z" fill="black"/>
<path d="M260.891 153.946C257.316 153.946 254.251 152.172 251.785 148.671C249.354 145.22 248.121 140.345 248.121 134.178C248.121 128.012 249.359 123.107 251.799 119.301C254.282 115.429 257.583 113.467 261.612 113.467C263.653 113.467 265.655 114.122 267.562 115.415C269.456 116.7 270.922 118.388 271.915 120.43C272.86 122.349 273.497 124.62 273.812 127.174C274.083 128.884 274.225 131.648 274.228 135.375C274.228 135.683 273.978 135.931 273.672 135.931H254.056C254.181 139.427 254.826 142.278 255.967 144.407C257.124 146.564 258.867 147.611 261.295 147.611C263.566 147.611 265.333 146.612 266.694 144.556C267.449 143.371 267.999 141.975 268.324 140.407C268.376 140.152 268.605 139.964 268.864 139.964H273.271C273.427 139.964 273.579 140.032 273.682 140.147C273.788 140.263 273.838 140.419 273.824 140.573C273.689 141.958 273.276 143.511 272.598 145.192C271.903 146.911 271.112 148.341 270.249 149.441C268.797 151.365 266.963 152.689 264.804 153.366C263.655 153.749 262.333 153.946 260.886 153.946H260.891ZM268.477 130.015C268.275 127.584 267.86 125.604 267.239 124.128C266.04 121.266 264.102 119.874 261.319 119.874C259.338 119.874 257.715 120.83 256.354 122.799C255.044 124.694 254.311 127.121 254.167 130.018H268.477V130.015Z" fill="white"/>
<path d="M261.614 113.928C263.571 113.928 265.467 114.552 267.304 115.797C269.141 117.042 270.54 118.655 271.501 120.632C272.429 122.517 273.047 124.715 273.355 127.229C273.626 128.936 273.763 131.652 273.766 135.374C273.766 135.425 273.725 135.468 273.672 135.468H253.679C253.626 135.468 253.582 135.512 253.585 135.565C253.679 139.323 254.34 142.343 255.563 144.623C256.797 146.922 258.708 148.071 261.297 148.071C263.713 148.071 265.641 146.982 267.08 144.808C267.874 143.563 268.439 142.128 268.778 140.498C268.787 140.455 268.823 140.424 268.869 140.424H273.275C273.331 140.424 273.374 140.472 273.369 140.527C273.237 141.873 272.84 143.371 272.174 145.015C271.492 146.703 270.73 148.083 269.891 149.152C268.484 151.013 266.744 152.27 264.672 152.922C263.556 153.293 262.297 153.481 260.893 153.481C257.46 153.481 254.551 151.788 252.164 148.4C249.777 145.015 248.585 140.272 248.585 134.173C248.585 128.074 249.787 123.292 252.191 119.546C254.595 115.799 257.734 113.926 261.614 113.926M253.784 130.477H268.874C268.929 130.477 268.972 130.429 268.968 130.376C268.775 127.701 268.34 125.558 267.665 123.95C266.398 120.925 264.282 119.411 261.318 119.411C259.196 119.411 257.414 120.454 255.974 122.536C254.551 124.597 253.789 127.212 253.691 130.381C253.691 130.434 253.732 130.479 253.784 130.479M261.614 113.004C257.419 113.004 253.986 115.038 251.414 119.05C248.926 122.931 247.664 128.021 247.664 134.178C247.664 140.334 248.924 145.408 251.412 148.937C253.97 152.568 257.16 154.408 260.893 154.408C262.386 154.408 263.753 154.206 264.958 153.804C267.203 153.096 269.109 151.721 270.624 149.718C271.511 148.586 272.321 147.12 273.033 145.364C273.727 143.645 274.15 142.049 274.29 140.619C274.319 140.334 274.222 140.048 274.033 139.836C273.84 139.624 273.566 139.501 273.278 139.501H268.871C268.393 139.501 267.975 139.843 267.879 140.313C267.566 141.822 267.04 143.166 266.311 144.307C265.042 146.219 263.402 147.148 261.299 147.148C259.059 147.148 257.448 146.181 256.378 144.187C255.321 142.217 254.705 139.6 254.542 136.393H273.674C273.944 136.393 274.208 136.282 274.398 136.09C274.585 135.897 274.691 135.644 274.691 135.374C274.691 131.582 274.552 128.876 274.271 127.101C273.948 124.503 273.297 122.19 272.331 120.225C271.304 118.113 269.787 116.365 267.823 115.034C265.838 113.688 263.751 113.006 261.616 113.006L261.614 113.004ZM254.657 129.552C254.849 126.959 255.546 124.778 256.732 123.059C257.998 121.224 259.499 120.333 261.316 120.333C263.893 120.333 265.691 121.633 266.811 124.306C267.371 125.637 267.758 127.398 267.97 129.552H254.655H254.657Z" fill="black"/>
<path d="M295.032 153.504C294.813 153.504 294.611 153.374 294.52 153.177L285.996 134.593L282.674 138.925V152.941C282.674 153.251 282.421 153.504 282.109 153.504H277.741C277.431 153.504 277.176 153.251 277.176 152.941V100.986C277.176 100.675 277.428 100.42 277.741 100.42H282.109C282.419 100.42 282.674 100.673 282.674 100.986V129.763L293.962 114.773C294.068 114.633 294.236 114.549 294.412 114.549H300.229C300.446 114.549 300.64 114.669 300.734 114.864C300.83 115.059 300.806 115.285 300.674 115.459L290.123 129.212L301.386 152.697C301.47 152.876 301.458 153.078 301.354 153.244C301.251 153.41 301.073 153.506 300.878 153.506H295.032V153.504Z" fill="white"/>
<path d="M282.109 100.89C282.161 100.89 282.202 100.934 282.202 100.984V130.881C282.202 130.939 282.25 130.978 282.299 130.978C282.325 130.978 282.354 130.966 282.373 130.939L294.332 115.055C294.349 115.031 294.378 115.017 294.407 115.017H300.224C300.304 115.017 300.347 115.108 300.299 115.168L289.609 129.104C289.587 129.133 289.582 129.172 289.599 129.203L300.96 152.896C300.991 152.958 300.943 153.033 300.874 153.033H295.027C294.991 153.033 294.958 153.011 294.941 152.977L286.157 133.831C286.14 133.795 286.106 133.775 286.07 133.775C286.041 133.775 286.015 133.788 285.996 133.812L282.217 138.738C282.205 138.755 282.198 138.774 282.198 138.796V152.939C282.198 152.992 282.154 153.033 282.104 153.033H277.736C277.683 153.033 277.642 152.989 277.642 152.939V100.984C277.642 100.931 277.685 100.89 277.736 100.89H282.104M282.109 99.9512H277.741C277.171 99.9512 276.707 100.416 276.707 100.987V152.941C276.707 153.512 277.171 153.977 277.741 153.977H282.109C282.678 153.977 283.142 153.512 283.142 152.941V139.087L285.895 135.499L294.095 153.375C294.263 153.741 294.631 153.977 295.032 153.977H300.878C301.237 153.977 301.563 153.796 301.753 153.493C301.943 153.189 301.965 152.816 301.811 152.493L290.674 129.268L301.049 115.744C301.289 115.428 301.333 115.012 301.157 114.655C300.982 114.299 300.626 114.078 300.232 114.078H294.414C294.092 114.078 293.784 114.232 293.59 114.489L283.145 128.36V100.987C283.145 100.416 282.681 99.9512 282.111 99.9512H282.109Z" fill="black"/>
<path d="M316.646 153.816C316.485 153.816 316.331 153.747 316.225 153.624C316.119 153.501 316.071 153.34 316.095 153.178L316.684 149.085H312.605C312.444 149.085 312.29 149.015 312.184 148.892C312.078 148.77 312.03 148.608 312.054 148.447L312.643 144.354H308.994C308.833 144.354 308.679 144.284 308.573 144.161C308.468 144.038 308.42 143.877 308.444 143.716L309.84 133.991C309.879 133.719 310.117 133.512 310.391 133.512H315.062C315.223 133.512 315.376 133.582 315.482 133.702C315.588 133.822 315.636 133.986 315.614 134.145L315.04 138.241H319.158C319.319 138.241 319.473 138.31 319.579 138.433C319.684 138.556 319.732 138.717 319.708 138.879L319.119 143.073H322.874L324.646 133.964C324.682 133.716 324.918 133.509 325.194 133.509H329.502L331.259 124.502C331.295 124.254 331.531 124.047 331.807 124.047H336.115L337.872 115.047C337.918 114.782 338.151 114.584 338.42 114.584H342.75L343.841 110.084C343.894 109.829 344.122 109.639 344.387 109.639H348.971C349.132 109.639 349.284 109.708 349.389 109.829C349.495 109.949 349.543 110.111 349.522 110.27L347.743 120.23C347.709 120.486 347.471 120.693 347.195 120.693H342.846L341.132 129.691C341.086 129.955 340.853 130.155 340.584 130.155H336.228L334.519 139.153C334.473 139.418 334.24 139.618 333.971 139.618H329.634L327.908 148.616C327.862 148.88 327.629 149.078 327.36 149.078H323.006L322.41 153.328C322.372 153.6 322.136 153.807 321.86 153.807H316.66L316.646 153.816Z" fill="white"/>
<path d="M348.961 110.123C349.007 110.123 349.043 110.164 349.036 110.21L347.262 120.149C347.257 120.188 347.223 120.217 347.187 120.217H342.504C342.466 120.217 342.434 120.246 342.43 120.282L340.653 129.612C340.648 129.65 340.615 129.677 340.579 129.677H335.889C335.85 129.677 335.819 129.706 335.814 129.742L334.042 139.072C334.038 139.11 334.004 139.137 333.968 139.137H329.297C329.259 139.137 329.227 139.166 329.223 139.202L327.432 148.532C327.427 148.57 327.393 148.597 327.357 148.597H322.65C322.612 148.597 322.581 148.626 322.576 148.662L321.929 153.261C321.924 153.299 321.891 153.326 321.855 153.326H316.655C316.609 153.326 316.573 153.285 316.58 153.239L317.234 148.681C317.241 148.635 317.205 148.595 317.16 148.595H312.612C312.566 148.595 312.53 148.554 312.537 148.508L313.191 143.95C313.198 143.904 313.162 143.863 313.116 143.863H309.001C308.955 143.863 308.919 143.822 308.926 143.777L310.323 134.052C310.328 134.013 310.361 133.987 310.398 133.987H315.068C315.114 133.987 315.15 134.028 315.143 134.073L314.503 138.631C314.496 138.677 314.532 138.718 314.578 138.718H319.16C319.205 138.718 319.242 138.759 319.234 138.805L318.58 143.464C318.573 143.509 318.609 143.55 318.655 143.55H323.208C323.246 143.55 323.278 143.521 323.282 143.485L325.119 134.054C325.124 134.016 325.158 133.989 325.194 133.989H329.836C329.874 133.989 329.905 133.96 329.91 133.924L331.732 124.594C331.737 124.555 331.771 124.529 331.807 124.529H336.446C336.485 124.529 336.516 124.5 336.521 124.464L338.343 115.134C338.348 115.095 338.381 115.069 338.418 115.069H343.124L344.307 110.188C344.312 110.15 344.346 110.123 344.382 110.123H348.966M348.961 109.16H344.377C343.889 109.16 343.466 109.507 343.362 109.979L342.362 114.106H338.413C337.913 114.106 337.48 114.469 337.391 114.958L335.711 123.566H331.8C331.3 123.566 330.867 123.929 330.778 124.418L329.098 133.026H325.186C324.686 133.026 324.254 133.39 324.165 133.881L322.47 142.59H319.667L320.179 138.942C320.22 138.643 320.131 138.342 319.934 138.116C319.737 137.89 319.451 137.757 319.15 137.757H315.585L316.083 134.211C316.124 133.912 316.035 133.611 315.838 133.385C315.64 133.158 315.354 133.028 315.054 133.028H310.383C309.871 133.028 309.429 133.411 309.357 133.919L307.96 143.644C307.917 143.943 308.006 144.244 308.203 144.472C308.4 144.701 308.686 144.831 308.986 144.831H312.08L311.571 148.375C311.527 148.674 311.616 148.975 311.813 149.204C312.011 149.432 312.297 149.562 312.597 149.562H316.124L315.614 153.107C315.571 153.405 315.66 153.706 315.857 153.935C316.054 154.164 316.34 154.294 316.64 154.294H321.84C322.355 154.294 322.797 153.909 322.867 153.398L323.405 149.562H327.34C327.843 149.562 328.275 149.197 328.362 148.705L330.013 140.1H333.953C334.456 140.1 334.889 139.734 334.975 139.24L336.607 130.637H340.564C341.067 130.637 341.499 130.271 341.586 129.78L343.225 121.177H347.177C347.685 121.177 348.12 120.807 348.201 120.308L349.976 110.378L349.98 110.357V110.335C350.021 110.039 349.93 109.74 349.733 109.514C349.536 109.29 349.252 109.16 348.954 109.16H348.961Z" fill="black"/>
<path d="M17.2703 0.601562H41.8407C48.4851 0.601562 53.502 1.12405 56.8916 2.16902C60.2811 3.21399 62.6994 4.72366 64.149 6.69562C65.5985 8.66999 66.3942 11.0585 66.5385 13.8635C66.6827 16.6686 66.2356 21.0122 65.1995 26.8944L63.7595 35.0784C62.7042 41.0761 61.3148 45.4486 59.596 48.1959C57.8748 50.9431 55.2353 53.0524 51.6727 54.5211C48.1101 55.9922 43.6652 56.7266 38.3334 56.7266H31.7851L25.1239 94.5671H0.726562L17.2703 0.601562ZM38.4295 16.6782L34.6241 38.2951C35.2467 38.3313 35.7852 38.3481 36.2396 38.3481C38.2636 38.3481 39.7589 37.8497 40.7204 36.8529C41.682 35.8561 42.4392 33.783 42.9945 30.636L44.2229 23.6583C44.735 20.7546 44.6124 18.8669 43.8575 17.9929C43.1027 17.1188 41.295 16.6806 38.4319 16.6806L38.4295 16.6782Z" fill="url(#paint0_linear_12956_8366)" stroke="black" stroke-width="1.17352" stroke-miterlimit="10"/>
<path d="M118.687 57.4234H88.3804L85.4477 74.0804C84.8347 77.562 84.6904 79.8084 85.015 80.8125C85.3395 81.8189 86.2169 82.3221 87.6472 82.3221C89.4237 82.3221 90.7291 81.6552 91.5632 80.3189C92.3974 78.985 93.1522 76.4014 93.8253 72.5707L95.6138 62.4147H117.807L116.804 68.1019C115.965 72.862 115.023 76.517 113.975 79.0717C112.927 81.6263 111.047 84.3519 108.333 87.2557C105.619 90.157 102.446 92.3336 98.811 93.7855C95.1739 95.2374 90.8084 95.9621 85.7097 95.9621C80.611 95.9621 76.5267 95.247 72.993 93.8144C69.4592 92.3842 66.8582 90.4195 65.1923 87.9226C63.5264 85.4258 62.5504 82.6809 62.2691 79.6808C61.9855 76.6831 62.3485 72.3203 63.3557 66.5922L67.3101 44.1301C68.4953 37.398 70.3367 32.0865 72.8391 28.1979C75.3392 24.3094 78.8369 21.331 83.337 19.2603C87.8347 17.1896 92.7676 16.1543 98.1379 16.1543C104.705 16.1543 109.903 17.4015 113.732 19.8984C117.562 22.3928 119.973 25.7011 120.965 29.8232C121.958 33.9429 121.8 39.7384 120.485 47.2049L118.687 57.4186V57.4234ZM97.4263 44.8862L98.4168 39.2568C99.1187 35.272 99.3591 32.6981 99.1379 31.5375C98.9168 30.377 98.1499 29.7967 96.8374 29.7967C95.2148 29.7967 94.1234 30.2903 93.5633 31.2775C93.0032 32.2647 92.3421 34.9252 91.58 39.2568L90.5896 44.8862H97.4263Z" fill="url(#paint1_linear_12956_8366)" stroke="black" stroke-width="1.29814" stroke-miterlimit="10"/>
<path d="M156.286 17.5503L153.577 27.6774C158.253 20.4252 163.854 16.5848 170.38 16.1562L165.609 43.2605C161.32 43.2605 158.07 43.8408 155.856 45.0013C153.642 46.1618 152.123 47.7775 151.293 49.8481C150.466 51.9188 149.394 56.6886 148.079 64.1551L142.726 94.5676H119.316L132.874 17.5503H156.284H156.286Z" fill="url(#paint2_linear_12956_8366)" stroke="black" stroke-width="1.29814" stroke-miterlimit="10"/>
<path d="M197.999 17.5499L196.304 24.8767C198.631 21.9706 201.177 19.7891 203.946 18.3372C206.713 16.8853 209.699 16.1582 212.906 16.1582C219.163 16.1582 223.577 19.0644 226.147 24.8791C228.63 21.973 231.233 19.7915 233.962 18.3396C236.69 16.8878 239.56 16.1606 242.575 16.1606C246.553 16.1606 249.676 17.1285 251.943 19.062C254.21 20.9978 255.462 23.3671 255.703 26.1721C255.943 28.9772 255.508 33.5351 254.397 39.841L244.762 94.5719H222.048L230.887 44.3676C232.046 37.7896 232.539 33.718 232.37 32.1506C232.202 30.5831 231.305 29.8006 229.685 29.8006C228.065 29.8006 226.815 30.5759 226.06 32.1217C225.305 33.6699 224.344 37.7511 223.18 44.3676L214.341 94.5719H191.626L200.24 45.6461C201.569 38.1002 202.182 33.5736 202.081 32.0639C201.98 30.5542 201.098 29.8006 199.437 29.8006C198.393 29.8006 197.434 30.1979 196.562 30.99C195.687 31.7846 195.112 32.7501 194.833 33.8914C194.554 35.0327 194.088 37.4597 193.434 41.1749L184.035 94.5719H161.32L174.878 17.5547H196.304L197.999 17.5499Z" fill="url(#paint3_linear_12956_8366)" stroke="black" stroke-width="1.29814" stroke-miterlimit="10"/>
<path d="M290.008 17.5498L276.45 94.5671H252.344L265.902 17.5498H290.008ZM292.992 0.601562L290.835 12.8475H266.729L268.885 0.601562H292.992Z" fill="url(#paint4_linear_12956_8366)" stroke="black" stroke-width="1.29814" stroke-miterlimit="10"/>
<path d="M324.426 7.27585L322.291 19.4062H328.607L326.46 31.5943H320.145L312.89 72.8008C311.998 77.8692 311.76 80.6935 312.181 81.2738C312.599 81.854 314.722 82.1454 318.546 82.1454L316.359 94.5646H306.914C301.582 94.5646 297.817 94.3431 295.615 93.8977C293.413 93.4547 291.586 92.4265 290.13 90.8206C288.673 89.2146 287.916 87.3774 287.855 85.3068C287.795 83.2385 288.44 78.37 289.788 70.7109L296.675 31.5919H291.634L293.781 19.4038H298.822L300.957 7.27344H324.424L324.426 7.27585Z" fill="url(#paint5_linear_12956_8366)" stroke="black" stroke-width="1.29814" stroke-miterlimit="10"/>
</g>
<defs>
<linearGradient id="paint0_linear_12956_8366" x1="26.2128" y1="99.0672" x2="43.7678" y2="-0.332665" gradientUnits="userSpaceOnUse">
<stop stop-color="#811CDA"/>
<stop offset="0.31" stop-color="#B77EE9"/>
<stop offset="0.62" stop-color="#EADAF9"/>
<stop offset="0.76" stop-color="white"/>
</linearGradient>
<linearGradient id="paint1_linear_12956_8366" x1="84.95" y1="96.5063" x2="99.2255" y2="15.6709" gradientUnits="userSpaceOnUse">
<stop stop-color="#811CDA"/>
<stop offset="0.31" stop-color="#B77EE9"/>
<stop offset="0.62" stop-color="#EADAF9"/>
<stop offset="0.76" stop-color="white"/>
</linearGradient>
<linearGradient id="paint2_linear_12956_8366" x1="137.387" y1="97.7579" x2="152.359" y2="12.9742" gradientUnits="userSpaceOnUse">
<stop stop-color="#811CDA"/>
<stop offset="0.31" stop-color="#B77EE9"/>
<stop offset="0.62" stop-color="#EADAF9"/>
<stop offset="0.76" stop-color="white"/>
</linearGradient>
<linearGradient id="paint3_linear_12956_8366" x1="201.783" y1="101.713" x2="217.727" y2="11.4381" gradientUnits="userSpaceOnUse">
<stop stop-color="#811CDA"/>
<stop offset="0.31" stop-color="#B77EE9"/>
<stop offset="0.62" stop-color="#EADAF9"/>
<stop offset="0.76" stop-color="white"/>
</linearGradient>
<linearGradient id="paint4_linear_12956_8366" x1="264.034" y1="96.6305" x2="281.357" y2="-1.4524" gradientUnits="userSpaceOnUse">
<stop stop-color="#811CDA"/>
<stop offset="0.31" stop-color="#B77EE9"/>
<stop offset="0.62" stop-color="#EADAF9"/>
<stop offset="0.76" stop-color="white"/>
</linearGradient>
<linearGradient id="paint5_linear_12956_8366" x1="298.483" y1="94.4105" x2="314.191" y2="5.469" gradientUnits="userSpaceOnUse">
<stop stop-color="#811CDA"/>
<stop offset="0.31" stop-color="#B77EE9"/>
<stop offset="0.62" stop-color="#EADAF9"/>
<stop offset="0.76" stop-color="white"/>
</linearGradient>
<clipPath id="clip0_12956_8366">
<rect width="350" height="155" fill="white"/>
</clipPath>
</defs>
</svg>
