<svg width="228" height="211" viewBox="0 0 228 211" fill="none" xmlns="http://www.w3.org/2000/svg">
<path d="M114 0.924979L136.259 35.5684L136.494 35.9345L136.889 35.7521L175.648 17.8588L174.338 58.2055L174.323 58.6702L174.785 58.719L217.689 63.2487L193.278 96.4949L192.987 96.8909L193.378 97.1886L226.82 122.658L187.042 138.295L186.595 138.471L186.753 138.925L200.161 177.268L157.602 170.311L157.16 170.239L157.04 170.67L146.129 209.753L114.326 182.371L114 182.09L113.674 182.371L81.8708 209.753L70.96 170.67L70.8396 170.239L70.3978 170.311L27.8385 177.268L41.2466 138.925L41.4055 138.471L40.9576 138.295L1.1801 122.658L34.6223 97.1886L35.0132 96.8909L34.7224 96.4949L10.3106 63.2487L53.2147 58.719L53.677 58.6702L53.6619 58.2055L52.3523 17.8588L91.111 35.7521L91.506 35.9345L91.7412 35.5684L114 0.924979Z" fill="#FFE59E" stroke="black"/>
</svg>
