<svg width="228" height="225" viewBox="0 0 228 225" fill="none" xmlns="http://www.w3.org/2000/svg">
<path d="M55.8095 18.5515L93.155 35.0148L93.4736 35.1552L93.6792 34.8742L117.968 1.66442L140.141 35.6789L140.334 35.975L140.663 35.8451L178.992 20.7072L178.961 61.4692L178.961 61.8271L179.312 61.8947L219.511 69.626L197.288 104.202L197.096 104.502L197.353 104.749L226.666 132.894L189.299 150.309L188.982 150.457L189.06 150.799L198.182 190.431L157.533 185.147L157.189 185.102L157.07 185.428L143.095 223.963L112.079 197.657L111.812 197.43L111.534 197.645L78.9024 222.838L67.3653 183.872L67.2641 183.531L66.9095 183.564L25.9892 187.423L37.5848 148.164L37.6862 147.821L37.3682 147.657L1.14591 128.962L32.1973 101.868L32.4636 101.636L32.2893 101.328L12.2593 66.0095L52.9149 59.6874L53.2589 59.6339L53.2805 59.2864L55.8095 18.5515Z" stroke="white" stroke-width="0.86593"/>
</svg>
