<svg width="21" height="1038" viewBox="0 0 21 1038" fill="none" xmlns="http://www.w3.org/2000/svg">
<path d="M5.59375 2.80117L6.99433 2.80117L6.99433 5.60234L18.199 5.60234L18.199 1.40058L15.3978 1.40058L15.3978 1.81209e-07L18.199 1.47806e-07L18.199 1.40058L19.5996 1.40058L19.5996 12.6053L18.199 12.6053L18.199 8.40351L6.99433 8.40351L6.99433 7.00292L5.59375 7.00292L5.59375 2.80117ZM5.59375 15.4051L6.99433 15.4051L6.99433 14.0045L12.5967 14.0045L12.5967 12.6039L13.9973 12.6039L13.9973 14.0045L15.3978 14.0045L15.3978 16.8056L6.99433 16.8056L6.99433 18.2062L8.39492 18.2062L8.39492 19.6068L9.7955 19.6068L9.7955 21.0074L15.3978 21.0074L15.3978 23.8086L8.39492 23.8086L8.39492 25.2092L9.7955 25.2092L9.7955 26.6097L8.39492 26.6097L8.39492 25.2092L6.99433 25.2092L6.99433 23.8086L5.59375 23.8086L5.59375 21.0074L8.39492 21.0074L8.39492 19.6068L6.99433 19.6068L6.99433 18.2062L5.59375 18.2062L5.59375 15.4051ZM5.59375 28.0117L12.5967 28.0117L12.5967 26.6111L13.9973 26.6111L13.9973 28.0117L15.3978 28.0117L15.3978 30.8129L13.9973 30.8129L13.9973 32.2134L15.3978 32.2134L15.3978 35.0146L13.9973 35.0146L13.9973 32.2134L12.5967 32.2134L12.5967 30.8129L8.39492 30.8129L8.39492 32.2134L6.99434 32.2134L6.99434 30.8129L5.59375 30.8129L5.59375 28.0117ZM5.59375 37.809L12.5967 37.809L12.5967 36.4084L13.9973 36.4084L13.9973 37.809L15.3978 37.809L15.3978 40.6101L12.5967 40.6101L12.5967 42.0107L13.9973 42.0107L13.9973 43.4113L15.3978 43.4113L15.3978 47.613L8.39492 47.613L8.39492 49.0136L9.7955 49.0136L9.7955 50.4142L8.39492 50.4142L8.39492 49.0136L6.99434 49.0136L6.99434 47.613L5.59375 47.613L5.59375 44.8119L13.9973 44.8119L13.9973 43.4113L12.5967 43.4113L12.5967 42.0107L11.1961 42.0107L11.1961 40.6101L5.59375 40.6101L5.59375 37.809ZM16.7984 58.8068L18.199 58.8068L18.199 60.2074L19.5996 60.2074L19.5996 61.6079L18.199 61.6079L18.199 60.2074L16.7984 60.2074L16.7984 58.8068ZM5.59375 58.8068L12.5967 58.8068L12.5967 57.4062L13.9973 57.4062L13.9973 58.8068L15.3978 58.8068L15.3978 61.6079L6.99434 61.6079L6.99434 63.0085L8.39492 63.0085L8.39492 64.4091L9.7955 64.4091L9.7955 65.8097L8.39492 65.8097L8.39492 64.4091L6.99434 64.4091L6.99434 63.0085L5.59375 63.0085L5.59375 58.8068ZM5.59375 67.2007L12.5967 67.2007L12.5967 65.8001L13.9973 65.8001L13.9973 67.2007L15.3978 67.2007L15.3978 70.0019L12.5967 70.0019L12.5967 71.4025L13.9973 71.4025L13.9973 72.8031L15.3978 72.8031L15.3978 77.0048L8.39492 77.0048L8.39492 78.4054L9.79551 78.4054L9.79551 79.806L8.39492 79.806L8.39492 78.4054L6.99434 78.4054L6.99434 77.0048L5.59375 77.0048L5.59375 74.2036L13.9973 74.2036L13.9973 72.8031L12.5967 72.8031L12.5967 71.4025L11.1961 71.4025L11.1961 70.0019L5.59375 70.0019L5.59375 67.2007ZM2.79258 82.6085L4.19317 82.6085L4.19317 84.0091L5.59375 84.0091L5.59375 82.6085L8.39492 82.6085L8.39492 85.4097L4.19317 85.4097L4.19317 84.0091L2.79258 84.0091L2.79258 82.6085ZM6.99434 95.1919L8.39492 95.1919L8.39492 96.5925L6.99434 96.5925L6.99434 100.794L9.79551 100.794L9.79551 96.5925L11.1961 96.5925L11.1961 95.1919L13.9973 95.1919L13.9973 96.5925L15.3978 96.5925L15.3978 102.195L13.9973 102.195L13.9973 103.595L12.5967 103.595L12.5967 102.195L13.9973 102.195L13.9973 97.9931L11.1961 97.9931L11.1961 102.195L9.79551 102.195L9.79551 103.595L6.99434 103.595L6.99434 102.195L5.59375 102.195L5.59375 96.5925L6.99434 96.5925L6.99434 95.1919ZM5.59375 107.79L6.99434 107.79L6.99434 106.39L12.5967 106.39L12.5967 104.989L13.9973 104.989L13.9973 106.39L15.3978 106.39L15.3978 109.191L6.99434 109.191L6.99434 110.591L8.39492 110.591L8.39492 111.992L9.79551 111.992L9.79551 113.393L15.3978 113.393L15.3978 116.194L8.39492 116.194L8.39492 117.594L9.79551 117.594L9.79551 118.995L8.39492 118.995L8.39492 117.594L6.99434 117.594L6.99434 116.194L5.59375 116.194L5.59375 113.393L8.39492 113.393L8.39492 111.992L6.99434 111.992L6.99434 110.591L5.59375 110.591L5.59375 107.79ZM6.99434 121.798L6.99434 124.599L8.39492 124.599L8.39492 125.999L13.8852 125.999L13.8852 123.31L12.5967 123.31L12.5967 121.798L6.99434 121.798ZM5.59375 118.996L19.5996 118.996L19.5996 120.397L21.0002 120.397L21.0002 124.599L19.5996 124.599L19.5996 121.798L13.9973 121.798L13.9973 123.198L15.3978 123.198L15.3978 127.4L13.9973 127.4L13.9973 128.8L8.39492 128.8L8.39492 127.4L6.99434 127.4L6.99434 125.999L5.59375 125.999L5.59375 118.996ZM6.99434 130.197L8.39492 130.197L8.39492 131.598L6.99434 131.598L6.99434 135.799L9.79551 135.799L9.79551 131.598L11.1961 131.598L11.1961 130.197L13.9973 130.197L13.9973 131.598L15.3978 131.598L15.3978 137.2L13.9973 137.2L13.9973 138.6L12.5967 138.6L12.5967 137.2L13.9973 137.2L13.9973 132.998L11.1961 132.998L11.1961 137.2L9.79551 137.2L9.79551 138.6L6.99434 138.6L6.99434 137.2L5.59375 137.2L5.59375 131.598L6.99434 131.598L6.99434 130.197ZM5.59375 141.395L6.99434 141.395L6.99434 139.994L13.9973 139.994L13.9973 141.395L15.3978 141.395L15.3978 148.398L12.5967 148.398L12.5967 146.997L13.9973 146.997L13.9973 142.795L6.99434 142.795L6.99434 145.597L8.39492 145.597L8.39492 146.997L9.79551 146.997L9.79551 148.398L8.39492 148.398L8.39492 146.997L6.99434 146.997L6.99434 145.597L5.59375 145.597L5.59375 141.395ZM5.59375 151.192L12.5967 151.192L12.5967 149.791L13.9973 149.791L13.9973 151.192L15.3978 151.192L15.3978 153.993L13.9973 153.993L13.9973 155.394L15.3978 155.394L15.3978 158.195L13.9973 158.195L13.9973 155.394L12.5967 155.394L12.5967 153.993L8.39492 153.993L8.39492 155.394L6.99434 155.394L6.99434 153.993L5.59375 153.993L5.59375 151.192ZM16.7984 160.989L18.199 160.989L18.199 162.39L19.5996 162.39L19.5996 163.79L18.199 163.79L18.199 162.39L16.7984 162.39L16.7984 160.989ZM5.59375 160.989L12.5967 160.989L12.5967 159.589L13.9973 159.589L13.9973 160.989L15.3978 160.989L15.3978 163.79L6.99434 163.79L6.99434 165.191L8.39492 165.191L8.39492 166.592L9.79551 166.592L9.79551 167.992L8.39492 167.992L8.39492 166.592L6.99434 166.592L6.99434 165.191L5.59375 165.191L5.59375 160.989ZM6.99434 170.784L6.99434 173.585L8.39492 173.585L8.39492 174.986L13.8852 174.986L13.8852 172.296L12.5967 172.296L12.5967 170.784L6.99434 170.784ZM5.59375 167.983L19.5996 167.983L19.5996 169.383L21.0002 169.383L21.0002 173.585L19.5996 173.585L19.5996 170.784L13.9973 170.784L13.9973 172.184L15.3978 172.184L15.3978 176.386L13.9973 176.386L13.9973 177.787L8.39492 177.787L8.39492 176.386L6.99434 176.386L6.99434 174.986L5.59375 174.986L5.59375 167.983ZM9.90755 181.984L9.90755 183.273L11.3081 183.273L11.3081 184.674L12.7087 184.674L12.7087 186.074L13.9973 186.074L13.9973 181.984L9.90755 181.984ZM6.99434 179.183L13.9973 179.183L13.9973 180.584L15.3978 180.584L15.3978 187.587L12.5967 187.587L12.5967 186.186L11.1961 186.186L11.1961 184.786L9.79551 184.786L9.79551 183.385L8.39492 183.385L8.39492 181.984L6.99434 181.984L6.99434 186.186L8.39492 186.186L8.39492 187.587L9.79551 187.587L9.79551 188.987L8.39492 188.987L8.39492 187.587L6.99434 187.587L6.99434 186.186L5.59375 186.186L5.59375 180.584L6.99434 180.584L6.99434 179.183ZM2.79258 191.782L4.19317 191.782L4.19317 193.182L5.59375 193.182L5.59375 191.782L8.39492 191.782L8.39492 194.583L4.19317 194.583L4.19317 193.182L2.79258 193.182L2.79258 191.782ZM5.59375 205.766L12.5967 205.766L12.5967 204.365L13.9973 204.365L13.9973 205.766L15.3978 205.766L15.3978 207.166L13.9973 207.166L13.9973 208.567L8.39492 208.567L8.39492 209.967L9.79551 209.967L9.79551 211.368L11.1961 211.368L11.1961 212.769L12.5967 212.769L12.5967 211.368L13.9973 211.368L13.9973 212.769L15.3978 212.769L15.3978 214.169L13.9973 214.169L13.9973 215.57L6.99434 215.57L6.99434 216.97L8.39492 216.97L8.39492 218.371L9.79551 218.371L9.79551 219.771L12.5967 219.771L12.5967 218.371L13.9973 218.371L13.9973 219.771L15.3978 219.771L15.3978 221.172L13.9973 221.172L13.9973 222.573L11.1961 222.573L11.1961 221.172L9.79551 221.172L9.79551 219.771L8.39492 219.771L8.39492 218.371L6.99434 218.371L6.99434 216.97L5.59375 216.97L5.59375 212.769L9.79551 212.769L9.79551 211.368L8.39492 211.368L8.39492 209.967L6.99434 209.967L6.99434 208.567L5.59375 208.567L5.59375 205.766ZM16.7984 225.386L18.199 225.386L18.199 226.787L19.5996 226.787L19.5996 228.187L18.199 228.187L18.199 226.787L16.7984 226.787L16.7984 225.386ZM5.59375 225.386L12.5967 225.386L12.5967 223.986L13.9973 223.986L13.9973 225.386L15.3978 225.386L15.3978 228.187L6.99434 228.187L6.99434 229.588L8.39492 229.588L8.39492 230.988L9.79551 230.988L9.79551 232.389L8.39492 232.389L8.39492 230.988L6.99434 230.988L6.99434 229.588L5.59375 229.588L5.59375 225.386ZM5.59375 233.78L12.5967 233.78L12.5967 232.379L13.9973 232.379L13.9973 233.78L15.3978 233.78L15.3978 236.581L12.5967 236.581L12.5967 237.982L13.9973 237.982L13.9973 239.382L15.3978 239.382L15.3978 243.584L8.39492 243.584L8.39492 244.985L9.79551 244.985L9.79551 246.385L8.39492 246.385L8.39492 244.985L6.99434 244.985L6.99434 243.584L5.59375 243.584L5.59375 240.783L13.9973 240.783L13.9973 239.382L12.5967 239.382L12.5967 237.982L11.1961 237.982L11.1961 236.581L5.59375 236.581L5.59375 233.78ZM6.99434 257.579L6.99434 260.38L8.39492 260.38L8.39492 261.781L13.8852 261.781L13.8852 259.092L12.5967 259.092L12.5967 257.579L6.99434 257.579ZM1.392 253.377L1.392 254.778L12.5967 254.778L12.5967 253.377L13.9973 253.377L13.9973 254.778L15.3978 254.778L15.3978 257.579L13.9973 257.579L13.9973 258.98L15.3978 258.98L15.3978 263.181L13.9973 263.181L13.9973 264.582L8.39492 264.582L8.39492 263.181L6.99434 263.181L6.99434 261.781L5.59375 261.781L5.59375 257.579L1.392 257.579L1.392 256.178L-0.00858568 256.178L-0.00858572 253.377L1.392 253.377ZM5.59375 267.382L12.5967 267.382L12.5967 265.981L13.9973 265.981L13.9973 267.382L15.3978 267.382L15.3978 270.183L13.9973 270.183L13.9973 271.584L15.3978 271.584L15.3978 274.385L13.9973 274.385L13.9973 271.584L12.5967 271.584L12.5967 270.183L8.39492 270.183L8.39492 271.584L6.99434 271.584L6.99434 270.183L5.59375 270.183L5.59375 267.382ZM16.7984 277.179L18.199 277.179L18.199 278.58L19.5996 278.58L19.5996 279.98L18.199 279.98L18.199 278.58L16.7984 278.58L16.7984 277.179ZM5.59375 277.179L12.5967 277.179L12.5967 275.778L13.9973 275.778L13.9973 277.179L15.3978 277.179L15.3978 279.98L6.99434 279.98L6.99434 281.381L8.39492 281.381L8.39492 282.781L9.79551 282.781L9.79551 284.182L8.39492 284.182L8.39492 282.781L6.99434 282.781L6.99434 281.381L5.59375 281.381L5.59375 277.179ZM5.59375 284.172L6.99434 284.172L6.99434 285.573L8.39492 285.573L8.39492 286.974L9.79551 286.974L9.79551 288.374L11.1961 288.374L11.1961 289.775L12.5967 289.775L12.5967 291.175L13.9973 291.175L13.9973 285.573L12.5967 285.573L12.5967 284.172L13.9973 284.172L13.9973 285.573L15.3978 285.573L15.3978 293.976L12.5967 293.976L12.5967 292.576L11.1961 292.576L11.1961 291.175L9.79551 291.175L9.79551 289.775L8.39492 289.775L8.39492 288.374L6.99434 288.374L6.99434 293.976L8.39492 293.976L8.39492 295.377L6.99434 295.377L6.99434 293.976L5.59375 293.976L5.59375 284.172ZM9.90755 298.174L9.90755 299.463L11.3081 299.463L11.3081 300.863L12.7087 300.863L12.7087 302.264L13.9973 302.264L13.9973 298.174L9.90755 298.174ZM6.99434 295.373L13.9973 295.373L13.9973 296.774L15.3978 296.774L15.3978 303.776L12.5967 303.776L12.5967 302.376L11.1961 302.376L11.1961 300.975L9.79551 300.975L9.79551 299.575L8.39492 299.575L8.39492 298.174L6.99434 298.174L6.99434 302.376L8.39492 302.376L8.39492 303.776L9.79551 303.776L9.79551 305.177L8.39492 305.177L8.39492 303.776L6.99434 303.776L6.99434 302.376L5.59375 302.376L5.59375 296.774L6.99434 296.774L6.99434 295.373ZM6.99434 305.17L8.39492 305.17L8.39492 306.571L6.99434 306.571L6.99434 310.773L9.79551 310.773L9.79551 306.571L11.1961 306.571L11.1961 305.17L13.9973 305.17L13.9973 306.571L15.3978 306.571L15.3978 312.173L13.9973 312.173L13.9973 313.574L12.5967 313.574L12.5967 312.173L13.9973 312.173L13.9973 307.971L11.1961 307.971L11.1961 312.173L9.79551 312.173L9.79551 313.574L6.99434 313.574L6.99434 312.173L5.59375 312.173L5.59375 306.571L6.99434 306.571L6.99434 305.17ZM9.79551 317.769L19.5996 317.769L19.5996 320.57L9.79551 320.57L9.79551 317.769ZM5.59375 317.769L8.39492 317.769L8.39492 320.57L5.59375 320.57L5.59375 317.769ZM4.19317 330.349L6.99434 330.349L6.99434 331.75L9.79551 331.75L9.79551 333.15L12.5967 333.15L12.5967 334.551L15.3978 334.551L15.3978 335.952L18.199 335.952L18.199 337.352L19.5996 337.352L19.5996 338.753L16.7984 338.753L16.7984 337.352L13.9973 337.352L13.9973 335.952L11.1961 335.952L11.1961 334.551L8.39492 334.551L8.39492 333.15L5.59375 333.15L5.59375 331.75L4.19317 331.75L4.19317 330.349ZM4.19317 341.55L6.99434 341.55L6.99434 342.95L9.79551 342.95L9.79551 344.351L12.5967 344.351L12.5967 345.752L15.3978 345.752L15.3978 347.152L18.199 347.152L18.199 348.553L19.5996 348.553L19.5996 349.953L16.7984 349.953L16.7984 348.553L13.9973 348.553L13.9973 347.152L11.1961 347.152L11.1961 345.752L8.39492 345.752L8.39492 344.351L5.59375 344.351L5.59375 342.95L4.19317 342.95L4.19317 341.55ZM5.59375 361.142L6.99434 361.142L6.99434 363.943L18.199 363.943L18.199 359.741L15.3978 359.741L15.3978 358.34L18.199 358.34L18.199 359.741L19.5996 359.741L19.5996 370.946L18.199 370.946L18.199 366.744L6.99434 366.744L6.99434 365.343L5.59375 365.343L5.59375 361.142ZM5.59375 373.745L6.99434 373.745L6.99434 372.345L12.5967 372.345L12.5967 370.944L13.9973 370.944L13.9973 372.345L15.3978 372.345L15.3978 375.146L6.99434 375.146L6.99434 376.547L8.39492 376.547L8.39492 377.947L9.79551 377.947L9.79551 379.348L15.3978 379.348L15.3978 382.149L8.39492 382.149L8.39492 383.55L9.79551 383.55L9.79551 384.95L8.39492 384.95L8.39492 383.55L6.99434 383.55L6.99434 382.149L5.59375 382.149L5.59375 379.348L8.39492 379.348L8.39492 377.947L6.99434 377.947L6.99434 376.547L5.59375 376.547L5.59375 373.745ZM5.59375 386.352L12.5967 386.352L12.5967 384.952L13.9973 384.952L13.9973 386.352L15.3978 386.352L15.3978 389.153L13.9973 389.153L13.9973 390.554L15.3978 390.554L15.3978 393.355L13.9973 393.355L13.9973 390.554L12.5967 390.554L12.5967 389.153L8.39492 389.153L8.39492 390.554L6.99434 390.554L6.99434 389.153L5.59375 389.153L5.59375 386.352ZM5.59375 396.149L12.5967 396.149L12.5967 394.749L13.9973 394.749L13.9973 396.149L15.3978 396.149L15.3978 398.951L12.5967 398.951L12.5967 400.351L13.9973 400.351L13.9973 401.752L15.3978 401.752L15.3978 405.953L8.39492 405.953L8.39492 407.354L9.79551 407.354L9.79551 408.755L8.39492 408.755L8.39492 407.354L6.99434 407.354L6.99434 405.953L5.59375 405.953L5.59375 403.152L13.9973 403.152L13.9973 401.752L12.5967 401.752L12.5967 400.351L11.1961 400.351L11.1961 398.951L5.59375 398.951L5.59375 396.149ZM16.7984 417.147L18.199 417.147L18.199 418.548L19.5996 418.548L19.5996 419.948L18.199 419.948L18.199 418.548L16.7984 418.548L16.7984 417.147ZM5.59375 417.147L12.5967 417.147L12.5967 415.747L13.9973 415.747L13.9973 417.147L15.3978 417.147L15.3978 419.948L6.99434 419.948L6.99434 421.349L8.39492 421.349L8.39492 422.75L9.79551 422.75L9.79551 424.15L8.39492 424.15L8.39492 422.75L6.99434 422.75L6.99434 421.349L5.59376 421.349L5.59375 417.147ZM5.59376 425.541L12.5967 425.541L12.5967 424.141L13.9973 424.141L13.9973 425.541L15.3978 425.541L15.3978 428.342L12.5967 428.342L12.5967 429.743L13.9973 429.743L13.9973 431.143L15.3978 431.143L15.3978 435.345L8.39492 435.345L8.39492 436.746L9.79551 436.746L9.79551 438.146L8.39492 438.146L8.39492 436.746L6.99434 436.746L6.99434 435.345L5.59376 435.345L5.59376 432.544L13.9973 432.544L13.9973 431.143L12.5967 431.143L12.5967 429.743L11.1961 429.743L11.1961 428.342L5.59376 428.342L5.59376 425.541ZM2.79259 440.949L4.19317 440.949L4.19317 442.35L5.59376 442.35L5.59376 440.949L8.39492 440.949L8.39492 443.75L4.19317 443.75L4.19317 442.35L2.79259 442.35L2.79259 440.949ZM6.99434 453.532L8.39492 453.532L8.39492 454.933L6.99434 454.933L6.99434 459.135L9.79551 459.135L9.79551 454.933L11.1961 454.933L11.1961 453.532L13.9973 453.532L13.9973 454.933L15.3978 454.933L15.3978 460.535L13.9973 460.535L13.9973 461.936L12.5967 461.936L12.5967 460.535L13.9973 460.535L13.9973 456.333L11.1961 456.333L11.1961 460.535L9.79551 460.535L9.79551 461.936L6.99434 461.936L6.99434 460.535L5.59376 460.535L5.59376 454.933L6.99434 454.933L6.99434 453.532ZM5.59376 466.131L6.99434 466.131L6.99434 464.73L12.5967 464.73L12.5967 463.33L13.9973 463.33L13.9973 464.73L15.3978 464.73L15.3978 467.531L6.99434 467.531L6.99434 468.932L8.39492 468.932L8.39492 470.332L9.79551 470.332L9.79551 471.733L15.3978 471.733L15.3978 474.534L8.39493 474.534L8.39493 475.935L9.79551 475.935L9.79551 477.335L8.39493 477.335L8.39493 475.935L6.99434 475.935L6.99434 474.534L5.59376 474.534L5.59376 471.733L8.39492 471.733L8.39492 470.332L6.99434 470.332L6.99434 468.932L5.59376 468.932L5.59376 466.131ZM6.99434 480.138L6.99434 482.939L8.39493 482.939L8.39493 484.34L13.8852 484.34L13.8852 481.651L12.5967 481.651L12.5967 480.138L6.99434 480.138ZM5.59376 477.337L19.5996 477.337L19.5996 478.737L21.0002 478.737L21.0002 482.939L19.5996 482.939L19.5996 480.138L13.9973 480.138L13.9973 481.539L15.3978 481.539L15.3978 485.74L13.9973 485.74L13.9973 487.141L8.39493 487.141L8.39493 485.74L6.99434 485.74L6.99434 484.34L5.59376 484.34L5.59376 477.337ZM6.99434 488.537L8.39493 488.537L8.39493 489.938L6.99434 489.938L6.99434 494.14L9.79551 494.14L9.79551 489.938L11.1961 489.938L11.1961 488.537L13.9973 488.537L13.9973 489.938L15.3978 489.938L15.3978 495.54L13.9973 495.54L13.9973 496.941L12.5967 496.941L12.5967 495.54L13.9973 495.54L13.9973 491.339L11.1961 491.339L11.1961 495.54L9.79551 495.54L9.79551 496.941L6.99434 496.941L6.99434 495.54L5.59376 495.54L5.59376 489.938L6.99434 489.938L6.99434 488.537ZM5.59376 499.735L6.99434 499.735L6.99434 498.335L13.9973 498.335L13.9973 499.735L15.3978 499.735L15.3978 506.738L12.5967 506.738L12.5967 505.338L13.9973 505.338L13.9973 501.136L6.99434 501.136L6.99434 503.937L8.39493 503.937L8.39493 505.338L9.79551 505.338L9.79551 506.738L8.39493 506.738L8.39493 505.338L6.99434 505.338L6.99434 503.937L5.59376 503.937L5.59376 499.735ZM5.59376 509.532L12.5967 509.532L12.5967 508.132L13.9973 508.132L13.9973 509.532L15.3978 509.532L15.3978 512.334L13.9973 512.334L13.9973 513.734L15.3978 513.734L15.3978 516.535L13.9973 516.535L13.9973 513.734L12.5967 513.734L12.5967 512.334L8.39493 512.334L8.39493 513.734L6.99434 513.734L6.99434 512.334L5.59376 512.334L5.59376 509.532ZM16.7984 519.33L18.199 519.33L18.199 520.73L19.5996 520.73L19.5996 522.131L18.199 522.131L18.199 520.73L16.7984 520.73L16.7984 519.33ZM5.59376 519.33L12.5967 519.33L12.5967 517.929L13.9973 517.929L13.9973 519.33L15.3978 519.33L15.3978 522.131L6.99434 522.131L6.99434 523.531L8.39493 523.531L8.39493 524.932L9.79551 524.932L9.79551 526.333L8.39493 526.333L8.39493 524.932L6.99434 524.932L6.99434 523.531L5.59376 523.531L5.59376 519.33ZM6.99434 529.124L6.99434 531.925L8.39493 531.925L8.39493 533.326L13.8852 533.326L13.8852 530.637L12.5967 530.637L12.5967 529.124L6.99434 529.124ZM5.59376 526.323L19.5996 526.323L19.5996 527.724L21.0002 527.724L21.0002 531.925L19.5996 531.925L19.5996 529.124L13.9973 529.124L13.9973 530.525L15.3978 530.525L15.3978 534.727L13.9973 534.727L13.9973 536.127L8.39493 536.127L8.39493 534.727L6.99434 534.727L6.99434 533.326L5.59376 533.326L5.59376 526.323ZM9.90756 540.325L9.90756 541.613L11.3081 541.613L11.3081 543.014L12.7087 543.014L12.7087 544.414L13.9973 544.414L13.9973 540.325L9.90756 540.325ZM6.99434 537.524L13.9973 537.524L13.9973 538.924L15.3978 538.924L15.3978 545.927L12.5967 545.927L12.5967 544.527L11.1961 544.527L11.1961 543.126L9.79551 543.126L9.79551 541.725L8.39493 541.725L8.39493 540.325L6.99434 540.325L6.99434 544.527L8.39493 544.527L8.39493 545.927L9.79551 545.927L9.79551 547.328L8.39493 547.328L8.39493 545.927L6.99434 545.927L6.99434 544.527L5.59376 544.527L5.59376 538.924L6.99434 538.924L6.99434 537.524ZM2.79259 550.122L4.19317 550.122L4.19317 551.523L5.59376 551.523L5.59376 550.122L8.39493 550.122L8.39493 552.923L4.19317 552.923L4.19317 551.523L2.79259 551.523L2.79259 550.122ZM5.59376 564.106L12.5967 564.106L12.5967 562.705L13.9973 562.705L13.9973 564.106L15.3979 564.106L15.3979 565.507L13.9973 565.507L13.9973 566.907L8.39493 566.907L8.39493 568.308L9.79551 568.308L9.79551 569.708L11.1961 569.708L11.1961 571.109L12.5967 571.109L12.5967 569.708L13.9973 569.708L13.9973 571.109L15.3979 571.109L15.3979 572.51L13.9973 572.51L13.9973 573.91L6.99434 573.91L6.99434 575.311L8.39493 575.311L8.39493 576.711L9.79551 576.711L9.79551 578.112L12.5967 578.112L12.5967 576.711L13.9973 576.711L13.9973 578.112L15.3979 578.112L15.3979 579.512L13.9973 579.512L13.9973 580.913L11.1961 580.913L11.1961 579.512L9.79551 579.512L9.79551 578.112L8.39493 578.112L8.39493 576.711L6.99434 576.711L6.99434 575.311L5.59376 575.311L5.59376 571.109L9.79551 571.109L9.79551 569.708L8.39493 569.708L8.39493 568.308L6.99434 568.308L6.99434 566.907L5.59376 566.907L5.59376 564.106ZM16.7984 583.727L18.199 583.727L18.199 585.127L19.5996 585.127L19.5996 586.528L18.199 586.528L18.199 585.127L16.7984 585.127L16.7984 583.727ZM5.59376 583.727L12.5967 583.727L12.5967 582.326L13.9973 582.326L13.9973 583.727L15.3979 583.727L15.3979 586.528L6.99434 586.528L6.99434 587.928L8.39493 587.928L8.39493 589.329L9.79551 589.329L9.79551 590.729L8.39493 590.729L8.39493 589.329L6.99434 589.329L6.99434 587.928L5.59376 587.928L5.59376 583.727ZM5.59376 592.12L12.5967 592.12L12.5967 590.72L13.9973 590.72L13.9973 592.12L15.3979 592.12L15.3979 594.922L12.5967 594.922L12.5967 596.322L13.9973 596.322L13.9973 597.723L15.3979 597.723L15.3979 601.925L8.39493 601.925L8.39493 603.325L9.79551 603.325L9.79551 604.726L8.39493 604.726L8.39493 603.325L6.99434 603.325L6.99434 601.925L5.59376 601.925L5.59376 599.123L13.9973 599.123L13.9973 597.723L12.5967 597.723L12.5967 596.322L11.1961 596.322L11.1961 594.922L5.59376 594.922L5.59376 592.12ZM6.99434 615.919L6.99434 618.721L8.39493 618.721L8.39493 620.121L13.8852 620.121L13.8852 617.432L12.5967 617.432L12.5967 615.919L6.99434 615.919ZM1.392 611.718L1.392 613.118L12.5967 613.118L12.5967 611.718L13.9973 611.718L13.9973 613.118L15.3979 613.118L15.3979 615.919L13.9973 615.919L13.9973 617.32L15.3979 617.32L15.3979 621.522L13.9973 621.522L13.9973 622.922L8.39493 622.922L8.39493 621.522L6.99434 621.522L6.99434 620.121L5.59376 620.121L5.59376 615.919L1.392 615.919L1.392 614.519L-0.00858141 614.519L-0.00858144 611.718L1.392 611.718ZM5.59376 625.722L12.5967 625.722L12.5967 624.322L13.9973 624.322L13.9973 625.722L15.3979 625.722L15.3979 628.523L13.9973 628.523L13.9973 629.924L15.3979 629.924L15.3979 632.725L13.9973 632.725L13.9973 629.924L12.5967 629.924L12.5967 628.523L8.39493 628.523L8.39493 629.924L6.99434 629.924L6.99434 628.523L5.59376 628.523L5.59376 625.722ZM16.7984 635.519L18.199 635.519L18.199 636.92L19.5996 636.92L19.5996 638.321L18.199 638.321L18.199 636.92L16.7984 636.92L16.7984 635.519ZM5.59376 635.519L12.5967 635.519L12.5967 634.119L13.9973 634.119L13.9973 635.519L15.3979 635.519L15.3979 638.321L6.99434 638.321L6.99434 639.721L8.39493 639.721L8.39493 641.122L9.79551 641.122L9.79551 642.522L8.39493 642.522L8.39493 641.122L6.99434 641.122L6.99434 639.721L5.59376 639.721L5.59376 635.519ZM5.59376 642.513L6.99434 642.513L6.99434 643.913L8.39493 643.913L8.39493 645.314L9.79551 645.314L9.79551 646.715L11.1961 646.715L11.1961 648.115L12.5967 648.115L12.5967 649.516L13.9973 649.516L13.9973 643.913L12.5967 643.913L12.5967 642.513L13.9973 642.513L13.9973 643.913L15.3979 643.913L15.3979 652.317L12.5967 652.317L12.5967 650.916L11.1961 650.916L11.1961 649.516L9.79551 649.516L9.79551 648.115L8.39493 648.115L8.39493 646.715L6.99434 646.715L6.99434 652.317L8.39493 652.317L8.39493 653.717L6.99434 653.717L6.99434 652.317L5.59376 652.317L5.59376 642.513ZM9.90756 656.515L9.90756 657.803L11.3081 657.803L11.3081 659.204L12.7087 659.204L12.7087 660.604L13.9973 660.604L13.9973 656.515L9.90756 656.515ZM6.99434 653.713L13.9973 653.713L13.9973 655.114L15.3979 655.114L15.3979 662.117L12.5967 662.117L12.5967 660.716L11.1961 660.716L11.1961 659.316L9.79551 659.316L9.79551 657.915L8.39493 657.915L8.39493 656.515L6.99434 656.515L6.99434 660.716L8.39493 660.716L8.39493 662.117L9.79551 662.117L9.79551 663.517L8.39493 663.517L8.39493 662.117L6.99434 662.117L6.99434 660.716L5.59376 660.716L5.59376 655.114L6.99434 655.114L6.99434 653.713ZM6.99434 663.511L8.39493 663.511L8.39493 664.911L6.99434 664.911L6.99434 669.113L9.79551 669.113L9.79551 664.911L11.1961 664.911L11.1961 663.511L13.9973 663.511L13.9973 664.911L15.3979 664.911L15.3979 670.514L13.9973 670.514L13.9973 671.914L12.5967 671.914L12.5967 670.514L13.9973 670.514L13.9973 666.312L11.1961 666.312L11.1961 670.514L9.79551 670.514L9.79551 671.914L6.99434 671.914L6.99434 670.514L5.59376 670.514L5.59376 664.911L6.99434 664.911L6.99434 663.511ZM9.79551 676.109L19.5996 676.109L19.5996 678.91L9.79551 678.91L9.79551 676.109ZM5.59376 676.109L8.39493 676.109L8.39493 678.91L5.59376 678.91L5.59376 676.109ZM4.19317 688.69L6.99434 688.69L6.99434 690.09L9.79551 690.09L9.79551 691.491L12.5967 691.491L12.5967 692.891L15.3979 692.891L15.3979 694.292L18.199 694.292L18.199 695.693L19.5996 695.693L19.5996 697.093L16.7984 697.093L16.7984 695.693L13.9973 695.693L13.9973 694.292L11.1961 694.292L11.1961 692.891L8.39493 692.891L8.39493 691.491L5.59376 691.491L5.59376 690.09L4.19317 690.09L4.19317 688.69ZM4.19317 699.89L6.99434 699.89L6.99434 701.291L9.79551 701.291L9.79551 702.691L12.5967 702.691L12.5967 704.092L15.3979 704.092L15.3979 705.493L18.199 705.493L18.199 706.893L19.5996 706.893L19.5996 708.294L16.7984 708.294L16.7984 706.893L13.9973 706.893L13.9973 705.493L11.1961 705.493L11.1961 704.092L8.39493 704.092L8.39493 702.691L5.59376 702.691L5.59376 701.291L4.19317 701.291L4.19317 699.89ZM5.59376 719.482L6.99434 719.482L6.99434 722.283L18.199 722.283L18.199 718.081L15.3979 718.081L15.3979 716.681L18.199 716.681L18.199 718.081L19.5996 718.081L19.5996 729.286L18.199 729.286L18.199 725.084L6.99434 725.084L6.99434 723.684L5.59376 723.684L5.59376 719.482ZM5.59376 732.086L6.99434 732.086L6.99434 730.685L12.5967 730.685L12.5967 729.285L13.9973 729.285L13.9973 730.685L15.3979 730.685L15.3979 733.486L6.99434 733.486L6.99434 734.887L8.39493 734.887L8.39493 736.288L9.79551 736.288L9.79551 737.688L15.3979 737.688L15.3979 740.489L8.39493 740.489L8.39493 741.89L9.79551 741.89L9.79551 743.291L8.39493 743.291L8.39493 741.89L6.99434 741.89L6.99434 740.489L5.59376 740.489L5.59376 737.688L8.39493 737.688L8.39493 736.288L6.99434 736.288L6.99434 734.887L5.59376 734.887L5.59376 732.086ZM5.59376 744.693L12.5967 744.693L12.5967 743.292L13.9973 743.292L13.9973 744.693L15.3979 744.693L15.3979 747.494L13.9973 747.494L13.9973 748.894L15.3979 748.894L15.3979 751.695L13.9973 751.695L13.9973 748.894L12.5967 748.894L12.5967 747.494L8.39493 747.494L8.39493 748.894L6.99434 748.894L6.99434 747.494L5.59376 747.494L5.59376 744.693ZM5.59376 754.49L12.5967 754.49L12.5967 753.089L13.9973 753.089L13.9973 754.49L15.3979 754.49L15.3979 757.291L12.5967 757.291L12.5967 758.692L13.9973 758.692L13.9973 760.092L15.3979 760.092L15.3979 764.294L8.39493 764.294L8.39493 765.694L9.79551 765.694L9.79551 767.095L8.39493 767.095L8.39493 765.694L6.99434 765.694L6.99434 764.294L5.59376 764.294L5.59376 761.493L13.9973 761.493L13.9973 760.092L12.5967 760.092L12.5967 758.692L11.1961 758.692L11.1961 757.291L5.59376 757.291L5.59376 754.49ZM16.7984 775.488L18.199 775.488L18.199 776.888L19.5996 776.888L19.5996 778.289L18.199 778.289L18.199 776.888L16.7984 776.888L16.7984 775.488ZM5.59376 775.488L12.5967 775.488L12.5967 774.087L13.9973 774.087L13.9973 775.488L15.3979 775.488L15.3979 778.289L6.99434 778.289L6.99434 779.689L8.39493 779.689L8.39493 781.09L9.79551 781.09L9.79551 782.491L8.39493 782.491L8.39493 781.09L6.99434 781.09L6.99434 779.689L5.59376 779.689L5.59376 775.488ZM5.59376 783.882L12.5967 783.882L12.5967 782.481L13.9973 782.481L13.9973 783.882L15.3979 783.882L15.3979 786.683L12.5967 786.683L12.5967 788.083L13.9973 788.083L13.9973 789.484L15.3979 789.484L15.3979 793.686L8.39493 793.686L8.39493 795.086L9.79551 795.086L9.79551 796.487L8.39493 796.487L8.39493 795.086L6.99434 795.086L6.99434 793.686L5.59376 793.686L5.59376 790.885L13.9973 790.885L13.9973 789.484L12.5967 789.484L12.5967 788.083L11.1961 788.083L11.1961 786.683L5.59376 786.683L5.59376 783.882ZM2.79259 799.289L4.19317 799.289L4.19317 800.69L5.59376 800.69L5.59376 799.289L8.39493 799.289L8.39493 802.091L4.19317 802.091L4.19317 800.69L2.79259 800.69L2.79259 799.289ZM6.99434 811.873L8.39493 811.873L8.39493 813.273L6.99434 813.273L6.99434 817.475L9.79551 817.475L9.79551 813.273L11.1961 813.273L11.1961 811.873L13.9973 811.873L13.9973 813.273L15.3979 813.273L15.3979 818.876L13.9973 818.876L13.9973 820.276L12.5967 820.276L12.5967 818.876L13.9973 818.876L13.9973 814.674L11.1961 814.674L11.1961 818.876L9.79551 818.876L9.79551 820.276L6.99434 820.276L6.99434 818.876L5.59376 818.876L5.59376 813.273L6.99434 813.273L6.99434 811.873ZM5.59376 824.471L6.99434 824.471L6.99434 823.071L12.5967 823.071L12.5967 821.67L13.9973 821.67L13.9973 823.071L15.3979 823.071L15.3979 825.872L6.99434 825.872L6.99434 827.272L8.39493 827.272L8.39493 828.673L9.79551 828.673L9.79551 830.073L15.3979 830.073L15.3979 832.875L8.39493 832.875L8.39493 834.275L9.79551 834.275L9.79551 835.676L8.39493 835.676L8.39493 834.275L6.99434 834.275L6.99434 832.875L5.59376 832.875L5.59376 830.073L8.39493 830.073L8.39493 828.673L6.99434 828.673L6.99434 827.272L5.59376 827.272L5.59376 824.471ZM6.99434 838.478L6.99434 841.28L8.39493 841.28L8.39493 842.68L13.8852 842.68L13.8852 839.991L12.5967 839.991L12.5967 838.478L6.99434 838.478ZM5.59376 835.677L19.5996 835.677L19.5996 837.078L21.0002 837.078L21.0002 841.28L19.5996 841.28L19.5996 838.478L13.9973 838.478L13.9973 839.879L15.3979 839.879L15.3979 844.081L13.9973 844.081L13.9973 845.481L8.39493 845.481L8.39493 844.081L6.99434 844.081L6.99434 842.68L5.59376 842.68L5.59376 835.677ZM6.99434 846.878L8.39493 846.878L8.39493 848.278L6.99434 848.278L6.99434 852.48L9.79551 852.48L9.79551 848.278L11.1961 848.278L11.1961 846.878L13.9973 846.878L13.9973 848.278L15.3979 848.278L15.3979 853.881L13.9973 853.881L13.9973 855.281L12.5967 855.281L12.5967 853.881L13.9973 853.881L13.9973 849.679L11.1961 849.679L11.1961 853.881L9.79551 853.881L9.79551 855.281L6.99434 855.281L6.99434 853.881L5.59376 853.881L5.59376 848.278L6.99434 848.278L6.99434 846.878ZM5.59376 858.076L6.99434 858.076L6.99434 856.675L13.9973 856.675L13.9973 858.076L15.3979 858.076L15.3979 865.079L12.5967 865.079L12.5967 863.678L13.9973 863.678L13.9973 859.476L6.99434 859.476L6.99434 862.277L8.39493 862.277L8.39493 863.678L9.79551 863.678L9.79551 865.079L8.39493 865.079L8.39493 863.678L6.99434 863.678L6.99434 862.277L5.59376 862.277L5.59376 858.076ZM5.59376 867.873L12.5967 867.873L12.5967 866.472L13.9973 866.472L13.9973 867.873L15.3979 867.873L15.3979 870.674L13.9973 870.674L13.9973 872.075L15.3979 872.075L15.3979 874.876L13.9973 874.876L13.9973 872.075L12.5967 872.075L12.5967 870.674L8.39493 870.674L8.39493 872.075L6.99435 872.075L6.99435 870.674L5.59376 870.674L5.59376 867.873ZM16.7984 877.67L18.199 877.67L18.199 879.071L19.5996 879.071L19.5996 880.471L18.199 880.471L18.199 879.071L16.7984 879.071L16.7984 877.67ZM5.59376 877.67L12.5967 877.67L12.5967 876.27L13.9973 876.27L13.9973 877.67L15.3979 877.67L15.3979 880.471L6.99435 880.471L6.99435 881.872L8.39493 881.872L8.39493 883.273L9.79551 883.273L9.79551 884.673L8.39493 884.673L8.39493 883.273L6.99435 883.273L6.99435 881.872L5.59376 881.872L5.59376 877.67ZM6.99435 887.465L6.99435 890.266L8.39493 890.266L8.39493 891.666L13.8852 891.666L13.8852 888.977L12.5967 888.977L12.5967 887.465L6.99435 887.465ZM5.59376 884.664L19.5996 884.664L19.5996 886.064L21.0002 886.064L21.0002 890.266L19.5996 890.266L19.5996 887.465L13.9973 887.465L13.9973 888.865L15.3979 888.865L15.3979 893.067L13.9973 893.067L13.9973 894.468L8.39493 894.468L8.39493 893.067L6.99435 893.067L6.99435 891.666L5.59376 891.666L5.59376 884.664ZM9.90756 898.665L9.90756 899.954L11.3081 899.954L11.3081 901.354L12.7087 901.354L12.7087 902.755L13.9973 902.755L13.9973 898.665L9.90756 898.665ZM6.99435 895.864L13.9973 895.864L13.9973 897.265L15.3979 897.265L15.3979 904.268L12.5967 904.268L12.5967 902.867L11.1961 902.867L11.1961 901.466L9.79551 901.466L9.79551 900.066L8.39493 900.066L8.39493 898.665L6.99435 898.665L6.99435 902.867L8.39493 902.867L8.39493 904.268L9.79551 904.268L9.79551 905.668L8.39493 905.668L8.39493 904.268L6.99435 904.268L6.99435 902.867L5.59376 902.867L5.59376 897.265L6.99435 897.265L6.99435 895.864ZM2.79259 908.462L4.19318 908.462L4.19318 909.863L5.59376 909.863L5.59376 908.462L8.39493 908.462L8.39493 911.264L4.19318 911.264L4.19318 909.863L2.79259 909.863L2.79259 908.462ZM5.59376 922.446L12.5967 922.446L12.5967 921.046L13.9973 921.046L13.9973 922.446L15.3979 922.446L15.3979 923.847L13.9973 923.847L13.9973 925.248L8.39493 925.248L8.39493 926.648L9.79552 926.648L9.79552 928.049L11.1961 928.049L11.1961 929.449L12.5967 929.449L12.5967 928.049L13.9973 928.049L13.9973 929.449L15.3979 929.449L15.3979 930.85L13.9973 930.85L13.9973 932.251L6.99435 932.251L6.99435 933.651L8.39493 933.651L8.39493 935.052L9.79552 935.052L9.79552 936.452L12.5967 936.452L12.5967 935.052L13.9973 935.052L13.9973 936.452L15.3979 936.452L15.3979 937.853L13.9973 937.853L13.9973 939.253L11.1961 939.253L11.1961 937.853L9.79552 937.853L9.79552 936.452L8.39493 936.452L8.39493 935.052L6.99435 935.052L6.99435 933.651L5.59376 933.651L5.59376 929.449L9.79552 929.449L9.79552 928.049L8.39493 928.049L8.39493 926.648L6.99435 926.648L6.99435 925.248L5.59376 925.248L5.59376 922.446ZM16.7984 942.067L18.199 942.067L18.199 943.468L19.5996 943.468L19.5996 944.868L18.199 944.868L18.199 943.468L16.7984 943.468L16.7984 942.067ZM5.59376 942.067L12.5967 942.067L12.5967 940.666L13.9973 940.666L13.9973 942.067L15.3979 942.067L15.3979 944.868L6.99435 944.868L6.99435 946.269L8.39493 946.269L8.39493 947.669L9.79552 947.669L9.79552 949.07L8.39493 949.07L8.39493 947.669L6.99435 947.669L6.99435 946.269L5.59376 946.269L5.59376 942.067ZM5.59376 950.461L12.5967 950.461L12.5967 949.06L13.9973 949.06L13.9973 950.461L15.3979 950.461L15.3979 953.262L12.5967 953.262L12.5967 954.663L13.9973 954.663L13.9973 956.063L15.3979 956.063L15.3979 960.265L8.39493 960.265L8.39493 961.666L9.79552 961.666L9.79552 963.066L8.39493 963.066L8.39493 961.666L6.99435 961.666L6.99435 960.265L5.59376 960.265L5.59376 957.464L13.9973 957.464L13.9973 956.063L12.5967 956.063L12.5967 954.663L11.1961 954.663L11.1961 953.262L5.59376 953.262L5.59376 950.461ZM6.99435 974.26L6.99435 977.061L8.39493 977.061L8.39493 978.462L13.8852 978.462L13.8852 975.772L12.5967 975.772L12.5967 974.26L6.99435 974.26ZM1.39201 970.058L1.39201 971.459L12.5967 971.459L12.5967 970.058L13.9973 970.058L13.9973 971.459L15.3979 971.459L15.3979 974.26L13.9973 974.26L13.9973 975.66L15.3979 975.66L15.3979 979.862L13.9973 979.862L13.9973 981.263L8.39493 981.263L8.39493 979.862L6.99435 979.862L6.99435 978.462L5.59376 978.462L5.59376 974.26L1.39201 974.26L1.39201 972.859L-0.00857714 972.859L-0.00857717 970.058L1.39201 970.058ZM5.59376 984.063L12.5967 984.063L12.5967 982.662L13.9973 982.662L13.9973 984.063L15.3979 984.063L15.3979 986.864L13.9973 986.864L13.9973 988.264L15.3979 988.264L15.3979 991.066L13.9973 991.066L13.9973 988.264L12.5967 988.264L12.5967 986.864L8.39493 986.864L8.39493 988.264L6.99435 988.264L6.99435 986.864L5.59376 986.864L5.59376 984.063ZM16.7984 993.86L18.199 993.86L18.199 995.261L19.5996 995.261L19.5996 996.661L18.199 996.661L18.199 995.261L16.7984 995.261L16.7984 993.86ZM5.59376 993.86L12.5967 993.86L12.5967 992.459L13.9973 992.459L13.9973 993.86L15.3979 993.86L15.3979 996.661L6.99435 996.661L6.99435 998.062L8.39493 998.062L8.39493 999.462L9.79552 999.462L9.79552 1000.86L8.39493 1000.86L8.39493 999.462L6.99435 999.462L6.99435 998.062L5.59376 998.062L5.59376 993.86ZM5.59376 1000.85L6.99435 1000.85L6.99435 1002.25L8.39493 1002.25L8.39493 1003.65L9.79552 1003.65L9.79552 1005.05L11.1961 1005.05L11.1961 1006.46L12.5967 1006.46L12.5967 1007.86L13.9973 1007.86L13.9973 1002.25L12.5967 1002.25L12.5967 1000.85L13.9973 1000.85L13.9973 1002.25L15.3979 1002.25L15.3979 1010.66L12.5967 1010.66L12.5967 1009.26L11.1961 1009.26L11.1961 1007.86L9.79552 1007.86L9.79552 1006.46L8.39493 1006.46L8.39493 1005.05L6.99435 1005.05L6.99435 1010.66L8.39493 1010.66L8.39493 1012.06L6.99435 1012.06L6.99435 1010.66L5.59376 1010.66L5.59376 1000.85ZM9.90756 1014.86L9.90756 1016.14L11.3081 1016.14L11.3081 1017.54L12.7087 1017.54L12.7087 1018.94L13.9973 1018.94L13.9973 1014.86L9.90756 1014.86ZM6.99435 1012.05L13.9973 1012.05L13.9973 1013.45L15.3979 1013.45L15.3979 1020.46L12.5967 1020.46L12.5967 1019.06L11.1961 1019.06L11.1961 1017.66L9.79552 1017.66L9.79552 1016.26L8.39493 1016.26L8.39493 1014.86L6.99435 1014.86L6.99435 1019.06L8.39493 1019.06L8.39493 1020.46L9.79552 1020.46L9.79552 1021.86L8.39493 1021.86L8.39493 1020.46L6.99435 1020.46L6.99435 1019.06L5.59376 1019.06L5.59376 1013.45L6.99435 1013.45L6.99435 1012.05ZM6.99435 1021.85L8.39493 1021.85L8.39493 1023.25L6.99435 1023.25L6.99435 1027.45L9.79552 1027.45L9.79552 1023.25L11.1961 1023.25L11.1961 1021.85L13.9973 1021.85L13.9973 1023.25L15.3979 1023.25L15.3979 1028.85L13.9973 1028.85L13.9973 1030.25L12.5967 1030.25L12.5967 1028.85L13.9973 1028.85L13.9973 1024.65L11.1961 1024.65L11.1961 1028.85L9.79552 1028.85L9.79552 1030.25L6.99435 1030.25L6.99435 1028.85L5.59376 1028.85L5.59376 1023.25L6.99435 1023.25L6.99435 1021.85ZM9.79552 1034.45L19.5996 1034.45L19.5996 1037.25L9.79552 1037.25L9.79552 1034.45ZM5.59376 1034.45L8.39493 1034.45L8.39493 1037.25L5.59376 1037.25L5.59376 1034.45Z" fill="white"/>
</svg>
