<svg width="85" height="14" viewBox="0 0 85 14" fill="none" xmlns="http://www.w3.org/2000/svg">
<path d="M0.346562 2.20061H1.76582V12.1354H0.346562V2.20061ZM1.76582 12.1354H7.44286V13.5547H1.76582V12.1354ZM7.44286 10.7162H8.86212V12.1354H7.44286V10.7162ZM7.44286 2.20061H8.86212V3.61987H7.44286V2.20061ZM1.76582 0.781353H7.44286V2.20061H1.76582V0.781353ZM10.2738 0.781353H11.693V13.5547H10.2738V0.781353ZM13.115 6.45839H14.5343V12.1354H13.115V6.45839ZM14.5343 12.1354H18.7921V13.5547H14.5343V12.1354ZM14.5343 5.03913H18.7921V6.45839H14.5343V5.03913ZM18.7921 6.45839H20.2113V12.1354H18.7921V6.45839ZM28.7352 13.5547H27.316V12.1354H25.8967V10.7162H27.316V5.03913H28.7352V13.5547ZM23.0582 12.1354H25.8967V13.5547H23.0582V12.1354H21.6389V5.03913H23.0582V12.1354ZM37.2591 13.5547H31.582V12.1354H35.8398V6.45839H31.582V12.1354H30.1628V6.45839H31.582V5.03913H35.8398V0.781353H37.2591V13.5547ZM38.6867 7.87765H42.9444V9.29691H38.6867V7.87765ZM44.3692 5.03913H45.7885V6.45839H47.2078V7.87765H45.7885V13.5547H44.3692V5.03913ZM50.0463 6.45839H47.2078V5.03913H50.0463V6.45839H51.4655V13.5547H50.0463V6.45839ZM54.3124 12.1354H52.8931V9.29691H54.3124V12.1354H58.5702V9.29691H54.3124V7.87765H58.5702V6.45839H54.3124V5.03913H58.5702V6.45839H59.9894V13.5547H54.3124V12.1354ZM61.417 2.20061H62.8362V5.03913H64.2555V6.45839H62.8362V12.1354H64.2555V13.5547H62.8362V12.1354H61.417V2.20061ZM65.6789 5.03913H67.0982V13.5547H65.6789V5.03913ZM65.6789 0.781353H67.0982V2.20061H65.6789V0.781353ZM68.5202 5.03913H69.9395V7.87765H68.5202V5.03913ZM69.9395 7.87765H71.3587V10.7162H69.9395V7.87765ZM71.3587 10.7162H72.778V13.5547H71.3587V10.7162ZM72.778 7.87765H74.1972V10.7162H72.778V7.87765ZM74.1972 5.03913H75.6165V7.87765H74.1972V5.03913ZM78.4633 12.1354H77.0441V6.45839H78.4633V7.87765H82.7211V6.45839H78.4633V5.03913H82.7211V6.45839H84.1404V9.29691H78.4633V12.1354H82.7211V13.5547H78.4633V12.1354ZM82.7211 10.7162H84.1404V12.1354H82.7211V10.7162Z" fill="#3A2F2F"/>
</svg>
