<svg width="983" height="2428" viewBox="0 0 983 2428" fill="none" xmlns="http://www.w3.org/2000/svg">
<path d="M974.654 8.26108L983 0H0V2428L8.34605 2419.74L974.654 8.26108Z" fill="#DCDCDC"/>
<path d="M983 0L974.654 8.26108L8.34605 2419.74L0 2428H983V0Z" fill="#818282"/>
<path d="M974.656 11.5039H8.34766V2416.5H974.656V11.5039Z" fill="#BFBEBE"/>
<path d="M967.97 2352.87L911.211 2409.01H967.97V2352.87Z" fill="#BFBEBE"/>
<path d="M974.656 74.4062H8.34766V2419.75H974.656V74.4062Z" fill="#BFBEBE"/>
<path d="M961.376 82.6562H17.5352V2360.61H961.376V82.6562Z" fill="#818282"/>
<path d="M961.29 86.9688H21.7031V2360.61H961.29V86.9688Z" fill="#272930"/>
<path d="M974.656 8.34375H8.34766V70.954H974.656V8.34375Z" fill="url(#paint0_linear_13012_16158)"/>
<path d="M962.965 20.872L965.47 18.3672H922.898V60.9391L925.403 58.4343L962.965 20.872Z" fill="#DCDCDC"/>
<path d="M962.965 20.872L925.403 58.4343L922.898 60.9391H965.47V18.3672L962.965 20.872Z" fill="#818282"/>
<path d="M962.964 20.8711H925.402V58.4335H962.964V20.8711Z" fill="#BFBEBE"/>
<path d="M931.631 25.3226L929.859 27.0938L956.774 54.0086L958.545 52.2374L931.631 25.3226Z" fill="#161616"/>
<path d="M956.766 25.3117L929.852 52.2266L931.623 53.9977L958.537 27.0829L956.766 25.3117Z" fill="#161616"/>
<path d="M908.709 20.872L911.214 18.3672H868.633V60.9391L871.138 58.4343L908.709 20.872Z" fill="#DCDCDC"/>
<path d="M908.709 20.872L871.138 58.4343L868.633 60.9391H911.214V18.3672L908.709 20.872Z" fill="#818282"/>
<path d="M908.699 20.8711H871.137V58.4335H908.699V20.8711Z" fill="#BFBEBE"/>
<path d="M904.115 53.8493H875.73V25.4648H904.115V53.8493ZM878.235 51.3445H901.61V27.9696H878.235V51.3445Z" fill="#161616"/>
<path d="M902.856 27.25H876.977V30.5866H902.856V27.25Z" fill="#161616"/>
<path d="M866.129 20.872L868.634 18.3672H826.062V60.9391L828.567 58.4343L866.129 20.872Z" fill="#DCDCDC"/>
<path d="M866.129 20.872L828.567 58.4343L826.062 60.9391H868.634V18.3672L866.129 20.872Z" fill="#818282"/>
<path d="M866.128 20.8711H828.566V58.4335H866.128V20.8711Z" fill="#BFBEBE"/>
<path d="M856.943 50.9844H837.746V53.4892H856.943V50.9844Z" fill="#161616"/>
<path d="M961.373 2360.79L918.641 2403.52H922.847L961.373 2365V2360.79Z" fill="#DCDCDC"/>
<path d="M961.374 2365L922.848 2403.52H927.054L961.374 2369.2V2365Z" fill="#818282"/>
<path d="M961.373 2374.1L931.949 2403.52H936.155L961.373 2378.3V2374.1Z" fill="#DCDCDC"/>
<path d="M961.374 2378.3L936.156 2403.52H940.362L961.374 2382.51V2378.3Z" fill="#818282"/>
<path d="M961.373 2387.41L945.258 2403.52H949.464L961.373 2391.61V2387.41Z" fill="#DCDCDC"/>
<path d="M961.374 2391.61L949.465 2403.52H953.671L961.374 2395.81V2391.61Z" fill="#818282"/>
<path d="M961.286 86.9688H918.715V2360.61H961.286V86.9688Z" fill="#DCDCDC"/>
<path d="M958.789 2320.26L961.294 2317.73H918.723V2360.61L921.227 2358.09L958.789 2320.26Z" fill="#DCDCDC"/>
<path d="M958.789 2320.26L921.227 2358.09L918.723 2360.61H961.294V2317.73L958.789 2320.26Z" fill="#818282"/>
<path d="M958.788 2320.26H921.227V2358.08H958.788V2320.26Z" fill="#BFBEBE"/>
<path d="M940.01 2349.08L927.07 2332.87H952.94L940.01 2349.08Z" fill="#818282"/>
<path d="M958.789 89.844L961.294 87.3203H918.723V130.195L921.227 127.671L958.789 89.844Z" fill="#DCDCDC"/>
<path d="M958.789 89.844L921.227 127.671L918.723 130.195H961.294V87.3203L958.789 89.844Z" fill="#818282"/>
<path d="M958.788 89.8438H921.227V127.671H958.788V89.8438Z" fill="#BFBEBE"/>
<path d="M940.01 100.184L927.07 116.394H952.94L940.01 100.184Z" fill="#818282"/>
<path d="M17.5313 2360.61L17.5312 2403.18H917.893V2360.61H17.5313Z" fill="#DCDCDC"/>
<path d="M915.369 2363.11L917.893 2360.61H875.066V2403.18L877.581 2400.68L915.369 2363.11Z" fill="#DCDCDC"/>
<path d="M915.369 2363.11L877.581 2400.68L875.066 2403.18H917.893V2360.61L915.369 2363.11Z" fill="#818282"/>
<path d="M915.371 2363.12H877.582V2400.68H915.371V2363.12Z" fill="#BFBEBE"/>
<path d="M904.574 2381.43L888.383 2368.49V2394.37L904.574 2381.43Z" fill="#818282"/>
<path d="M57.8342 2363.11L60.3579 2360.61H17.5312V2403.18L20.0455 2400.68L57.8342 2363.11Z" fill="#DCDCDC"/>
<path d="M57.8342 2363.11L20.0455 2400.68L17.5312 2403.18H60.3579V2360.61L57.8342 2363.11Z" fill="#818282"/>
<path d="M57.8357 2363.11H20.0469V2400.68H57.8357V2363.11Z" fill="#BFBEBE"/>
<path d="M30.8477 2381.43L47.0388 2368.49V2394.37L30.8477 2381.43Z" fill="#818282"/>
<defs>
<linearGradient id="paint0_linear_13012_16158" x1="8.34766" y1="39.6489" x2="974.656" y2="39.6489" gradientUnits="userSpaceOnUse">
<stop stop-color="#6ABFEB"/>
<stop offset="0.51" stop-color="#6C89C6"/>
<stop offset="1" stop-color="#6F51A1"/>
</linearGradient>
</defs>
</svg>
