<svg width="1202" height="828" viewBox="0 0 1202 828" fill="none" xmlns="http://www.w3.org/2000/svg">
<path d="M1196.62 4.91424L1201.59 0H0V828L4.97175 823.086L1196.62 4.91424Z" fill="#DCDCDC"/>
<path d="M1201.59 0L1196.62 4.91424L4.97175 823.086L0 828H1201.59V0Z" fill="#818282"/>
<path d="M1196.63 6.84375H4.97266V821.153H1196.63V6.84375Z" fill="#BFBEBE"/>
<path d="M1192.65 783.285L1158.86 816.699H1192.65V783.285Z" fill="#BFBEBE"/>
<path d="M1196.63 44.2812H4.97266V823.09H1196.63V44.2812Z" fill="#BFBEBE"/>
<path d="M1188.72 49.1914H10.4355V787.897H1188.72V49.1914Z" fill="#818282"/>
<path d="M1188.67 51.75H12.918V787.891H1188.67V51.75Z" fill="#272930"/>
<path d="M1196.62 4.96094H4.9707V42.2204H1196.62V4.96094Z" fill="url(#paint0_linear_13012_15674)"/>
<path d="M1189.67 12.4093L1191.16 10.9219H1165.82V36.2573L1167.32 34.7617L1189.67 12.4093Z" fill="#DCDCDC"/>
<path d="M1189.67 12.4093L1167.32 34.7617L1165.82 36.2573H1191.16V10.9219L1189.67 12.4093Z" fill="#818282"/>
<path d="M1189.66 12.4102H1167.31V34.7625H1189.66V12.4102Z" fill="#BFBEBE"/>
<path d="M1171.02 15.081L1169.96 16.1328L1185.98 32.1475L1187.03 31.0957L1171.02 15.081Z" fill="#161616"/>
<path d="M1185.97 15.0673L1169.95 31.082L1171 32.1338L1187.02 16.119L1185.97 15.0673Z" fill="#161616"/>
<path d="M1157.38 12.4093L1158.87 10.9219H1133.53V36.2573L1135.02 34.7617L1157.38 12.4093Z" fill="#DCDCDC"/>
<path d="M1157.38 12.4093L1135.02 34.7617L1133.53 36.2573H1158.87V10.9219L1157.38 12.4093Z" fill="#818282"/>
<path d="M1157.37 12.4102H1135.02V34.7625H1157.37V12.4102Z" fill="#BFBEBE"/>
<path d="M1154.64 32.0399H1137.75V15.1523H1154.64V32.0399ZM1139.24 30.5525H1153.15V16.6398H1139.24V30.5525Z" fill="#161616"/>
<path d="M1153.89 16.2109H1138.49V18.1996H1153.89V16.2109Z" fill="#161616"/>
<path d="M1132.04 12.4093L1133.53 10.9219H1108.2V36.2573L1109.68 34.7617L1132.04 12.4093Z" fill="#DCDCDC"/>
<path d="M1132.04 12.4093L1109.68 34.7617L1108.2 36.2573H1133.53V10.9219L1132.04 12.4093Z" fill="#818282"/>
<path d="M1132.04 12.4102H1109.68V34.7625H1132.04V12.4102Z" fill="#BFBEBE"/>
<path d="M1126.57 30.3359H1115.15V31.8234H1126.57V30.3359Z" fill="#161616"/>
<path d="M1188.72 788.004L1163.29 813.43H1165.79L1188.72 790.502V788.004Z" fill="#DCDCDC"/>
<path d="M1188.72 790.5L1165.79 813.428H1168.29L1188.72 793.006V790.5Z" fill="#818282"/>
<path d="M1188.72 795.926L1171.21 813.43H1173.71L1188.72 798.424V795.926Z" fill="#DCDCDC"/>
<path d="M1188.72 798.422L1173.71 813.428H1176.21L1188.72 800.92V798.422Z" fill="#818282"/>
<path d="M1188.72 803.836L1179.13 813.426H1181.63L1188.72 806.342V803.836Z" fill="#DCDCDC"/>
<path d="M1188.72 806.344L1181.62 813.427H1184.13L1188.72 808.842V806.344Z" fill="#818282"/>
<path d="M1188.67 51.75H1163.34V787.891H1188.67V51.75Z" fill="#DCDCDC"/>
<path d="M1187.18 763.878L1188.68 762.383H1163.34V787.899L1164.83 786.395L1187.18 763.878Z" fill="#DCDCDC"/>
<path d="M1187.18 763.878L1164.83 786.395L1163.34 787.899H1188.68V762.383L1187.18 763.878Z" fill="#818282"/>
<path d="M1187.18 763.883H1164.83V786.4H1187.18V763.883Z" fill="#BFBEBE"/>
<path d="M1176 781.038L1168.3 771.391H1183.7L1176 781.038Z" fill="#818282"/>
<path d="M1187.18 53.4648L1188.68 51.9609H1163.34V77.4772L1164.83 75.9733L1187.18 53.4648Z" fill="#DCDCDC"/>
<path d="M1187.18 53.4648L1164.83 75.9733L1163.34 77.4772H1188.68V51.9609L1187.18 53.4648Z" fill="#818282"/>
<path d="M1187.18 53.4688H1164.83V75.9855H1187.18V53.4688Z" fill="#BFBEBE"/>
<path d="M1176 59.6172L1168.3 69.2649H1183.7L1176 59.6172Z" fill="#818282"/>
<path d="M10.4277 787.899L10.4277 813.234L1162.84 813.234V787.899L10.4277 787.899Z" fill="#DCDCDC"/>
<path d="M1161.35 789.386L1162.84 787.898H1137.36V813.234L1138.86 811.738L1161.35 789.386Z" fill="#DCDCDC"/>
<path d="M1161.35 789.386L1138.86 811.738L1137.36 813.234H1162.84V787.898L1161.35 789.386Z" fill="#818282"/>
<path d="M1161.34 789.387H1138.86V811.739H1161.34V789.387Z" fill="#BFBEBE"/>
<path d="M1154.92 800.29L1145.28 792.59V807.99L1154.92 800.29Z" fill="#818282"/>
<path d="M34.4151 789.386L35.9189 787.898H10.4355V813.234L11.9312 811.738L34.4151 789.386Z" fill="#DCDCDC"/>
<path d="M34.4151 789.386L11.9312 811.738L10.4355 813.234H35.9189V787.898L34.4151 789.386Z" fill="#818282"/>
<path d="M34.4155 789.387H11.9316V811.739H34.4155V789.387Z" fill="#BFBEBE"/>
<path d="M18.3594 800.29L27.9906 792.59V807.99L18.3594 800.29Z" fill="#818282"/>
<defs>
<linearGradient id="paint0_linear_13012_15674" x1="4.9707" y1="23.5907" x2="1196.62" y2="23.5907" gradientUnits="userSpaceOnUse">
<stop stop-color="#6ABFEB"/>
<stop offset="0.51" stop-color="#6C89C6"/>
<stop offset="1" stop-color="#6F51A1"/>
</linearGradient>
</defs>
</svg>
